<?xml version="1.0" encoding="UTF-8" standalone="no"?>
<!DOCTYPE svg PUBLIC "-//W3C//DTD SVG 1.1//EN"
 "http://www.w3.org/Graphics/SVG/1.1/DTD/svg11.dtd">
<!-- Generated by graphviz version 14.1.4 (20260321.0153)
 -->
<!-- Title: acme_workflow Pages: 1 -->
<svg width="1042pt" height="982pt"
 viewBox="0.00 0.00 1042.00 982.00" xmlns="http://www.w3.org/2000/svg" xmlns:xlink="http://www.w3.org/1999/xlink">
<g id="graph0" class="graph" transform="scale(1 1) rotate(0) translate(36 945.56)">
<title>acme_workflow</title>
<polygon fill="#ffffff" stroke="none" points="-36,36 -36,-945.56 1006,-945.56 1006,36 -36,36"/>
<text xml:space="preserve" text-anchor="middle" x="485" y="-888.46" font-family="Helvetica,sans-Serif" font-size="18.00" fill="#334155">ACME Certificate Issuance (RFC 8555)</text>
<g id="clust1" class="cluster">
<title>cluster_client</title>
<polygon fill="#ffffff" stroke="#6b7280" stroke-dasharray="5,2" points="91,-188.06 91,-871.81 301,-871.81 301,-188.06 91,-188.06"/>
<text xml:space="preserve" text-anchor="middle" x="196" y="-850.71" font-family="Helvetica,sans-Serif" font-size="18.00" fill="#6b7280">ACME Client (certbot)</text>
</g>
<g id="clust2" class="cluster">
<title>cluster_server</title>
<polygon fill="#d1fae5" stroke="#059669" points="8,-88.06 8,-180.06 962,-180.06 962,-88.06 8,-88.06"/>
<text xml:space="preserve" text-anchor="middle" x="485" y="-158.96" font-family="Helvetica,sans-Serif" font-size="18.00" fill="#059669">ipacta ACME Server</text>
</g>
<!-- c_dir -->
<g id="node1" class="node">
<title>c_dir</title>
<polygon fill="#f3f4f6" stroke="#6b7280" stroke-width="1.5" points="287.5,-834.06 160.5,-834.06 160.5,-798.06 287.5,-798.06 287.5,-834.06"/>
<text xml:space="preserve" text-anchor="middle" x="224" y="-812.94" font-family="Helvetica,sans-Serif" font-size="10.00">1. GET /acme/directory</text>
</g>
<!-- c_nonce -->
<g id="node2" class="node">
<title>c_nonce</title>
<polygon fill="#f3f4f6" stroke="#6b7280" stroke-width="1.5" points="292.5,-748.06 147.5,-748.06 147.5,-712.06 292.5,-712.06 292.5,-748.06"/>
<text xml:space="preserve" text-anchor="middle" x="220" y="-726.94" font-family="Helvetica,sans-Serif" font-size="10.00">2. HEAD /acme/new&#45;nonce</text>
</g>
<!-- c_dir&#45;&gt;c_nonce -->
<!-- s_dir -->
<g id="node9" class="node">
<title>s_dir</title>
<polygon fill="#6ee7b7" stroke="#059669" stroke-width="1.5" points="954,-137.19 890,-137.19 890,-101.19 954,-101.19 954,-137.19"/>
<text xml:space="preserve" text-anchor="middle" x="922" y="-122.44" font-family="Helvetica,sans-Serif" font-size="10.00">Directory</text>
<text xml:space="preserve" text-anchor="middle" x="922" y="-109.69" font-family="Helvetica,sans-Serif" font-size="10.00">endpoints</text>
</g>
<!-- c_dir&#45;&gt;s_dir -->
<g id="edge1" class="edge">
<title>c_dir&#45;&gt;s_dir</title>
<path fill="none" stroke="#6b7280" d="M288.2,-811.87C451.9,-801.98 872,-764.93 872,-645.06 872,-645.06 872,-645.06 872,-299.06 872,-243.78 894.43,-182.32 909.24,-147.75"/>
<polygon fill="#6b7280" stroke="#6b7280" points="912.31,-149.46 913.13,-138.89 905.9,-146.64 912.31,-149.46"/>
</g>
<!-- c_acct -->
<g id="node3" class="node">
<title>c_acct</title>
<polygon fill="#f3f4f6" stroke="#6b7280" stroke-width="1.5" points="292.88,-662.06 141.12,-662.06 141.12,-626.06 292.88,-626.06 292.88,-662.06"/>
<text xml:space="preserve" text-anchor="middle" x="217" y="-647.31" font-family="Helvetica,sans-Serif" font-size="10.00">3. POST /acme/new&#45;account</text>
<text xml:space="preserve" text-anchor="middle" x="217" y="-634.56" font-family="Helvetica,sans-Serif" font-size="10.00">(JWS signed)</text>
</g>
<!-- c_nonce&#45;&gt;c_acct -->
<!-- s_nonce -->
<g id="node10" class="node">
<title>s_nonce</title>
<polygon fill="#6ee7b7" stroke="#059669" stroke-width="1.5" points="853.75,-137.19 734.25,-137.19 734.25,-101.19 853.75,-101.19 853.75,-137.19"/>
<text xml:space="preserve" text-anchor="middle" x="794" y="-122.44" font-family="Helvetica,sans-Serif" font-size="10.00">Generate nonce</text>
<text xml:space="preserve" text-anchor="middle" x="794" y="-109.69" font-family="Helvetica,sans-Serif" font-size="10.00">(30min expiry, LDAP)</text>
</g>
<!-- c_nonce&#45;&gt;s_nonce -->
<g id="edge2" class="edge">
<title>c_nonce&#45;&gt;s_nonce</title>
<path fill="none" stroke="#6b7280" d="M293.14,-720.84C437.23,-702.58 744,-652.73 744,-559.06 744,-559.06 744,-559.06 744,-299.06 744,-243.78 766.43,-182.32 781.24,-147.75"/>
<polygon fill="#6b7280" stroke="#6b7280" points="784.31,-149.46 785.13,-138.89 777.9,-146.64 784.31,-149.46"/>
</g>
<!-- c_order -->
<g id="node4" class="node">
<title>c_order</title>
<polygon fill="#f3f4f6" stroke="#6b7280" stroke-width="1.5" points="291.5,-576.06 152.5,-576.06 152.5,-540.06 291.5,-540.06 291.5,-576.06"/>
<text xml:space="preserve" text-anchor="middle" x="222" y="-561.31" font-family="Helvetica,sans-Serif" font-size="10.00">4. POST /acme/new&#45;order</text>
<text xml:space="preserve" text-anchor="middle" x="222" y="-548.56" font-family="Helvetica,sans-Serif" font-size="10.00">(identifiers)</text>
</g>
<!-- c_acct&#45;&gt;c_order -->
<!-- s_acct -->
<g id="node11" class="node">
<title>s_acct</title>
<polygon fill="#6ee7b7" stroke="#059669" stroke-width="1.5" points="698.25,-137.19 587.75,-137.19 587.75,-101.19 698.25,-101.19 698.25,-137.19"/>
<text xml:space="preserve" text-anchor="middle" x="643" y="-122.44" font-family="Helvetica,sans-Serif" font-size="10.00">Create/find account</text>
<text xml:space="preserve" text-anchor="middle" x="643" y="-109.69" font-family="Helvetica,sans-Serif" font-size="10.00">(JWK thumbprint)</text>
</g>
<!-- c_acct&#45;&gt;s_acct -->
<g id="edge3" class="edge">
<title>c_acct&#45;&gt;s_acct</title>
<path fill="none" stroke="#6b7280" d="M293.27,-643.11C408.83,-638.73 615,-611.5 615,-473.06 615,-473.06 615,-473.06 615,-299.06 615,-245.41 627.45,-183.77 635.75,-148.66"/>
<polygon fill="#6b7280" stroke="#6b7280" points="639.06,-149.83 638.02,-139.29 632.26,-148.18 639.06,-149.83"/>
</g>
<!-- c_authz -->
<g id="node5" class="node">
<title>c_authz</title>
<polygon fill="#f3f4f6" stroke="#6b7280" stroke-width="1.5" points="292.25,-490.06 151.75,-490.06 151.75,-454.06 292.25,-454.06 292.25,-490.06"/>
<text xml:space="preserve" text-anchor="middle" x="222" y="-475.31" font-family="Helvetica,sans-Serif" font-size="10.00">5. POST /acme/authz/{id}</text>
<text xml:space="preserve" text-anchor="middle" x="222" y="-462.56" font-family="Helvetica,sans-Serif" font-size="10.00">(get challenges)</text>
</g>
<!-- c_order&#45;&gt;c_authz -->
<!-- s_order -->
<g id="node12" class="node">
<title>s_order</title>
<polygon fill="#6ee7b7" stroke="#059669" stroke-width="1.5" points="551.5,-142.31 454.5,-142.31 454.5,-96.06 551.5,-96.06 551.5,-142.31"/>
<text xml:space="preserve" text-anchor="middle" x="503" y="-128.81" font-family="Helvetica,sans-Serif" font-size="10.00">Create order</text>
<text xml:space="preserve" text-anchor="middle" x="503" y="-116.06" font-family="Helvetica,sans-Serif" font-size="10.00">+ authorizations</text>
<text xml:space="preserve" text-anchor="middle" x="503" y="-103.31" font-family="Helvetica,sans-Serif" font-size="10.00">+ challenges</text>
</g>
<!-- c_order&#45;&gt;s_order -->
<g id="edge4" class="edge">
<title>c_order&#45;&gt;s_order</title>
<path fill="none" stroke="#6b7280" d="M291.96,-546.7C376.63,-529.74 508,-487.28 508,-387.06 508,-387.06 508,-387.06 508,-299.06 508,-248.68 505.99,-190.35 504.52,-154.36"/>
<polygon fill="#6b7280" stroke="#6b7280" points="508.03,-154.41 504.11,-144.57 501.03,-154.7 508.03,-154.41"/>
</g>
<!-- c_chall -->
<g id="node6" class="node">
<title>c_chall</title>
<polygon fill="#f3f4f6" stroke="#6b7280" stroke-width="1.5" points="292.75,-404.06 149.25,-404.06 149.25,-368.06 292.75,-368.06 292.75,-404.06"/>
<text xml:space="preserve" text-anchor="middle" x="221" y="-389.31" font-family="Helvetica,sans-Serif" font-size="10.00">6. POST /acme/chall/{tok}</text>
<text xml:space="preserve" text-anchor="middle" x="221" y="-376.56" font-family="Helvetica,sans-Serif" font-size="10.00">(respond)</text>
</g>
<!-- c_authz&#45;&gt;c_chall -->
<!-- s_validate -->
<g id="node13" class="node">
<title>s_validate</title>
<polygon fill="#6ee7b7" stroke="#059669" stroke-width="1.5" points="418.75,-142.31 311.25,-142.31 311.25,-96.06 418.75,-96.06 418.75,-142.31"/>
<text xml:space="preserve" text-anchor="middle" x="365" y="-128.81" font-family="Helvetica,sans-Serif" font-size="10.00">Validate challenge</text>
<text xml:space="preserve" text-anchor="middle" x="365" y="-116.06" font-family="Helvetica,sans-Serif" font-size="10.00">(http&#45;01 or dns&#45;01)</text>
<text xml:space="preserve" text-anchor="middle" x="365" y="-103.31" font-family="Helvetica,sans-Serif" font-size="10.00">SSRF protection</text>
</g>
<!-- c_authz&#45;&gt;s_validate -->
<g id="edge5" class="edge">
<title>c_authz&#45;&gt;s_validate</title>
<path fill="none" stroke="#6b7280" d="M252.82,-453.48C271.61,-441.51 295.01,-424.21 311,-404.06 362.3,-339.41 366.38,-313.29 381,-232.06 385.71,-205.92 380.96,-176.13 375.44,-153.87"/>
<polygon fill="#6b7280" stroke="#6b7280" points="378.88,-153.2 372.92,-144.44 372.12,-155 378.88,-153.2"/>
</g>
<!-- c_final -->
<g id="node7" class="node">
<title>c_final</title>
<polygon fill="#f3f4f6" stroke="#6b7280" stroke-width="1.5" points="292.62,-318.06 145.38,-318.06 145.38,-282.06 292.62,-282.06 292.62,-318.06"/>
<text xml:space="preserve" text-anchor="middle" x="219" y="-303.31" font-family="Helvetica,sans-Serif" font-size="10.00">7. POST /order/{id}/finalize</text>
<text xml:space="preserve" text-anchor="middle" x="219" y="-290.56" font-family="Helvetica,sans-Serif" font-size="10.00">(CSR)</text>
</g>
<!-- c_chall&#45;&gt;c_final -->
<!-- c_chall&#45;&gt;s_validate -->
<g id="edge6" class="edge">
<title>c_chall&#45;&gt;s_validate</title>
<path fill="none" stroke="#6b7280" d="M254.57,-367.55C273.74,-355.93 296.73,-338.98 311,-318.06 345.41,-267.62 357.95,-195.97 362.48,-154.16"/>
<polygon fill="#6b7280" stroke="#6b7280" points="365.94,-154.75 363.43,-144.45 358.97,-154.07 365.94,-154.75"/>
</g>
<!-- c_cert -->
<g id="node8" class="node">
<title>c_cert</title>
<polygon fill="#f3f4f6" stroke="#6b7280" stroke-width="1.5" points="231.12,-232.06 98.88,-232.06 98.88,-196.06 231.12,-196.06 231.12,-232.06"/>
<text xml:space="preserve" text-anchor="middle" x="165" y="-217.31" font-family="Helvetica,sans-Serif" font-size="10.00">8. POST /acme/cert/{id}</text>
<text xml:space="preserve" text-anchor="middle" x="165" y="-204.56" font-family="Helvetica,sans-Serif" font-size="10.00">(download)</text>
</g>
<!-- c_final&#45;&gt;c_cert -->
<!-- s_sign -->
<g id="node14" class="node">
<title>s_sign</title>
<polygon fill="#6ee7b7" stroke="#059669" stroke-width="1.5" points="275.5,-142.31 124.5,-142.31 124.5,-96.06 275.5,-96.06 275.5,-142.31"/>
<text xml:space="preserve" text-anchor="middle" x="200" y="-128.81" font-family="Helvetica,sans-Serif" font-size="10.00">Verify authzs</text>
<text xml:space="preserve" text-anchor="middle" x="200" y="-116.06" font-family="Helvetica,sans-Serif" font-size="10.00">Sign certificate</text>
<text xml:space="preserve" text-anchor="middle" x="200" y="-103.31" font-family="Helvetica,sans-Serif" font-size="10.00">(acmeIPAServerCert profile)</text>
</g>
<!-- c_final&#45;&gt;s_sign -->
<g id="edge7" class="edge">
<title>c_final&#45;&gt;s_sign</title>
<path fill="none" stroke="#6b7280" d="M229.98,-281.61C242.39,-259.61 259.56,-220.73 249,-188.06 244.82,-175.12 237.14,-162.57 229.09,-151.85"/>
<polygon fill="#6b7280" stroke="#6b7280" points="231.91,-149.77 222.94,-144.13 226.43,-154.13 231.91,-149.77"/>
</g>
<!-- s_cert -->
<g id="node15" class="node">
<title>s_cert</title>
<polygon fill="#6ee7b7" stroke="#059669" stroke-width="1.5" points="88.12,-137.19 15.88,-137.19 15.88,-101.19 88.12,-101.19 88.12,-137.19"/>
<text xml:space="preserve" text-anchor="middle" x="52" y="-122.44" font-family="Helvetica,sans-Serif" font-size="10.00">Return PEM</text>
<text xml:space="preserve" text-anchor="middle" x="52" y="-109.69" font-family="Helvetica,sans-Serif" font-size="10.00">+ chain</text>
</g>
<!-- c_cert&#45;&gt;s_cert -->
<g id="edge8" class="edge">
<title>c_cert&#45;&gt;s_cert</title>
<path fill="none" stroke="#6b7280" d="M129.82,-195.37C122.01,-190.82 113.98,-185.62 107,-180.06 94.63,-170.21 82.55,-157.51 72.88,-146.35"/>
<polygon fill="#6b7280" stroke="#6b7280" points="75.78,-144.35 66.65,-138.96 70.42,-148.86 75.78,-144.35"/>
</g>
<!-- ldap -->
<g id="node16" class="node">
<title>ldap</title>
<path fill="#ede9fe" stroke="#7c3aed" stroke-width="1.5" d="M560.12,-41.88C560.12,-44.19 534.52,-46.06 503,-46.06 471.48,-46.06 445.88,-44.19 445.88,-41.88 445.88,-41.88 445.88,-4.19 445.88,-4.19 445.88,-1.88 471.48,0 503,0 534.52,0 560.12,-1.88 560.12,-4.19 560.12,-4.19 560.12,-41.88 560.12,-41.88"/>
<path fill="none" stroke="#7c3aed" stroke-width="1.5" d="M560.12,-41.88C560.12,-39.56 534.52,-37.69 503,-37.69 471.48,-37.69 445.88,-39.56 445.88,-41.88"/>
<text xml:space="preserve" text-anchor="middle" x="503" y="-26.28" font-family="Helvetica,sans-Serif" font-size="10.00">LDAP</text>
<text xml:space="preserve" text-anchor="middle" x="503" y="-13.53" font-family="Helvetica,sans-Serif" font-size="10.00">(ou=acme,o=ipaca)</text>
</g>
<!-- s_nonce&#45;&gt;ldap -->
<g id="edge11" class="edge">
<title>s_nonce&#45;&gt;ldap</title>
<path fill="none" stroke="#6b7280" stroke-dasharray="5,2" d="M750.08,-100.55C739.02,-96.29 727.12,-91.88 716,-88.06 668.22,-71.68 613.65,-55.32 571.71,-43.24"/>
<polygon fill="#6b7280" stroke="#6b7280" points="572.82,-39.92 562.24,-40.52 570.89,-46.64 572.82,-39.92"/>
</g>
<!-- s_acct&#45;&gt;ldap -->
<g id="edge9" class="edge">
<title>s_acct&#45;&gt;ldap</title>
<path fill="none" stroke="#6b7280" stroke-dasharray="5,2" d="M616.67,-100.48C596.69,-87.04 568.8,-68.29 545.66,-52.72"/>
<polygon fill="#6b7280" stroke="#6b7280" points="547.9,-50.01 537.65,-47.33 543.99,-55.82 547.9,-50.01"/>
</g>
<!-- s_order&#45;&gt;ldap -->
<g id="edge10" class="edge">
<title>s_order&#45;&gt;ldap</title>
<path fill="none" stroke="#6b7280" stroke-dasharray="5,2" d="M503,-95.39C503,-84.18 503,-70.42 503,-58"/>
<polygon fill="#6b7280" stroke="#6b7280" points="506.5,-58.13 503,-48.13 499.5,-58.13 506.5,-58.13"/>
</g>
<!-- s_validate&#45;&gt;ldap -->
<g id="edge12" class="edge">
<title>s_validate&#45;&gt;ldap</title>
<path fill="none" stroke="#6b7280" stroke-dasharray="5,2" d="M398.41,-95.39C417.05,-82.67 440.47,-66.69 460.42,-53.08"/>
<polygon fill="#6b7280" stroke="#6b7280" points="462.36,-55.99 468.65,-47.47 458.42,-50.21 462.36,-55.99"/>
</g>
<!-- s_sign&#45;&gt;ldap -->
<g id="edge13" class="edge">
<title>s_sign&#45;&gt;ldap</title>
<path fill="none" stroke="#6b7280" stroke-dasharray="5,2" d="M270.04,-95.36C277.78,-92.88 285.55,-90.4 293,-88.06 340.13,-73.25 393.37,-57.02 434.45,-44.61"/>
<polygon fill="#6b7280" stroke="#6b7280" points="435.42,-47.97 443.98,-41.73 433.39,-41.27 435.42,-47.97"/>
</g>
</g>
</svg>
