<?xml version="1.0" encoding="UTF-8" standalone="no"?>
<!DOCTYPE svg PUBLIC "-//W3C//DTD SVG 1.1//EN"
 "http://www.w3.org/Graphics/SVG/1.1/DTD/svg11.dtd">
<!-- Generated by graphviz version 14.1.4 (20260321.0153)
 -->
<!-- Title: architecture_overview Pages: 1 -->
<svg width="1179pt" height="1057pt"
 viewBox="0.00 0.00 1179.00 1057.00" xmlns="http://www.w3.org/2000/svg" xmlns:xlink="http://www.w3.org/1999/xlink">
<g id="graph0" class="graph" transform="scale(1 1) rotate(0) translate(36 1020.62)">
<title>architecture_overview</title>
<polygon fill="#ffffff" stroke="none" points="-36,36 -36,-1020.62 1142.89,-1020.62 1142.89,36 -36,36"/>
<text xml:space="preserve" text-anchor="middle" x="553.44" y="-963.52" font-family="Helvetica,sans-Serif" font-size="18.00" fill="#334155">ipacta Architecture Overview</text>
<g id="clust1" class="cluster">
<title>cluster_clients</title>
<polygon fill="#ffffff" stroke="#6b7280" stroke-dasharray="5,2" points="8,-865.12 8,-946.88 507,-946.88 507,-865.12 8,-865.12"/>
<text xml:space="preserve" text-anchor="middle" x="257.5" y="-925.77" font-family="Helvetica,sans-Serif" font-size="18.00" fill="#6b7280">Clients</text>
</g>
<g id="clust2" class="cluster">
<title>cluster_httpd</title>
<polygon fill="#dbeafe" stroke="#2563eb" points="200,-725.12 200,-819.38 395,-819.38 395,-725.12 200,-725.12"/>
<text xml:space="preserve" text-anchor="middle" x="297.5" y="-798.27" font-family="Helvetica,sans-Serif" font-size="18.00" fill="#2563eb">httpd (apache user)</text>
</g>
<g id="clust3" class="cluster">
<title>cluster_ipacta</title>
<polygon fill="#d1fae5" stroke="#059669" points="186,-135.88 186,-666.62 507,-666.62 507,-135.88 186,-135.88"/>
<text xml:space="preserve" text-anchor="middle" x="346.5" y="-645.52" font-family="Helvetica,sans-Serif" font-size="18.00" fill="#059669">ipacta.service (ipaca user)</text>
</g>
<g id="clust4" class="cluster">
<title>cluster_storage</title>
<polygon fill="#ede9fe" stroke="#7c3aed" points="535,-8 535,-101.88 844,-101.88 844,-8 535,-8"/>
<text xml:space="preserve" text-anchor="middle" x="689.5" y="-80.78" font-family="Helvetica,sans-Serif" font-size="18.00" fill="#7c3aed">Storage</text>
</g>
<!-- ipa_cli -->
<g id="node1" class="node">
<title>ipa_cli</title>
<polygon fill="#f3f4f6" stroke="#6b7280" stroke-width="1.5" points="188.38,-909.12 15.62,-909.12 15.62,-873.12 188.38,-873.12 188.38,-909.12"/>
<text xml:space="preserve" text-anchor="middle" x="102" y="-894.17" font-family="Helvetica,sans-Serif" font-size="11.00">ipa CLI</text>
<text xml:space="preserve" text-anchor="middle" x="102" y="-880.67" font-family="Helvetica,sans-Serif" font-size="11.00">(cert&#45;request, cert&#45;show, ...)</text>
</g>
<!-- httpd -->
<g id="node4" class="node">
<title>httpd</title>
<polygon fill="#93c5fd" stroke="#2563eb" stroke-width="1.5" points="362.38,-781.62 231.62,-781.62 231.62,-733.12 362.38,-733.12 362.38,-781.62"/>
<text xml:space="preserve" text-anchor="middle" x="297" y="-767.17" font-family="Helvetica,sans-Serif" font-size="11.00">Apache httpd</text>
<text xml:space="preserve" text-anchor="middle" x="297" y="-753.67" font-family="Helvetica,sans-Serif" font-size="11.00">mod_ssl + mod_wsgi</text>
<text xml:space="preserve" text-anchor="middle" x="297" y="-740.17" font-family="Helvetica,sans-Serif" font-size="11.00">(reverse proxy)</text>
</g>
<!-- ipa_cli&#45;&gt;httpd -->
<g id="edge1" class="edge">
<title>ipa_cli&#45;&gt;httpd</title>
<path fill="none" stroke="#6b7280" d="M127.89,-872.63C159.6,-851.21 213.83,-814.57 252.32,-788.56"/>
<polygon fill="#6b7280" stroke="#6b7280" points="254.17,-791.54 260.49,-783.04 250.25,-785.74 254.17,-791.54"/>
<text xml:space="preserve" text-anchor="middle" x="237.9" y="-830.62" font-family="Helvetica,sans-Serif" font-size="10.00">Kerberos + HTTPS</text>
</g>
<!-- certmonger -->
<g id="node2" class="node">
<title>certmonger</title>
<polygon fill="#f3f4f6" stroke="#6b7280" stroke-width="1.5" points="355.25,-909.12 238.75,-909.12 238.75,-873.12 355.25,-873.12 355.25,-909.12"/>
<text xml:space="preserve" text-anchor="middle" x="297" y="-894.17" font-family="Helvetica,sans-Serif" font-size="11.00">certmonger</text>
<text xml:space="preserve" text-anchor="middle" x="297" y="-880.67" font-family="Helvetica,sans-Serif" font-size="11.00">(renewal tracking)</text>
</g>
<!-- certmonger&#45;&gt;httpd -->
<g id="edge2" class="edge">
<title>certmonger&#45;&gt;httpd</title>
<path fill="none" stroke="#6b7280" d="M297,-872.63C297,-852.57 297,-819.16 297,-793.64"/>
<polygon fill="#6b7280" stroke="#6b7280" points="300.5,-793.71 297,-783.71 293.5,-793.71 300.5,-793.71"/>
<text xml:space="preserve" text-anchor="middle" x="312.75" y="-830.62" font-family="Helvetica,sans-Serif" font-size="10.00">HTTPS</text>
</g>
<!-- acme_client -->
<g id="node3" class="node">
<title>acme_client</title>
<polygon fill="#f3f4f6" stroke="#6b7280" stroke-width="1.5" points="498.62,-909.12 405.38,-909.12 405.38,-873.12 498.62,-873.12 498.62,-909.12"/>
<text xml:space="preserve" text-anchor="middle" x="452" y="-894.17" font-family="Helvetica,sans-Serif" font-size="11.00">ACME Client</text>
<text xml:space="preserve" text-anchor="middle" x="452" y="-880.67" font-family="Helvetica,sans-Serif" font-size="11.00">(certbot, etc.)</text>
</g>
<!-- acme_client&#45;&gt;httpd -->
<g id="edge3" class="edge">
<title>acme_client&#45;&gt;httpd</title>
<path fill="none" stroke="#6b7280" d="M431.42,-872.63C406.53,-851.48 364.2,-815.5 333.69,-789.56"/>
<polygon fill="#6b7280" stroke="#6b7280" points="336.06,-786.98 326.17,-783.17 331.53,-792.32 336.06,-786.98"/>
<text xml:space="preserve" text-anchor="middle" x="428.19" y="-830.62" font-family="Helvetica,sans-Serif" font-size="10.00">HTTPS (ACME)</text>
</g>
<!-- gunicorn -->
<g id="node5" class="node">
<title>gunicorn</title>
<polygon fill="#6ee7b7" stroke="#059669" stroke-width="1.5" points="372.12,-628.88 221.88,-628.88 221.88,-592.88 372.12,-592.88 372.12,-628.88"/>
<text xml:space="preserve" text-anchor="middle" x="297" y="-613.92" font-family="Helvetica,sans-Serif" font-size="11.00">Gunicorn</text>
<text xml:space="preserve" text-anchor="middle" x="297" y="-600.42" font-family="Helvetica,sans-Serif" font-size="11.00">(WSGI server, sd_notify)</text>
</g>
<!-- httpd&#45;&gt;gunicorn -->
<g id="edge4" class="edge">
<title>httpd&#45;&gt;gunicorn</title>
<path fill="none" stroke="#6b7280" d="M297,-732.51C297,-707.35 297,-667.69 297,-640.77"/>
<polygon fill="#6b7280" stroke="#6b7280" points="300.5,-640.91 297,-630.91 293.5,-640.91 300.5,-640.91"/>
<text xml:space="preserve" text-anchor="middle" x="335.25" y="-690.62" font-family="Helvetica,sans-Serif" font-size="10.00">HTTPS</text>
<text xml:space="preserve" text-anchor="middle" x="335.25" y="-677.88" font-family="Helvetica,sans-Serif" font-size="10.00">(TLS client cert)</text>
</g>
<!-- rest_api -->
<g id="node6" class="node">
<title>rest_api</title>
<polygon fill="#6ee7b7" stroke="#059669" stroke-width="1.5" points="379.25,-525.88 214.75,-525.88 214.75,-489.88 379.25,-489.88 379.25,-525.88"/>
<text xml:space="preserve" text-anchor="middle" x="297" y="-510.93" font-family="Helvetica,sans-Serif" font-size="11.00">REST API</text>
<text xml:space="preserve" text-anchor="middle" x="297" y="-497.43" font-family="Helvetica,sans-Serif" font-size="11.00">(Flask, Dogtag&#45;compatible)</text>
</g>
<!-- gunicorn&#45;&gt;rest_api -->
<g id="edge5" class="edge">
<title>gunicorn&#45;&gt;rest_api</title>
<path fill="none" stroke="#6b7280" d="M297,-592.28C297,-577.31 297,-555.51 297,-537.95"/>
<polygon fill="#6b7280" stroke="#6b7280" points="300.5,-538.12 297,-528.12 293.5,-538.12 300.5,-538.12"/>
</g>
<!-- ca_engine -->
<g id="node7" class="node">
<title>ca_engine</title>
<polygon fill="#6ee7b7" stroke="#059669" stroke-width="1.5" points="499,-319.88 357,-319.88 357,-271.38 499,-271.38 499,-319.88"/>
<text xml:space="preserve" text-anchor="middle" x="428" y="-305.43" font-family="Helvetica,sans-Serif" font-size="11.00">CA Engine</text>
<text xml:space="preserve" text-anchor="middle" x="428" y="-291.93" font-family="Helvetica,sans-Serif" font-size="11.00">(PythonCA / InternalCA</text>
<text xml:space="preserve" text-anchor="middle" x="428" y="-278.43" font-family="Helvetica,sans-Serif" font-size="11.00">/ PythonCABackend)</text>
</g>
<!-- rest_api&#45;&gt;ca_engine -->
<g id="edge6" class="edge">
<title>rest_api&#45;&gt;ca_engine</title>
<path fill="none" stroke="#6b7280" d="M274.27,-489.45C246.27,-465.8 205.05,-422.41 228,-386.88 253.95,-346.69 302.56,-324.22 345.36,-311.74"/>
<polygon fill="#6b7280" stroke="#6b7280" points="346.22,-315.14 354.93,-309.11 344.36,-308.39 346.22,-315.14"/>
</g>
<!-- ocsp -->
<g id="node9" class="node">
<title>ocsp</title>
<polygon fill="#6ee7b7" stroke="#059669" stroke-width="1.5" points="499.12,-422.88 390.88,-422.88 390.88,-386.88 499.12,-386.88 499.12,-422.88"/>
<text xml:space="preserve" text-anchor="middle" x="445" y="-407.93" font-family="Helvetica,sans-Serif" font-size="11.00">OCSP Responder</text>
<text xml:space="preserve" text-anchor="middle" x="445" y="-394.43" font-family="Helvetica,sans-Serif" font-size="11.00">(per&#45;CA, cached)</text>
</g>
<!-- rest_api&#45;&gt;ocsp -->
<g id="edge8" class="edge">
<title>rest_api&#45;&gt;ocsp</title>
<path fill="none" stroke="#6b7280" d="M322.78,-489.28C346.83,-472.87 382.9,-448.25 409.63,-430.01"/>
<polygon fill="#6b7280" stroke="#6b7280" points="411.48,-432.99 417.77,-424.46 407.54,-427.2 411.48,-432.99"/>
</g>
<!-- acme_srv -->
<g id="node10" class="node">
<title>acme_srv</title>
<polygon fill="#6ee7b7" stroke="#059669" stroke-width="1.5" points="340.62,-422.88 253.38,-422.88 253.38,-386.88 340.62,-386.88 340.62,-422.88"/>
<text xml:space="preserve" text-anchor="middle" x="297" y="-407.93" font-family="Helvetica,sans-Serif" font-size="11.00">ACME Server</text>
<text xml:space="preserve" text-anchor="middle" x="297" y="-394.43" font-family="Helvetica,sans-Serif" font-size="11.00">(RFC 8555)</text>
</g>
<!-- rest_api&#45;&gt;acme_srv -->
<g id="edge7" class="edge">
<title>rest_api&#45;&gt;acme_srv</title>
<path fill="none" stroke="#6b7280" d="M297,-489.28C297,-474.31 297,-452.51 297,-434.95"/>
<polygon fill="#6b7280" stroke="#6b7280" points="300.5,-435.12 297,-425.12 293.5,-435.12 300.5,-435.12"/>
</g>
<!-- profiles -->
<g id="node8" class="node">
<title>profiles</title>
<polygon fill="#6ee7b7" stroke="#059669" stroke-width="1.5" points="498.75,-179.88 385.25,-179.88 385.25,-143.88 498.75,-143.88 498.75,-179.88"/>
<text xml:space="preserve" text-anchor="middle" x="442" y="-164.93" font-family="Helvetica,sans-Serif" font-size="11.00">Profile Manager</text>
<text xml:space="preserve" text-anchor="middle" x="442" y="-151.43" font-family="Helvetica,sans-Serif" font-size="11.00">(LDAP hot&#45;reload)</text>
</g>
<!-- ca_engine&#45;&gt;profiles -->
<g id="edge9" class="edge">
<title>ca_engine&#45;&gt;profiles</title>
<path fill="none" stroke="#6b7280" d="M430.54,-270.77C432.9,-248.54 436.42,-215.36 438.94,-191.67"/>
<polygon fill="#6b7280" stroke="#6b7280" points="442.42,-192.07 439.99,-181.76 435.46,-191.33 442.42,-192.07"/>
</g>
<!-- audit -->
<g id="node11" class="node">
<title>audit</title>
<polygon fill="#6ee7b7" stroke="#059669" stroke-width="1.5" points="335.62,-179.88 194.38,-179.88 194.38,-143.88 335.62,-143.88 335.62,-179.88"/>
<text xml:space="preserve" text-anchor="middle" x="265" y="-164.93" font-family="Helvetica,sans-Serif" font-size="11.00">Audit Logger</text>
<text xml:space="preserve" text-anchor="middle" x="265" y="-151.43" font-family="Helvetica,sans-Serif" font-size="11.00">(signed, hash&#45;chained)</text>
</g>
<!-- ca_engine&#45;&gt;audit -->
<g id="edge10" class="edge">
<title>ca_engine&#45;&gt;audit</title>
<path fill="none" stroke="#6b7280" d="M398.48,-270.77C369.22,-247.11 324.6,-211.05 295.13,-187.23"/>
<polygon fill="#6b7280" stroke="#6b7280" points="297.65,-184.77 287.68,-181.2 293.25,-190.21 297.65,-184.77"/>
</g>
<!-- ldap -->
<g id="node12" class="node">
<title>ldap</title>
<path fill="#c4b5fd" stroke="#7c3aed" stroke-width="1.5" d="M836.38,-59.75C836.38,-62.16 807.07,-64.12 771,-64.12 734.93,-64.12 705.62,-62.16 705.62,-59.75 705.62,-59.75 705.62,-20.38 705.62,-20.38 705.62,-17.96 734.93,-16 771,-16 807.07,-16 836.38,-17.96 836.38,-20.38 836.38,-20.38 836.38,-59.75 836.38,-59.75"/>
<path fill="none" stroke="#7c3aed" stroke-width="1.5" d="M836.38,-59.75C836.38,-57.34 807.07,-55.38 771,-55.38 734.93,-55.38 705.62,-57.34 705.62,-59.75"/>
<text xml:space="preserve" text-anchor="middle" x="771" y="-43.11" font-family="Helvetica,sans-Serif" font-size="11.00">389 Directory Server</text>
<text xml:space="preserve" text-anchor="middle" x="771" y="-29.61" font-family="Helvetica,sans-Serif" font-size="11.00">(LDAP, o=ipaca)</text>
</g>
<!-- ca_engine&#45;&gt;ldap -->
<g id="edge11" class="edge">
<title>ca_engine&#45;&gt;ldap</title>
<path fill="none" stroke="#6b7280" d="M473.55,-270.65C490.89,-261.1 510.65,-249.69 528,-238.38 607.11,-186.78 625.97,-171.96 698,-110.88 712.15,-98.87 727.08,-84.87 739.72,-72.56"/>
<polygon fill="#6b7280" stroke="#6b7280" points="741.9,-75.32 746.59,-65.82 737,-70.33 741.9,-75.32"/>
<text xml:space="preserve" text-anchor="middle" x="680.57" y="-158.75" font-family="Helvetica,sans-Serif" font-size="10.00">LDAP</text>
</g>
<!-- nssdb -->
<g id="node13" class="node">
<title>nssdb</title>
<polygon fill="#c4b5fd" stroke="#7c3aed" stroke-width="1.5" points="655.38,-58.06 652.38,-62.06 631.38,-62.06 628.38,-58.06 542.62,-58.06 542.62,-22.06 655.38,-22.06 655.38,-58.06"/>
<text xml:space="preserve" text-anchor="middle" x="599" y="-43.11" font-family="Helvetica,sans-Serif" font-size="11.00">NSS Database</text>
<text xml:space="preserve" text-anchor="middle" x="599" y="-29.61" font-family="Helvetica,sans-Serif" font-size="11.00">(CA keys &amp; certs)</text>
</g>
<!-- ca_engine&#45;&gt;nssdb -->
<g id="edge12" class="edge">
<title>ca_engine&#45;&gt;nssdb</title>
<path fill="none" stroke="#6b7280" d="M450.48,-270.69C470.97,-248.23 501.4,-213.19 524,-179.88 548.81,-143.29 572.15,-97.67 586.01,-68.94"/>
<polygon fill="#6b7280" stroke="#6b7280" points="589.04,-70.71 590.19,-60.18 582.72,-67.7 589.04,-70.71"/>
<text xml:space="preserve" text-anchor="middle" x="569.29" y="-158.75" font-family="Helvetica,sans-Serif" font-size="10.00">key ops</text>
</g>
<!-- hsm -->
<g id="node14" class="node">
<title>hsm</title>
<polygon fill="#fef3c7" stroke="#d97706" stroke-width="1.5" points="939.5,-179.88 816.5,-179.88 812.5,-175.88 812.5,-143.88 935.5,-143.88 939.5,-147.88 939.5,-179.88"/>
<polyline fill="none" stroke="#d97706" stroke-width="1.5" points="935.5,-175.88 812.5,-175.88"/>
<polyline fill="none" stroke="#d97706" stroke-width="1.5" points="935.5,-175.88 935.5,-143.88"/>
<polyline fill="none" stroke="#d97706" stroke-width="1.5" points="935.5,-175.88 939.5,-179.88"/>
<text xml:space="preserve" text-anchor="middle" x="876" y="-164.93" font-family="Helvetica,sans-Serif" font-size="11.00">HSM</text>
<text xml:space="preserve" text-anchor="middle" x="876" y="-151.43" font-family="Helvetica,sans-Serif" font-size="11.00">(PKCS#11, optional)</text>
</g>
<!-- ca_engine&#45;&gt;hsm -->
<g id="edge17" class="edge">
<title>ca_engine&#45;&gt;hsm</title>
<path fill="none" stroke="#6b7280" stroke-dasharray="5,2" d="M499.53,-292.94C571.68,-288.99 684.97,-276.58 775,-238.38 803.18,-226.42 830.72,-204.99 849.9,-188.01"/>
<polygon fill="#6b7280" stroke="#6b7280" points="852.18,-190.67 857.23,-181.35 847.48,-185.48 852.18,-190.67"/>
<text xml:space="preserve" text-anchor="middle" x="844.91" y="-228.88" font-family="Helvetica,sans-Serif" font-size="10.00">PKCS#11</text>
<text xml:space="preserve" text-anchor="middle" x="844.91" y="-216.12" font-family="Helvetica,sans-Serif" font-size="10.00">(if enabled)</text>
</g>
<!-- profiles&#45;&gt;ldap -->
<g id="edge13" class="edge">
<title>profiles&#45;&gt;ldap</title>
<path fill="none" stroke="#6b7280" d="M499.46,-145.52C511.83,-142.28 524.84,-138.92 537,-135.88 600.37,-120.01 620.12,-127.99 680,-101.88 698.17,-93.95 716.65,-82.38 732.16,-71.46"/>
<polygon fill="#6b7280" stroke="#6b7280" points="734.13,-74.36 740.18,-65.66 730.03,-68.68 734.13,-74.36"/>
</g>
<!-- ocsp&#45;&gt;ldap -->
<g id="edge16" class="edge">
<title>ocsp&#45;&gt;ldap</title>
<path fill="none" stroke="#6b7280" d="M499.82,-403.51C642.49,-402 1016.85,-394.2 1054,-353.88 1127.48,-274.12 1121.01,-195.14 1054,-109.88 1028.81,-77.83 923.11,-58.85 848.29,-49.2"/>
<polygon fill="#6b7280" stroke="#6b7280" points="848.89,-45.74 838.53,-47.97 848.01,-52.69 848.89,-45.74"/>
</g>
<!-- acme_srv&#45;&gt;ca_engine -->
<g id="edge14" class="edge">
<title>acme_srv&#45;&gt;ca_engine</title>
<path fill="none" stroke="#6b7280" d="M318.63,-386.16C338.01,-370.3 366.86,-346.68 390.07,-327.68"/>
<polygon fill="#6b7280" stroke="#6b7280" points="392.28,-330.39 397.8,-321.35 387.85,-324.98 392.28,-330.39"/>
</g>
<!-- acme_srv&#45;&gt;ldap -->
<g id="edge15" class="edge">
<title>acme_srv&#45;&gt;ldap</title>
<path fill="none" stroke="#6b7280" d="M341.37,-392.36C469.6,-358.95 834.82,-262.79 885,-238.38 924.61,-219.1 945.06,-219.15 965,-179.88 994.56,-121.63 914.06,-82.46 847.9,-60.98"/>
<polygon fill="#6b7280" stroke="#6b7280" points="849.03,-57.67 838.44,-58.01 846.93,-64.34 849.03,-57.67"/>
</g>
</g>
</svg>
