<?xml version="1.0" encoding="UTF-8" standalone="no"?>
<!DOCTYPE svg PUBLIC "-//W3C//DTD SVG 1.1//EN"
 "http://www.w3.org/Graphics/SVG/1.1/DTD/svg11.dtd">
<!-- Generated by graphviz version 14.1.4 (20260321.0153)
 -->
<!-- Title: ca_engine_layers Pages: 1 -->
<svg width="554pt" height="719pt"
 viewBox="0.00 0.00 554.00 719.00" xmlns="http://www.w3.org/2000/svg" xmlns:xlink="http://www.w3.org/1999/xlink">
<g id="graph0" class="graph" transform="scale(1 1) rotate(0) translate(36 683.12)">
<title>ca_engine_layers</title>
<polygon fill="#ffffff" stroke="none" points="-36,36 -36,-683.12 517.62,-683.12 517.62,36 -36,36"/>
<text xml:space="preserve" text-anchor="middle" x="240.81" y="-626.02" font-family="Helvetica,sans-Serif" font-size="18.00" fill="#334155">CA Engine — Three&#45;Layer Architecture</text>
<!-- backend -->
<g id="node1" class="node">
<title>backend</title>
<polygon fill="#dbeafe" stroke="#2563eb" stroke-width="1.5" points="272.12,-432.88 272.12,-529.88 481.62,-529.88 481.62,-432.88 272.12,-432.88"/>
<text xml:space="preserve" text-anchor="middle" x="376.88" y="-515.42" font-family="Helvetica,sans-Serif" font-size="11.00">PythonCABackend (ca_backend.py)</text>
<polyline fill="none" stroke="#2563eb" stroke-width="1.5" points="272.12,-508.38 481.62,-508.38"/>
<text xml:space="preserve" text-anchor="start" x="280.12" y="-493.93" font-family="Helvetica,sans-Serif" font-size="11.00">Dogtag&#45;compatible REST interface</text>
<text xml:space="preserve" text-anchor="start" x="280.12" y="-480.43" font-family="Helvetica,sans-Serif" font-size="11.00"> Certificate enrollment / renewal</text>
<text xml:space="preserve" text-anchor="start" x="280.12" y="-466.93" font-family="Helvetica,sans-Serif" font-size="11.00"> CRL publication (atomic symlink)</text>
<text xml:space="preserve" text-anchor="start" x="280.12" y="-453.43" font-family="Helvetica,sans-Serif" font-size="11.00"> Request ID management</text>
<text xml:space="preserve" text-anchor="start" x="280.12" y="-439.93" font-family="Helvetica,sans-Serif" font-size="11.00"> Profile ↔ CA glue</text>
</g>
<!-- internal -->
<g id="node2" class="node">
<title>internal</title>
<polygon fill="#d1fae5" stroke="#059669" stroke-width="1.5" points="276.62,-285.62 276.62,-369.12 477.12,-369.12 477.12,-285.62 276.62,-285.62"/>
<text xml:space="preserve" text-anchor="middle" x="376.88" y="-354.68" font-family="Helvetica,sans-Serif" font-size="11.00">InternalCA (ca_internal.py)</text>
<polyline fill="none" stroke="#059669" stroke-width="1.5" points="276.62,-347.62 477.12,-347.62"/>
<text xml:space="preserve" text-anchor="start" x="284.62" y="-333.18" font-family="Helvetica,sans-Serif" font-size="11.00">Audit logging for all operations</text>
<text xml:space="preserve" text-anchor="start" x="284.62" y="-319.68" font-family="Helvetica,sans-Serif" font-size="11.00"> Principal tracking (who did what)</text>
<text xml:space="preserve" text-anchor="start" x="284.62" y="-306.18" font-family="Helvetica,sans-Serif" font-size="11.00"> LDAP schema initialization</text>
<text xml:space="preserve" text-anchor="start" x="284.62" y="-292.68" font-family="Helvetica,sans-Serif" font-size="11.00"> Sub&#45;CA management</text>
</g>
<!-- backend&#45;&gt;internal -->
<g id="edge1" class="edge">
<title>backend&#45;&gt;internal</title>
<path fill="none" stroke="#6b7280" d="M376.88,-432.28C376.88,-415.96 376.88,-397.64 376.88,-380.98"/>
<polygon fill="#6b7280" stroke="#6b7280" points="380.38,-381.27 376.88,-371.27 373.38,-381.27 380.38,-381.27"/>
<text xml:space="preserve" text-anchor="middle" x="396.38" y="-397.88" font-family="Helvetica,sans-Serif" font-size="10.00">extends</text>
</g>
<!-- core -->
<g id="node3" class="node">
<title>core</title>
<polygon fill="#ede9fe" stroke="#7c3aed" stroke-width="1.5" points="73.88,-111.38 73.88,-221.88 287.88,-221.88 287.88,-111.38 73.88,-111.38"/>
<text xml:space="preserve" text-anchor="middle" x="180.88" y="-207.43" font-family="Helvetica,sans-Serif" font-size="11.00">PythonCA (ca.py)</text>
<polyline fill="none" stroke="#7c3aed" stroke-width="1.5" points="73.88,-200.38 287.88,-200.38"/>
<text xml:space="preserve" text-anchor="start" x="81.88" y="-185.93" font-family="Helvetica,sans-Serif" font-size="11.00">Certificate signing (X.509)</text>
<text xml:space="preserve" text-anchor="start" x="81.88" y="-172.43" font-family="Helvetica,sans-Serif" font-size="11.00"> Revocation (revoke / hold / unhold)</text>
<text xml:space="preserve" text-anchor="start" x="81.88" y="-158.93" font-family="Helvetica,sans-Serif" font-size="11.00"> CRL generation</text>
<text xml:space="preserve" text-anchor="start" x="81.88" y="-145.43" font-family="Helvetica,sans-Serif" font-size="11.00"> LDAP storage (always on)</text>
<text xml:space="preserve" text-anchor="start" x="81.88" y="-131.93" font-family="Helvetica,sans-Serif" font-size="11.00"> Serial number management</text>
<text xml:space="preserve" text-anchor="start" x="81.88" y="-118.42" font-family="Helvetica,sans-Serif" font-size="11.00"> Profile integration</text>
</g>
<!-- internal&#45;&gt;core -->
<g id="edge2" class="edge">
<title>internal&#45;&gt;core</title>
<path fill="none" stroke="#6b7280" d="M325.89,-285.08C304.97,-268.14 280.3,-248.16 257.31,-229.53"/>
<polygon fill="#6b7280" stroke="#6b7280" points="259.73,-226.99 249.76,-223.42 255.33,-232.43 259.73,-226.99"/>
<text xml:space="preserve" text-anchor="middle" x="310.11" y="-250.62" font-family="Helvetica,sans-Serif" font-size="10.00">extends</text>
</g>
<!-- storage -->
<g id="node4" class="node">
<title>storage</title>
<path fill="#f3f4f6" stroke="#6b7280" stroke-width="1.5" d="M181.75,-43.75C181.75,-46.16 141.02,-48.12 90.88,-48.12 40.73,-48.12 0,-46.16 0,-43.75 0,-43.75 0,-4.38 0,-4.38 0,-1.96 40.73,0 90.88,0 141.02,0 181.75,-1.96 181.75,-4.38 181.75,-4.38 181.75,-43.75 181.75,-43.75"/>
<path fill="none" stroke="#6b7280" stroke-width="1.5" d="M181.75,-43.75C181.75,-41.34 141.02,-39.38 90.88,-39.38 40.73,-39.38 0,-41.34 0,-43.75"/>
<text xml:space="preserve" text-anchor="middle" x="90.88" y="-27.11" font-family="Helvetica,sans-Serif" font-size="11.00">LDAP Storage Backends</text>
<text xml:space="preserve" text-anchor="middle" x="90.88" y="-13.61" font-family="Helvetica,sans-Serif" font-size="11.00">(certificates, CRL, profiles, ...)</text>
</g>
<!-- core&#45;&gt;storage -->
<g id="edge3" class="edge">
<title>core&#45;&gt;storage</title>
<path fill="none" stroke="#6b7280" d="M145.82,-110.88C134.38,-93 122.03,-73.72 111.94,-57.97"/>
<polygon fill="#6b7280" stroke="#6b7280" points="115.14,-56.47 106.8,-49.93 109.24,-60.24 115.14,-56.47"/>
<text xml:space="preserve" text-anchor="middle" x="150.69" y="-76.38" font-family="Helvetica,sans-Serif" font-size="10.00">LDAP ops</text>
</g>
<!-- nssdb -->
<g id="node5" class="node">
<title>nssdb</title>
<polygon fill="#fef3c7" stroke="#d97706" stroke-width="1.5" points="318.5,-42.06 315.5,-46.06 294.5,-46.06 291.5,-42.06 225.25,-42.06 225.25,-6.06 318.5,-6.06 318.5,-42.06"/>
<text xml:space="preserve" text-anchor="middle" x="271.88" y="-27.11" font-family="Helvetica,sans-Serif" font-size="11.00">NSS DB / HSM</text>
<text xml:space="preserve" text-anchor="middle" x="271.88" y="-13.61" font-family="Helvetica,sans-Serif" font-size="11.00">(private keys)</text>
</g>
<!-- core&#45;&gt;nssdb -->
<g id="edge4" class="edge">
<title>core&#45;&gt;nssdb</title>
<path fill="none" stroke="#6b7280" d="M216.32,-110.88C229.3,-90.83 243.42,-69.01 254.18,-52.39"/>
<polygon fill="#6b7280" stroke="#6b7280" points="257.09,-54.35 259.58,-44.05 251.21,-50.54 257.09,-54.35"/>
<text xml:space="preserve" text-anchor="middle" x="258.59" y="-76.38" font-family="Helvetica,sans-Serif" font-size="10.00">key ops</text>
</g>
<!-- use_rest -->
<g id="node6" class="node">
<title>use_rest</title>
<polygon fill="#ffffff" stroke="#2563eb" stroke-width="1.5" points="445.62,-617.38 302.12,-617.38 302.12,-581.38 451.62,-581.38 451.62,-611.38 445.62,-617.38"/>
<polyline fill="none" stroke="#2563eb" stroke-width="1.5" points="445.62,-617.38 445.62,-611.38"/>
<polyline fill="none" stroke="#2563eb" stroke-width="1.5" points="451.62,-611.38 445.62,-611.38"/>
<text xml:space="preserve" text-anchor="middle" x="376.88" y="-595.67" font-family="Helvetica,sans-Serif" font-size="11.00" fill="#2563eb">REST API uses this layer</text>
</g>
<!-- use_rest&#45;&gt;backend -->
<g id="edge5" class="edge">
<title>use_rest&#45;&gt;backend</title>
<path fill="none" stroke="#2563eb" stroke-dasharray="5,2" d="M376.88,-580.76C376.88,-570.2 376.88,-556.11 376.88,-541.9"/>
<polygon fill="#2563eb" stroke="#2563eb" points="380.38,-542.05 376.88,-532.05 373.38,-542.05 380.38,-542.05"/>
</g>
<!-- use_acme -->
<g id="node7" class="node">
<title>use_acme</title>
<polygon fill="#ffffff" stroke="#7c3aed" stroke-width="1.5" points="227.75,-345.38 58,-345.38 58,-309.38 233.75,-309.38 233.75,-339.38 227.75,-345.38"/>
<polyline fill="none" stroke="#7c3aed" stroke-width="1.5" points="227.75,-345.38 227.75,-339.38"/>
<polyline fill="none" stroke="#7c3aed" stroke-width="1.5" points="233.75,-339.38 227.75,-339.38"/>
<text xml:space="preserve" text-anchor="middle" x="145.88" y="-323.68" font-family="Helvetica,sans-Serif" font-size="11.00" fill="#7c3aed">ACME / testing use this layer</text>
</g>
<!-- use_acme&#45;&gt;core -->
<g id="edge6" class="edge">
<title>use_acme&#45;&gt;core</title>
<path fill="none" stroke="#7c3aed" stroke-dasharray="5,2" d="M149.75,-308.78C153.77,-290.54 160.3,-260.93 166.35,-233.52"/>
<polygon fill="#7c3aed" stroke="#7c3aed" points="169.75,-234.35 168.48,-223.83 162.91,-232.84 169.75,-234.35"/>
</g>
</g>
</svg>
