<?xml version="1.0" encoding="UTF-8" standalone="no"?>
<!DOCTYPE svg PUBLIC "-//W3C//DTD SVG 1.1//EN"
 "http://www.w3.org/Graphics/SVG/1.1/DTD/svg11.dtd">
<!-- Generated by graphviz version 14.1.4 (20260321.0153)
 -->
<!-- Title: cert_issuance_flow Pages: 1 -->
<svg width="1326pt" height="276pt"
 viewBox="0.00 0.00 1326.00 276.00" xmlns="http://www.w3.org/2000/svg" xmlns:xlink="http://www.w3.org/1999/xlink">
<g id="graph0" class="graph" transform="scale(1 1) rotate(0) translate(36 239.67)">
<title>cert_issuance_flow</title>
<polygon fill="#ffffff" stroke="none" points="-36,36 -36,-239.67 1289.5,-239.67 1289.5,36 -36,36"/>
<text xml:space="preserve" text-anchor="middle" x="626.75" y="-182.57" font-family="Helvetica,sans-Serif" font-size="18.00" fill="#334155">Certificate Issuance Flow</text>
<!-- client -->
<g id="node1" class="node">
<title>client</title>
<polygon fill="#f3f4f6" stroke="#6b7280" stroke-width="1.5" points="100.75,-98.8 0,-98.8 0,-62.8 100.75,-62.8 100.75,-98.8"/>
<text xml:space="preserve" text-anchor="middle" x="50.38" y="-84.05" font-family="Helvetica,sans-Serif" font-size="10.00">IPA Client</text>
<text xml:space="preserve" text-anchor="middle" x="50.38" y="-71.3" font-family="Helvetica,sans-Serif" font-size="10.00">(ipa cert&#45;request)</text>
</g>
<!-- httpd -->
<g id="node2" class="node">
<title>httpd</title>
<polygon fill="#dbeafe" stroke="#2563eb" stroke-width="1.5" points="309,-98.8 218,-98.8 218,-62.8 309,-62.8 309,-98.8"/>
<text xml:space="preserve" text-anchor="middle" x="263.5" y="-84.05" font-family="Helvetica,sans-Serif" font-size="10.00">httpd</text>
<text xml:space="preserve" text-anchor="middle" x="263.5" y="-71.3" font-family="Helvetica,sans-Serif" font-size="10.00">(Kerberos auth)</text>
</g>
<!-- client&#45;&gt;httpd -->
<g id="edge1" class="edge">
<title>client&#45;&gt;httpd</title>
<path fill="none" stroke="#6b7280" d="M101.41,-80.8C132.93,-80.8 173.69,-80.8 206.32,-80.8"/>
<polygon fill="#6b7280" stroke="#6b7280" points="205.98,-84.3 215.98,-80.8 205.98,-77.3 205.98,-84.3"/>
<text xml:space="preserve" text-anchor="middle" x="159.38" y="-94.75" font-family="Helvetica,sans-Serif" font-size="9.00">CSR +</text>
<text xml:space="preserve" text-anchor="middle" x="159.38" y="-83.5" font-family="Helvetica,sans-Serif" font-size="9.00">Kerberos TGT</text>
</g>
<!-- httpd&#45;&gt;client -->
<g id="edge13" class="edge">
<title>httpd&#45;&gt;client</title>
<path fill="none" stroke="#6b7280" d="M217.34,-67.75C208.05,-65.59 198.27,-63.68 189,-62.55 162.86,-59.35 155.91,-59.54 129.75,-62.55 124.08,-63.2 118.23,-64.11 112.4,-65.17"/>
<polygon fill="#6b7280" stroke="#6b7280" points="111.86,-61.71 102.73,-67.09 113.22,-68.57 111.86,-61.71"/>
<text xml:space="preserve" text-anchor="middle" x="159.38" y="-65.25" font-family="Helvetica,sans-Serif" font-size="9.00">certificate</text>
</g>
<!-- rest -->
<g id="node3" class="node">
<title>rest</title>
<polygon fill="#d1fae5" stroke="#059669" stroke-width="1.5" points="536,-98.8 412.75,-98.8 412.75,-62.8 536,-62.8 536,-98.8"/>
<text xml:space="preserve" text-anchor="middle" x="474.38" y="-84.05" font-family="Helvetica,sans-Serif" font-size="10.00">REST API</text>
<text xml:space="preserve" text-anchor="middle" x="474.38" y="-71.3" font-family="Helvetica,sans-Serif" font-size="10.00">(/ca/rest/certrequests)</text>
</g>
<!-- httpd&#45;&gt;rest -->
<g id="edge2" class="edge">
<title>httpd&#45;&gt;rest</title>
<path fill="none" stroke="#6b7280" d="M309.57,-80.8C336.15,-80.8 370.42,-80.8 400.74,-80.8"/>
<polygon fill="#6b7280" stroke="#6b7280" points="400.63,-84.3 410.63,-80.8 400.63,-77.3 400.63,-84.3"/>
<text xml:space="preserve" text-anchor="middle" x="360.88" y="-94.75" font-family="Helvetica,sans-Serif" font-size="9.00">CSR +</text>
<text xml:space="preserve" text-anchor="middle" x="360.88" y="-83.5" font-family="Helvetica,sans-Serif" font-size="9.00">client cert</text>
</g>
<!-- rest&#45;&gt;httpd -->
<g id="edge12" class="edge">
<title>rest&#45;&gt;httpd</title>
<path fill="none" stroke="#6b7280" d="M429.59,-62.08C403.13,-53.07 368.7,-45.37 338,-51.3 329.93,-52.86 321.61,-55.3 313.61,-58.12"/>
<polygon fill="#6b7280" stroke="#6b7280" points="312.47,-54.81 304.36,-61.63 314.95,-61.36 312.47,-54.81"/>
<text xml:space="preserve" text-anchor="middle" x="360.88" y="-65.25" font-family="Helvetica,sans-Serif" font-size="9.00">JSON</text>
<text xml:space="preserve" text-anchor="middle" x="360.88" y="-54" font-family="Helvetica,sans-Serif" font-size="9.00">response</text>
</g>
<!-- backend -->
<g id="node4" class="node">
<title>backend</title>
<polygon fill="#d1fae5" stroke="#059669" stroke-width="1.5" points="747.25,-98.8 642.75,-98.8 642.75,-62.8 747.25,-62.8 747.25,-98.8"/>
<text xml:space="preserve" text-anchor="middle" x="695" y="-84.05" font-family="Helvetica,sans-Serif" font-size="10.00">PythonCABackend</text>
<text xml:space="preserve" text-anchor="middle" x="695" y="-71.3" font-family="Helvetica,sans-Serif" font-size="10.00">(enrollment)</text>
</g>
<!-- rest&#45;&gt;backend -->
<g id="edge3" class="edge">
<title>rest&#45;&gt;backend</title>
<path fill="none" stroke="#6b7280" d="M536.56,-80.8C565.89,-80.8 601,-80.8 630.61,-80.8"/>
<polygon fill="#6b7280" stroke="#6b7280" points="630.57,-84.3 640.57,-80.8 630.57,-77.3 630.57,-84.3"/>
<text xml:space="preserve" text-anchor="middle" x="589.38" y="-94.75" font-family="Helvetica,sans-Serif" font-size="9.00">enrollment</text>
<text xml:space="preserve" text-anchor="middle" x="589.38" y="-83.5" font-family="Helvetica,sans-Serif" font-size="9.00">request</text>
</g>
<!-- backend&#45;&gt;rest -->
<g id="edge11" class="edge">
<title>backend&#45;&gt;rest</title>
<path fill="none" stroke="#6b7280" d="M642.06,-67.21C632.7,-65.27 622.98,-63.58 613.75,-62.55 592.22,-60.13 586.56,-60.37 565,-62.55 559.32,-63.12 553.47,-63.89 547.6,-64.79"/>
<polygon fill="#6b7280" stroke="#6b7280" points="547.13,-61.32 537.85,-66.43 548.29,-68.23 547.13,-61.32"/>
<text xml:space="preserve" text-anchor="middle" x="589.38" y="-65.25" font-family="Helvetica,sans-Serif" font-size="9.00">cert</text>
</g>
<!-- profile -->
<g id="node5" class="node">
<title>profile</title>
<polygon fill="#fef3c7" stroke="#d97706" stroke-width="1.5" points="939,-159.3 846.5,-159.3 846.5,-100.3 939,-100.3 939,-159.3"/>
<text xml:space="preserve" text-anchor="middle" x="892.75" y="-145.8" font-family="Helvetica,sans-Serif" font-size="10.00">Profile Manager</text>
<text xml:space="preserve" text-anchor="middle" x="892.75" y="-133.05" font-family="Helvetica,sans-Serif" font-size="10.00">(validate CSR,</text>
<text xml:space="preserve" text-anchor="middle" x="892.75" y="-120.3" font-family="Helvetica,sans-Serif" font-size="10.00">apply defaults</text>
<text xml:space="preserve" text-anchor="middle" x="892.75" y="-107.55" font-family="Helvetica,sans-Serif" font-size="10.00">&amp; constraints)</text>
</g>
<!-- backend&#45;&gt;profile -->
<g id="edge4" class="edge">
<title>backend&#45;&gt;profile</title>
<path fill="none" stroke="#6b7280" d="M716.71,-99.44C731.96,-111.85 753.86,-127.07 776.25,-133.8 794.71,-139.34 815.58,-140.16 834.45,-139.02"/>
<polygon fill="#6b7280" stroke="#6b7280" points="834.71,-142.51 844.39,-138.21 834.14,-135.54 834.71,-142.51"/>
<text xml:space="preserve" text-anchor="middle" x="796.88" y="-153.39" font-family="Helvetica,sans-Serif" font-size="9.00">CSR +</text>
<text xml:space="preserve" text-anchor="middle" x="796.88" y="-142.14" font-family="Helvetica,sans-Serif" font-size="9.00">profile ID</text>
</g>
<!-- internal -->
<g id="node6" class="node">
<title>internal</title>
<polygon fill="#d1fae5" stroke="#059669" stroke-width="1.5" points="937.5,-54.92 848,-54.92 848,-8.67 937.5,-8.67 937.5,-54.92"/>
<text xml:space="preserve" text-anchor="middle" x="892.75" y="-41.42" font-family="Helvetica,sans-Serif" font-size="10.00">InternalCA</text>
<text xml:space="preserve" text-anchor="middle" x="892.75" y="-28.67" font-family="Helvetica,sans-Serif" font-size="10.00">(audit log,</text>
<text xml:space="preserve" text-anchor="middle" x="892.75" y="-15.92" font-family="Helvetica,sans-Serif" font-size="10.00">principal track)</text>
</g>
<!-- backend&#45;&gt;internal -->
<g id="edge6" class="edge">
<title>backend&#45;&gt;internal</title>
<path fill="none" stroke="#6b7280" d="M747.94,-67.79C775.22,-60.97 808.65,-52.6 836.41,-45.65"/>
<polygon fill="#6b7280" stroke="#6b7280" points="837.22,-49.06 846.07,-43.23 835.52,-42.27 837.22,-49.06"/>
<text xml:space="preserve" text-anchor="middle" x="796.88" y="-74.64" font-family="Helvetica,sans-Serif" font-size="9.00">sign</text>
<text xml:space="preserve" text-anchor="middle" x="796.88" y="-63.39" font-family="Helvetica,sans-Serif" font-size="9.00">request</text>
</g>
<!-- profile&#45;&gt;backend -->
<g id="edge5" class="edge">
<title>profile&#45;&gt;backend</title>
<path fill="none" stroke="#6b7280" d="M846.11,-113C836.72,-109.87 826.85,-106.79 817.5,-104.3 798.67,-99.27 777.94,-94.86 759.01,-91.25"/>
<polygon fill="#6b7280" stroke="#6b7280" points="759.76,-87.83 749.28,-89.44 758.48,-94.71 759.76,-87.83"/>
<text xml:space="preserve" text-anchor="middle" x="796.88" y="-118.25" font-family="Helvetica,sans-Serif" font-size="9.00">validated</text>
<text xml:space="preserve" text-anchor="middle" x="796.88" y="-107" font-family="Helvetica,sans-Serif" font-size="9.00">CSR</text>
</g>
<!-- internal&#45;&gt;backend -->
<g id="edge10" class="edge">
<title>internal&#45;&gt;backend</title>
<path fill="none" stroke="#6b7280" d="M847.47,-19.54C825.56,-15.52 799,-13.78 776.25,-21.3 756.07,-27.96 736.81,-41.88 722.23,-54.59"/>
<polygon fill="#6b7280" stroke="#6b7280" points="719.95,-51.93 714.9,-61.24 724.66,-57.11 719.95,-51.93"/>
<text xml:space="preserve" text-anchor="middle" x="796.88" y="-35.25" font-family="Helvetica,sans-Serif" font-size="9.00">cert +</text>
<text xml:space="preserve" text-anchor="middle" x="796.88" y="-24" font-family="Helvetica,sans-Serif" font-size="9.00">audit</text>
</g>
<!-- core -->
<g id="node7" class="node">
<title>core</title>
<polygon fill="#ede9fe" stroke="#7c3aed" stroke-width="1.5" points="1106.75,-54.92 1015.75,-54.92 1015.75,-8.67 1106.75,-8.67 1106.75,-54.92"/>
<text xml:space="preserve" text-anchor="middle" x="1061.25" y="-41.42" font-family="Helvetica,sans-Serif" font-size="10.00">PythonCA</text>
<text xml:space="preserve" text-anchor="middle" x="1061.25" y="-28.67" font-family="Helvetica,sans-Serif" font-size="10.00">(sign cert with</text>
<text xml:space="preserve" text-anchor="middle" x="1061.25" y="-15.92" font-family="Helvetica,sans-Serif" font-size="10.00">CA private key)</text>
</g>
<!-- internal&#45;&gt;core -->
<g id="edge7" class="edge">
<title>internal&#45;&gt;core</title>
<path fill="none" stroke="#6b7280" d="M937.93,-31.8C958.18,-31.8 982.43,-31.8 1003.97,-31.8"/>
<polygon fill="#6b7280" stroke="#6b7280" points="1003.77,-35.3 1013.77,-31.8 1003.77,-28.3 1003.77,-35.3"/>
<text xml:space="preserve" text-anchor="middle" x="977.38" y="-34.5" font-family="Helvetica,sans-Serif" font-size="9.00">sign</text>
</g>
<!-- core&#45;&gt;internal -->
<g id="edge9" class="edge">
<title>core&#45;&gt;internal</title>
<path fill="none" stroke="#6b7280" d="M1015.09,-18.75C1005.8,-16.59 996.02,-14.68 986.75,-13.55 974.5,-12.05 961.44,-13 949.1,-15.08"/>
<polygon fill="#6b7280" stroke="#6b7280" points="948.62,-11.61 939.49,-16.99 949.98,-18.48 948.62,-11.61"/>
<text xml:space="preserve" text-anchor="middle" x="977.38" y="-16.25" font-family="Helvetica,sans-Serif" font-size="9.00">cert</text>
</g>
<!-- ldap_store -->
<g id="node8" class="node">
<title>ldap_store</title>
<path fill="#ede9fe" stroke="#7c3aed" stroke-width="1.5" d="M1253.5,-57.81C1253.5,-61 1238.65,-63.59 1220.38,-63.59 1202.1,-63.59 1187.25,-61 1187.25,-57.81 1187.25,-57.81 1187.25,-5.78 1187.25,-5.78 1187.25,-2.59 1202.1,0 1220.38,0 1238.65,0 1253.5,-2.59 1253.5,-5.78 1253.5,-5.78 1253.5,-57.81 1253.5,-57.81"/>
<path fill="none" stroke="#7c3aed" stroke-width="1.5" d="M1253.5,-57.81C1253.5,-54.62 1238.65,-52.03 1220.38,-52.03 1202.1,-52.03 1187.25,-54.62 1187.25,-57.81"/>
<text xml:space="preserve" text-anchor="middle" x="1220.38" y="-41.42" font-family="Helvetica,sans-Serif" font-size="10.00">LDAP</text>
<text xml:space="preserve" text-anchor="middle" x="1220.38" y="-28.67" font-family="Helvetica,sans-Serif" font-size="10.00">(store cert</text>
<text xml:space="preserve" text-anchor="middle" x="1220.38" y="-15.92" font-family="Helvetica,sans-Serif" font-size="10.00">record)</text>
</g>
<!-- core&#45;&gt;ldap_store -->
<g id="edge8" class="edge">
<title>core&#45;&gt;ldap_store</title>
<path fill="none" stroke="#6b7280" d="M1107.28,-31.8C1128.7,-31.8 1154.22,-31.8 1175.49,-31.8"/>
<polygon fill="#6b7280" stroke="#6b7280" points="1175.31,-35.3 1185.31,-31.8 1175.31,-28.3 1175.31,-35.3"/>
<text xml:space="preserve" text-anchor="middle" x="1147" y="-34.5" font-family="Helvetica,sans-Serif" font-size="9.00">store</text>
</g>
<!-- response -->
<g id="node9" class="node">
<title>response</title>
<polygon fill="#f3f4f6" stroke="#6b7280" stroke-width="1.5" points="86.88,-173.92 7.88,-173.92 7.88,-127.67 92.88,-127.67 92.88,-167.92 86.88,-173.92"/>
<polyline fill="none" stroke="#6b7280" stroke-width="1.5" points="86.88,-173.92 86.88,-167.92"/>
<polyline fill="none" stroke="#6b7280" stroke-width="1.5" points="92.88,-167.92 86.88,-167.92"/>
<text xml:space="preserve" text-anchor="middle" x="50.38" y="-160.42" font-family="Helvetica,sans-Serif" font-size="10.00">Certificate</text>
<text xml:space="preserve" text-anchor="middle" x="50.38" y="-147.67" font-family="Helvetica,sans-Serif" font-size="10.00">Response</text>
<text xml:space="preserve" text-anchor="middle" x="50.38" y="-134.92" font-family="Helvetica,sans-Serif" font-size="10.00">(PEM + chain)</text>
</g>
</g>
</svg>
