<?xml version="1.0" encoding="UTF-8" standalone="no"?>
<!DOCTYPE svg PUBLIC "-//W3C//DTD SVG 1.1//EN"
 "http://www.w3.org/Graphics/SVG/1.1/DTD/svg11.dtd">
<!-- Generated by graphviz version 14.1.4 (20260321.0153)
 -->
<!-- Title: cert_lifecycle Pages: 1 -->
<svg width="617pt" height="938pt"
 viewBox="0.00 0.00 617.00 938.00" xmlns="http://www.w3.org/2000/svg" xmlns:xlink="http://www.w3.org/1999/xlink">
<g id="graph0" class="graph" transform="scale(1 1) rotate(0) translate(36 901.5)">
<title>cert_lifecycle</title>
<polygon fill="#ffffff" stroke="none" points="-36,36 -36,-901.5 580.8,-901.5 580.8,36 -36,36"/>
<text xml:space="preserve" text-anchor="middle" x="272.4" y="-844.4" font-family="Helvetica,sans-Serif" font-size="18.00" fill="#334155">Certificate Lifecycle State Machine (RFC 5280)</text>
<!-- PENDING -->
<g id="node1" class="node">
<title>PENDING</title>
<ellipse fill="#f3f4f6" stroke="#6b7280" stroke-width="2" cx="259.8" cy="-788.95" rx="46.8" ry="46.8"/>
<text xml:space="preserve" text-anchor="middle" x="259.8" y="-784.68" font-family="Helvetica,sans-Serif" font-size="12.00" fill="#6b7280">PENDING</text>
</g>
<!-- VALID -->
<g id="node2" class="node">
<title>VALID</title>
<ellipse fill="#d1fae5" stroke="#059669" stroke-width="2" cx="259.8" cy="-610.6" rx="46.8" ry="46.8"/>
<text xml:space="preserve" text-anchor="middle" x="259.8" y="-606.33" font-family="Helvetica,sans-Serif" font-size="12.00" fill="#059669">VALID</text>
</g>
<!-- PENDING&#45;&gt;VALID -->
<g id="edge1" class="edge">
<title>PENDING&#45;&gt;VALID</title>
<path fill="none" stroke="#059669" stroke-width="1.5" d="M259.8,-741.15C259.8,-719.44 259.8,-693.41 259.8,-670.38"/>
<polygon fill="#059669" stroke="#059669" stroke-width="1.5" points="263.3,-670.58 259.8,-660.58 256.3,-670.58 263.3,-670.58"/>
<text xml:space="preserve" text-anchor="middle" x="274.05" y="-696.65" font-family="Helvetica,sans-Serif" font-size="10.00">ISSUE</text>
</g>
<!-- EXPIRED -->
<g id="node3" class="node">
<title>EXPIRED</title>
<ellipse fill="#fef3c7" stroke="#d97706" stroke-width="2" cx="46.8" cy="-245.9" rx="46.8" ry="46.8"/>
<text xml:space="preserve" text-anchor="middle" x="46.8" y="-241.63" font-family="Helvetica,sans-Serif" font-size="12.00" fill="#d97706">EXPIRED</text>
</g>
<!-- VALID&#45;&gt;EXPIRED -->
<g id="edge2" class="edge">
<title>VALID&#45;&gt;EXPIRED</title>
<path fill="none" stroke="#d97706" stroke-width="1.5" d="M216.57,-590.37C175.04,-569.4 114.3,-531.67 84.3,-479.05 53.92,-425.75 46.28,-355.04 45.16,-305.72"/>
<polygon fill="#d97706" stroke="#d97706" stroke-width="1.5" points="48.66,-305.89 45.03,-295.93 41.66,-305.98 48.66,-305.89"/>
<text xml:space="preserve" text-anchor="middle" x="101.55" y="-425.13" font-family="Helvetica,sans-Serif" font-size="10.00">EXPIRE</text>
</g>
<!-- ON_HOLD -->
<g id="node4" class="node">
<title>ON_HOLD</title>
<ellipse fill="#dbeafe" stroke="#2563eb" stroke-width="2" cx="194.8" cy="-428.25" rx="46.8" ry="46.8"/>
<text xml:space="preserve" text-anchor="middle" x="194.8" y="-423.98" font-family="Helvetica,sans-Serif" font-size="12.00" fill="#2563eb">ON_HOLD</text>
</g>
<!-- VALID&#45;&gt;ON_HOLD -->
<g id="edge4" class="edge">
<title>VALID&#45;&gt;ON_HOLD</title>
<path fill="none" stroke="#2563eb" stroke-width="1.5" d="M218.09,-587.47C196.47,-573.52 172.12,-553.31 160.05,-527.8 152.61,-512.08 155.62,-494.31 162.29,-478.23"/>
<polygon fill="#2563eb" stroke="#2563eb" stroke-width="1.5" points="165.32,-480.01 166.44,-469.47 159,-477.01 165.32,-480.01"/>
<text xml:space="preserve" text-anchor="middle" x="173.93" y="-518.3" font-family="Helvetica,sans-Serif" font-size="10.00">HOLD</text>
</g>
<!-- REVOKED -->
<g id="node5" class="node">
<title>REVOKED</title>
<ellipse fill="#fee2e2" stroke="#dc2626" stroke-width="2" cx="209.8" cy="-50.8" rx="46.8" ry="46.8"/>
<ellipse fill="none" stroke="#dc2626" stroke-width="2" cx="209.8" cy="-50.8" rx="50.8" ry="50.8"/>
<text xml:space="preserve" text-anchor="middle" x="209.8" y="-46.53" font-family="Helvetica,sans-Serif" font-size="12.00" fill="#dc2626">REVOKED</text>
</g>
<!-- VALID&#45;&gt;REVOKED -->
<g id="edge3" class="edge">
<title>VALID&#45;&gt;REVOKED</title>
<path fill="none" stroke="#dc2626" stroke-width="1.5" d="M276.37,-566.05C280.26,-553.85 283.84,-540.46 285.8,-527.8 286.67,-522.2 286.05,-520.71 285.8,-515.05 279.57,-374.22 273.12,-339.24 257.8,-199.1 254.8,-171.7 257.49,-164.07 249.8,-137.6 246.93,-127.73 243.08,-117.56 238.89,-107.83"/>
<polygon fill="#dc2626" stroke="#dc2626" stroke-width="1.5" points="242.09,-106.41 234.8,-98.73 235.71,-109.28 242.09,-106.41"/>
<text xml:space="preserve" text-anchor="middle" x="293.44" y="-331.95" font-family="Helvetica,sans-Serif" font-size="10.00">REVOKE</text>
</g>
<!-- SUPERSEDED -->
<g id="node6" class="node">
<title>SUPERSEDED</title>
<ellipse fill="#ede9fe" stroke="#7c3aed" stroke-width="2" cx="476.8" cy="-428.25" rx="46.8" ry="46.8"/>
<ellipse fill="none" stroke="#7c3aed" stroke-width="2" cx="476.8" cy="-428.25" rx="50.8" ry="50.8"/>
<text xml:space="preserve" text-anchor="middle" x="476.8" y="-431.1" font-family="Helvetica,sans-Serif" font-size="12.00" fill="#7c3aed">SUPER&#45;</text>
<text xml:space="preserve" text-anchor="middle" x="476.8" y="-416.85" font-family="Helvetica,sans-Serif" font-size="12.00" fill="#7c3aed">SEDED</text>
</g>
<!-- VALID&#45;&gt;SUPERSEDED -->
<g id="edge5" class="edge">
<title>VALID&#45;&gt;SUPERSEDED</title>
<path fill="none" stroke="#7c3aed" stroke-width="1.5" d="M300.34,-585.48C324.84,-570.17 356.19,-549.25 381.8,-527.8 400.42,-512.21 419.31,-493.36 435.29,-476.34"/>
<polygon fill="#7c3aed" stroke="#7c3aed" stroke-width="1.5" points="437.59,-479.01 441.82,-469.3 432.45,-474.25 437.59,-479.01"/>
<text xml:space="preserve" text-anchor="middle" x="424.67" y="-518.3" font-family="Helvetica,sans-Serif" font-size="10.00">SUPERSEDE</text>
</g>
<!-- EXPIRED&#45;&gt;REVOKED -->
<g id="edge9" class="edge">
<title>EXPIRED&#45;&gt;REVOKED</title>
<path fill="none" stroke="#dc2626" stroke-width="1.5" stroke-dasharray="5,2" d="M72.25,-205.71C86.39,-184.84 104.77,-159.11 123.05,-137.6 135.54,-122.9 150.12,-107.81 163.72,-94.45"/>
<polygon fill="#dc2626" stroke="#dc2626" stroke-width="1.5" points="166.12,-97.01 170.86,-87.53 161.24,-91.98 166.12,-97.01"/>
<text xml:space="preserve" text-anchor="middle" x="144.43" y="-153.6" font-family="Helvetica,sans-Serif" font-size="10.00">REVOKE</text>
<text xml:space="preserve" text-anchor="middle" x="144.43" y="-140.85" font-family="Helvetica,sans-Serif" font-size="10.00">(for CRL)</text>
</g>
<!-- ON_HOLD&#45;&gt;VALID -->
<g id="edge6" class="edge">
<title>ON_HOLD&#45;&gt;VALID</title>
<path fill="none" stroke="#059669" stroke-width="1.5" stroke-dasharray="5,2" d="M210.62,-473.13C219.47,-497.69 230.58,-528.53 240.01,-554.68"/>
<polygon fill="#059669" stroke="#059669" stroke-width="1.5" points="236.61,-555.59 243.3,-563.81 243.2,-553.21 236.61,-555.59"/>
<text xml:space="preserve" text-anchor="middle" x="250.62" y="-518.3" font-family="Helvetica,sans-Serif" font-size="10.00">RELEASE</text>
</g>
<!-- ON_HOLD&#45;&gt;EXPIRED -->
<g id="edge8" class="edge">
<title>ON_HOLD&#45;&gt;EXPIRED</title>
<path fill="none" stroke="#d97706" stroke-width="1.5" d="M165.21,-391.19C141.89,-362.77 109.24,-322.99 84.13,-292.39"/>
<polygon fill="#d97706" stroke="#d97706" stroke-width="1.5" points="87.09,-290.47 78.04,-284.96 81.67,-294.91 87.09,-290.47"/>
<text xml:space="preserve" text-anchor="middle" x="138.05" y="-331.95" font-family="Helvetica,sans-Serif" font-size="10.00">EXPIRE</text>
</g>
<!-- ON_HOLD&#45;&gt;REVOKED -->
<g id="edge7" class="edge">
<title>ON_HOLD&#45;&gt;REVOKED</title>
<path fill="none" stroke="#dc2626" stroke-width="1.5" d="M196.65,-380.84C199.33,-313.74 204.3,-189.5 207.3,-114.37"/>
<polygon fill="#dc2626" stroke="#dc2626" stroke-width="1.5" points="210.79,-114.7 207.69,-104.56 203.8,-114.42 210.79,-114.7"/>
<text xml:space="preserve" text-anchor="middle" x="223.67" y="-242.78" font-family="Helvetica,sans-Serif" font-size="10.00">REVOKE</text>
</g>
<!-- legend -->
<g id="node7" class="node">
<title>legend</title>
<polygon fill="#ffffff" stroke="#6b7280" stroke-width="2" points="538.8,-806.95 364.8,-806.95 364.8,-770.95 544.8,-770.95 544.8,-800.95 538.8,-806.95"/>
<polyline fill="none" stroke="#6b7280" stroke-width="2" points="538.8,-806.95 538.8,-800.95"/>
<polyline fill="none" stroke="#6b7280" stroke-width="2" points="544.8,-800.95 538.8,-800.95"/>
<text xml:space="preserve" text-anchor="middle" x="454.8" y="-791.65" font-family="Helvetica,sans-Serif" font-size="9.00" fill="#6b7280">Double circle = terminal state</text>
<text xml:space="preserve" text-anchor="middle" x="454.8" y="-780.4" font-family="Helvetica,sans-Serif" font-size="9.00" fill="#6b7280">Dashed = less common path</text>
</g>
</g>
</svg>
