<?xml version="1.0" encoding="UTF-8" standalone="no"?>
<!DOCTYPE svg PUBLIC "-//W3C//DTD SVG 1.1//EN"
 "http://www.w3.org/Graphics/SVG/1.1/DTD/svg11.dtd">
<!-- Generated by graphviz version 14.1.4 (20260321.0153)
 -->
<!-- Title: crl_ocsp_flow Pages: 1 -->
<svg width="734pt" height="874pt"
 viewBox="0.00 0.00 734.00 874.00" xmlns="http://www.w3.org/2000/svg" xmlns:xlink="http://www.w3.org/1999/xlink">
<g id="graph0" class="graph" transform="scale(1 1) rotate(0) translate(36 837.69)">
<title>crl_ocsp_flow</title>
<polygon fill="#ffffff" stroke="none" points="-36,36 -36,-837.69 697.75,-837.69 697.75,36 -36,36"/>
<text xml:space="preserve" text-anchor="middle" x="330.88" y="-780.59" font-family="Helvetica,sans-Serif" font-size="18.00" fill="#334155">CRL Generation &amp; OCSP Responder</text>
<g id="clust1" class="cluster">
<title>cluster_crl</title>
<polygon fill="#dbeafe" stroke="#2563eb" points="95.75,-107.31 95.75,-615.19 331.75,-615.19 331.75,-107.31 95.75,-107.31"/>
<text xml:space="preserve" text-anchor="middle" x="213.75" y="-594.09" font-family="Helvetica,sans-Serif" font-size="18.00" fill="#2563eb">CRL Generation Pipeline</text>
</g>
<g id="clust2" class="cluster">
<title>cluster_ocsp</title>
<polygon fill="#d1fae5" stroke="#059669" points="422.75,-212.56 422.75,-763.94 653.75,-763.94 653.75,-212.56 422.75,-212.56"/>
<text xml:space="preserve" text-anchor="middle" x="538.25" y="-742.84" font-family="Helvetica,sans-Serif" font-size="18.00" fill="#059669">OCSP Responder</text>
</g>
<!-- crl_trigger -->
<g id="node1" class="node">
<title>crl_trigger</title>
<polygon fill="#93c5fd" stroke="#2563eb" stroke-width="1.5" points="320.12,-577.44 207.38,-577.44 207.38,-541.44 320.12,-541.44 320.12,-577.44"/>
<text xml:space="preserve" text-anchor="middle" x="263.75" y="-562.69" font-family="Helvetica,sans-Serif" font-size="10.00">Trigger</text>
<text xml:space="preserve" text-anchor="middle" x="263.75" y="-549.94" font-family="Helvetica,sans-Serif" font-size="10.00">(scheduled / forced)</text>
</g>
<!-- crl_query -->
<g id="node2" class="node">
<title>crl_query</title>
<polygon fill="#93c5fd" stroke="#2563eb" stroke-width="1.5" points="323.5,-467.06 204,-467.06 204,-420.81 323.5,-420.81 323.5,-467.06"/>
<text xml:space="preserve" text-anchor="middle" x="263.75" y="-453.56" font-family="Helvetica,sans-Serif" font-size="10.00">get_revoked_for_crl()</text>
<text xml:space="preserve" text-anchor="middle" x="263.75" y="-440.81" font-family="Helvetica,sans-Serif" font-size="10.00">(lightweight tuples:</text>
<text xml:space="preserve" text-anchor="middle" x="263.75" y="-428.06" font-family="Helvetica,sans-Serif" font-size="10.00">serial, date, reason)</text>
</g>
<!-- crl_trigger&#45;&gt;crl_query -->
<g id="edge1" class="edge">
<title>crl_trigger&#45;&gt;crl_query</title>
<path fill="none" stroke="#6b7280" d="M263.75,-540.7C263.75,-524.23 263.75,-499.27 263.75,-478.96"/>
<polygon fill="#6b7280" stroke="#6b7280" points="267.25,-479.15 263.75,-469.15 260.25,-479.15 267.25,-479.15"/>
</g>
<!-- crl_build -->
<g id="node3" class="node">
<title>crl_build</title>
<polygon fill="#93c5fd" stroke="#2563eb" stroke-width="1.5" points="212.75,-361.81 130.75,-361.81 130.75,-315.56 212.75,-315.56 212.75,-361.81"/>
<text xml:space="preserve" text-anchor="middle" x="171.75" y="-348.31" font-family="Helvetica,sans-Serif" font-size="10.00">Build CRL</text>
<text xml:space="preserve" text-anchor="middle" x="171.75" y="-335.56" font-family="Helvetica,sans-Serif" font-size="10.00">(CRL number,</text>
<text xml:space="preserve" text-anchor="middle" x="171.75" y="-322.81" font-family="Helvetica,sans-Serif" font-size="10.00">extensions)</text>
</g>
<!-- crl_query&#45;&gt;crl_build -->
<g id="edge2" class="edge">
<title>crl_query&#45;&gt;crl_build</title>
<path fill="none" stroke="#6b7280" d="M243.56,-420.28C230.62,-405.75 213.64,-386.71 199.45,-370.77"/>
<polygon fill="#6b7280" stroke="#6b7280" points="202.17,-368.56 192.9,-363.42 196.94,-373.22 202.17,-368.56"/>
</g>
<!-- ldap -->
<g id="node11" class="node">
<title>ldap</title>
<path fill="#ede9fe" stroke="#7c3aed" stroke-width="1.5" d="M316.75,-41.88C316.75,-44.19 302.41,-46.06 284.75,-46.06 267.09,-46.06 252.75,-44.19 252.75,-41.88 252.75,-41.88 252.75,-4.19 252.75,-4.19 252.75,-1.88 267.09,0 284.75,0 302.41,0 316.75,-1.88 316.75,-4.19 316.75,-4.19 316.75,-41.88 316.75,-41.88"/>
<path fill="none" stroke="#7c3aed" stroke-width="1.5" d="M316.75,-41.88C316.75,-39.56 302.41,-37.69 284.75,-37.69 267.09,-37.69 252.75,-39.56 252.75,-41.88"/>
<text xml:space="preserve" text-anchor="middle" x="284.75" y="-26.28" font-family="Helvetica,sans-Serif" font-size="10.00">LDAP</text>
<text xml:space="preserve" text-anchor="middle" x="284.75" y="-13.53" font-family="Helvetica,sans-Serif" font-size="10.00">(o=ipaca)</text>
</g>
<!-- crl_query&#45;&gt;ldap -->
<g id="edge5" class="edge">
<title>crl_query&#45;&gt;ldap</title>
<path fill="none" stroke="#6b7280" d="M271.09,-420.24C277.15,-399.5 284.75,-367.86 284.75,-339.69 284.75,-339.69 284.75,-339.69 284.75,-137.44 284.75,-110.73 284.75,-80.5 284.75,-57.96"/>
<polygon fill="#6b7280" stroke="#6b7280" points="288.25,-58.14 284.75,-48.14 281.25,-58.14 288.25,-58.14"/>
<text xml:space="preserve" text-anchor="middle" x="330.12" y="-235.64" font-family="Helvetica,sans-Serif" font-size="9.00">query revoked certs</text>
</g>
<!-- crl_sign -->
<g id="node4" class="node">
<title>crl_sign</title>
<polygon fill="#93c5fd" stroke="#2563eb" stroke-width="1.5" points="199.12,-256.56 104.38,-256.56 104.38,-220.56 199.12,-220.56 199.12,-256.56"/>
<text xml:space="preserve" text-anchor="middle" x="151.75" y="-241.81" font-family="Helvetica,sans-Serif" font-size="10.00">Sign CRL</text>
<text xml:space="preserve" text-anchor="middle" x="151.75" y="-229.06" font-family="Helvetica,sans-Serif" font-size="10.00">(CA private key)</text>
</g>
<!-- crl_build&#45;&gt;crl_sign -->
<g id="edge3" class="edge">
<title>crl_build&#45;&gt;crl_sign</title>
<path fill="none" stroke="#6b7280" d="M167.11,-314.93C164.29,-301.08 160.66,-283.26 157.63,-268.43"/>
<polygon fill="#6b7280" stroke="#6b7280" points="161.1,-267.89 155.67,-258.79 154.24,-269.28 161.1,-267.89"/>
</g>
<!-- crl_publish -->
<g id="node5" class="node">
<title>crl_publish</title>
<polygon fill="#93c5fd" stroke="#2563eb" stroke-width="1.5" points="199.5,-161.56 104,-161.56 104,-115.31 199.5,-115.31 199.5,-161.56"/>
<text xml:space="preserve" text-anchor="middle" x="151.75" y="-148.06" font-family="Helvetica,sans-Serif" font-size="10.00">Publish</text>
<text xml:space="preserve" text-anchor="middle" x="151.75" y="-135.31" font-family="Helvetica,sans-Serif" font-size="10.00">(atomic symlink</text>
<text xml:space="preserve" text-anchor="middle" x="151.75" y="-122.56" font-family="Helvetica,sans-Serif" font-size="10.00">MasterCRL.bin)</text>
</g>
<!-- crl_sign&#45;&gt;crl_publish -->
<g id="edge4" class="edge">
<title>crl_sign&#45;&gt;crl_publish</title>
<path fill="none" stroke="#6b7280" d="M151.75,-220.02C151.75,-207.1 151.75,-189.14 151.75,-173.44"/>
<polygon fill="#6b7280" stroke="#6b7280" points="155.25,-173.52 151.75,-163.52 148.25,-173.52 155.25,-173.52"/>
</g>
<!-- crl_publish&#45;&gt;ldap -->
<g id="edge6" class="edge">
<title>crl_publish&#45;&gt;ldap</title>
<path fill="none" stroke="#6b7280" d="M170.86,-114.63C181.73,-102.28 195.95,-87.13 210,-75.06 220.14,-66.36 231.8,-57.8 242.85,-50.26"/>
<polygon fill="#6b7280" stroke="#6b7280" points="244.71,-53.22 251.08,-44.75 240.82,-47.4 244.71,-53.22"/>
<text xml:space="preserve" text-anchor="middle" x="231.38" y="-77.76" font-family="Helvetica,sans-Serif" font-size="9.00">store CRL</text>
</g>
<!-- fs -->
<g id="node12" class="node">
<title>fs</title>
<polygon fill="#fef3c7" stroke="#d97706" stroke-width="1.5" points="149.5,-41.03 146.5,-45.03 125.5,-45.03 122.5,-41.03 0,-41.03 0,-5.03 149.5,-5.03 149.5,-41.03"/>
<text xml:space="preserve" text-anchor="middle" x="74.75" y="-26.28" font-family="Helvetica,sans-Serif" font-size="10.00">Filesystem</text>
<text xml:space="preserve" text-anchor="middle" x="74.75" y="-13.53" font-family="Helvetica,sans-Serif" font-size="10.00">(/var/lib/ipa/pki&#45;ca/publish/)</text>
</g>
<!-- crl_publish&#45;&gt;fs -->
<g id="edge7" class="edge">
<title>crl_publish&#45;&gt;fs</title>
<path fill="none" stroke="#6b7280" d="M103.42,-118.27C90.03,-110.46 77.1,-99.98 69.5,-86.31 63.87,-76.18 63.85,-63.65 65.75,-52.49"/>
<polygon fill="#6b7280" stroke="#6b7280" points="69.1,-53.53 67.92,-43 62.28,-51.96 69.1,-53.53"/>
<text xml:space="preserve" text-anchor="middle" x="115.62" y="-77.76" font-family="Helvetica,sans-Serif" font-size="9.00">write DER + symlink</text>
</g>
<!-- ocsp_req -->
<g id="node6" class="node">
<title>ocsp_req</title>
<polygon fill="#6ee7b7" stroke="#059669" stroke-width="1.5" points="542.25,-726.19 451.25,-726.19 451.25,-690.19 542.25,-690.19 542.25,-726.19"/>
<text xml:space="preserve" text-anchor="middle" x="496.75" y="-711.44" font-family="Helvetica,sans-Serif" font-size="10.00">OCSP Request</text>
<text xml:space="preserve" text-anchor="middle" x="496.75" y="-698.69" font-family="Helvetica,sans-Serif" font-size="10.00">(serial number)</text>
</g>
<!-- ocsp_cache -->
<g id="node7" class="node">
<title>ocsp_cache</title>
<polygon fill="#6ee7b7" stroke="#059669" stroke-width="1.5" points="562.5,-582.56 435,-582.56 431,-578.56 431,-536.31 558.5,-536.31 562.5,-540.31 562.5,-582.56"/>
<polyline fill="none" stroke="#059669" stroke-width="1.5" points="558.5,-578.56 431,-578.56"/>
<polyline fill="none" stroke="#059669" stroke-width="1.5" points="558.5,-578.56 558.5,-536.31"/>
<polyline fill="none" stroke="#059669" stroke-width="1.5" points="558.5,-578.56 562.5,-582.56"/>
<text xml:space="preserve" text-anchor="middle" x="496.75" y="-569.06" font-family="Helvetica,sans-Serif" font-size="10.00">Response Cache</text>
<text xml:space="preserve" text-anchor="middle" x="496.75" y="-556.31" font-family="Helvetica,sans-Serif" font-size="10.00">(per&#45;serial index,</text>
<text xml:space="preserve" text-anchor="middle" x="496.75" y="-543.56" font-family="Helvetica,sans-Serif" font-size="10.00">1000 entries, 5min TTL)</text>
</g>
<!-- ocsp_req&#45;&gt;ocsp_cache -->
<g id="edge8" class="edge">
<title>ocsp_req&#45;&gt;ocsp_cache</title>
<path fill="none" stroke="#6b7280" d="M496.75,-689.49C496.75,-666.1 496.75,-624.42 496.75,-594.76"/>
<polygon fill="#6b7280" stroke="#6b7280" points="500.25,-594.77 496.75,-584.77 493.25,-594.77 500.25,-594.77"/>
<text xml:space="preserve" text-anchor="middle" x="525.25" y="-631.51" font-family="Helvetica,sans-Serif" font-size="9.00">check cache</text>
</g>
<!-- ocsp_lookup -->
<g id="node8" class="node">
<title>ocsp_lookup</title>
<polygon fill="#6ee7b7" stroke="#059669" stroke-width="1.5" points="536.75,-467.06 430.75,-467.06 430.75,-420.81 536.75,-420.81 536.75,-467.06"/>
<text xml:space="preserve" text-anchor="middle" x="483.75" y="-453.56" font-family="Helvetica,sans-Serif" font-size="10.00">Lookup Status</text>
<text xml:space="preserve" text-anchor="middle" x="483.75" y="-440.81" font-family="Helvetica,sans-Serif" font-size="10.00">(GOOD / REVOKED</text>
<text xml:space="preserve" text-anchor="middle" x="483.75" y="-428.06" font-family="Helvetica,sans-Serif" font-size="10.00">/ UNKNOWN)</text>
</g>
<!-- ocsp_cache&#45;&gt;ocsp_lookup -->
<g id="edge9" class="edge">
<title>ocsp_cache&#45;&gt;ocsp_lookup</title>
<path fill="none" stroke="#6b7280" d="M494.15,-535.74C492.29,-519.5 489.75,-497.36 487.65,-479.01"/>
<polygon fill="#6b7280" stroke="#6b7280" points="491.13,-478.63 486.52,-469.1 484.18,-479.43 491.13,-478.63"/>
<text xml:space="preserve" text-anchor="middle" x="500.76" y="-498.76" font-family="Helvetica,sans-Serif" font-size="9.00">miss</text>
</g>
<!-- ocsp_sign -->
<g id="node9" class="node">
<title>ocsp_sign</title>
<polygon fill="#6ee7b7" stroke="#059669" stroke-width="1.5" points="645.88,-356.69 537.62,-356.69 537.62,-320.69 645.88,-320.69 645.88,-356.69"/>
<text xml:space="preserve" text-anchor="middle" x="591.75" y="-341.94" font-family="Helvetica,sans-Serif" font-size="10.00">Sign Response</text>
<text xml:space="preserve" text-anchor="middle" x="591.75" y="-329.19" font-family="Helvetica,sans-Serif" font-size="10.00">(OCSP signing key)</text>
</g>
<!-- ocsp_lookup&#45;&gt;ocsp_sign -->
<g id="edge11" class="edge">
<title>ocsp_lookup&#45;&gt;ocsp_sign</title>
<path fill="none" stroke="#6b7280" d="M507.45,-420.28C524.53,-403.95 547.58,-381.92 565.26,-365.01"/>
<polygon fill="#6b7280" stroke="#6b7280" points="567.56,-367.66 572.37,-358.22 562.72,-362.6 567.56,-367.66"/>
</g>
<!-- ocsp_lookup&#45;&gt;ldap -->
<g id="edge10" class="edge">
<title>ocsp_lookup&#45;&gt;ldap</title>
<path fill="none" stroke="#6b7280" d="M476.06,-420.27C469.71,-399.54 461.75,-367.91 461.75,-339.69 461.75,-339.69 461.75,-339.69 461.75,-137.44 461.75,-74.2 380.65,-44.61 328.24,-32.09"/>
<polygon fill="#6b7280" stroke="#6b7280" points="329.22,-28.72 318.69,-29.94 327.68,-35.55 329.22,-28.72"/>
<text xml:space="preserve" text-anchor="middle" x="486.12" y="-235.64" font-family="Helvetica,sans-Serif" font-size="9.00">cert status</text>
</g>
<!-- ocsp_sign&#45;&gt;ocsp_cache -->
<g id="edge13" class="edge">
<title>ocsp_sign&#45;&gt;ocsp_cache</title>
<path fill="none" stroke="#6b7280" stroke-dasharray="5,2" d="M589.16,-357.21C585.02,-382.38 575.6,-429.81 558.75,-467.06 549.15,-488.28 534.7,-509.94 522.16,-526.85"/>
<polygon fill="#6b7280" stroke="#6b7280" points="519.6,-524.43 516.35,-534.51 525.18,-528.66 519.6,-524.43"/>
<text xml:space="preserve" text-anchor="middle" x="586.43" y="-441.01" font-family="Helvetica,sans-Serif" font-size="9.00">store</text>
</g>
<!-- ocsp_resp -->
<g id="node10" class="node">
<title>ocsp_resp</title>
<polygon fill="#6ee7b7" stroke="#059669" stroke-width="1.5" points="646,-256.56 553.5,-256.56 553.5,-220.56 646,-220.56 646,-256.56"/>
<text xml:space="preserve" text-anchor="middle" x="599.75" y="-241.81" font-family="Helvetica,sans-Serif" font-size="10.00">OCSP Response</text>
<text xml:space="preserve" text-anchor="middle" x="599.75" y="-229.06" font-family="Helvetica,sans-Serif" font-size="10.00">(DER)</text>
</g>
<!-- ocsp_sign&#45;&gt;ocsp_resp -->
<g id="edge12" class="edge">
<title>ocsp_sign&#45;&gt;ocsp_resp</title>
<path fill="none" stroke="#6b7280" d="M593.18,-320.14C594.34,-305.86 596.01,-285.4 597.38,-268.67"/>
<polygon fill="#6b7280" stroke="#6b7280" points="600.86,-269.04 598.18,-258.79 593.88,-268.48 600.86,-269.04"/>
</g>
<!-- revoke -->
<g id="node13" class="node">
<title>revoke</title>
<polygon fill="#fee2e2" stroke="#dc2626" stroke-width="1.5" points="302.75,-741.69 236.5,-708.19 302.75,-674.69 369,-708.19 302.75,-741.69"/>
<text xml:space="preserve" text-anchor="middle" x="302.75" y="-711.44" font-family="Helvetica,sans-Serif" font-size="10.00" fill="#dc2626">Certificate</text>
<text xml:space="preserve" text-anchor="middle" x="302.75" y="-698.69" font-family="Helvetica,sans-Serif" font-size="10.00" fill="#dc2626">Revoked</text>
</g>
<!-- revoke&#45;&gt;crl_trigger -->
<g id="edge15" class="edge">
<title>revoke&#45;&gt;crl_trigger</title>
<path fill="none" stroke="#dc2626" stroke-dasharray="5,2" d="M281.73,-684.83C272.88,-673.91 263.58,-660.04 259,-645.69 253.14,-627.33 254.45,-605.63 257.17,-588.72"/>
<polygon fill="#dc2626" stroke="#dc2626" points="260.52,-589.84 258.92,-579.37 253.64,-588.55 260.52,-589.84"/>
<text xml:space="preserve" text-anchor="middle" x="287.88" y="-637.14" font-family="Helvetica,sans-Serif" font-size="9.00">trigger CRL</text>
<text xml:space="preserve" text-anchor="middle" x="287.88" y="-625.89" font-family="Helvetica,sans-Serif" font-size="9.00">regeneration</text>
</g>
<!-- revoke&#45;&gt;ocsp_cache -->
<g id="edge14" class="edge">
<title>revoke&#45;&gt;ocsp_cache</title>
<path fill="none" stroke="#dc2626" stroke-dasharray="5,2" d="M327.52,-686.75C348.65,-669.47 379.97,-644.26 408,-623.19 422.85,-612.03 439.4,-600.17 454.15,-589.81"/>
<polygon fill="#dc2626" stroke="#dc2626" points="456.12,-592.7 462.31,-584.1 452.11,-586.96 456.12,-592.7"/>
<text xml:space="preserve" text-anchor="middle" x="447.38" y="-631.51" font-family="Helvetica,sans-Serif" font-size="9.00">invalidate_serial()</text>
</g>
</g>
</svg>
