<?xml version="1.0" encoding="UTF-8" standalone="no"?>
<!DOCTYPE svg PUBLIC "-//W3C//DTD SVG 1.1//EN"
 "http://www.w3.org/Graphics/SVG/1.1/DTD/svg11.dtd">
<!-- Generated by graphviz version 14.1.4 (20260321.0153)
 -->
<!-- Title: freeipa_integration Pages: 1 -->
<svg width="1002pt" height="887pt"
 viewBox="0.00 0.00 1002.00 887.00" xmlns="http://www.w3.org/2000/svg" xmlns:xlink="http://www.w3.org/1999/xlink">
<g id="graph0" class="graph" transform="scale(1 1) rotate(0) translate(36 850.84)">
<title>freeipa_integration</title>
<polygon fill="#ffffff" stroke="none" points="-36,36 -36,-850.84 966,-850.84 966,36 -36,36"/>
<text xml:space="preserve" text-anchor="middle" x="465" y="-793.74" font-family="Helvetica,sans-Serif" font-size="18.00" fill="#334155">ipacta in the FreeIPA Ecosystem</text>
<g id="clust1" class="cluster">
<title>cluster_framework</title>
<polygon fill="#dbeafe" stroke="#2563eb" points="8,-682.84 8,-777.09 516,-777.09 516,-682.84 8,-682.84"/>
<text xml:space="preserve" text-anchor="middle" x="262" y="-755.99" font-family="Helvetica,sans-Serif" font-size="18.00" fill="#2563eb">FreeIPA Framework</text>
</g>
<g id="clust2" class="cluster">
<title>cluster_infra</title>
<polygon fill="#ffffff" stroke="#6b7280" stroke-dasharray="5,2" points="550,-534.59 550,-777.09 922,-777.09 922,-534.59 550,-534.59"/>
<text xml:space="preserve" text-anchor="middle" x="736" y="-755.99" font-family="Helvetica,sans-Serif" font-size="18.00" fill="#6b7280">Infrastructure Services</text>
</g>
<g id="clust3" class="cluster">
<title>cluster_ipacta</title>
<polygon fill="#d1fae5" stroke="#059669" points="385,-294.34 385,-479.09 920,-479.09 920,-294.34 385,-294.34"/>
<text xml:space="preserve" text-anchor="middle" x="652.5" y="-457.99" font-family="Helvetica,sans-Serif" font-size="18.00" fill="#059669">ipacta</text>
</g>
<g id="clust4" class="cluster">
<title>cluster_data</title>
<polygon fill="#ede9fe" stroke="#7c3aed" points="413,-137.65 413,-250.09 633,-250.09 633,-137.65 413,-137.65"/>
<text xml:space="preserve" text-anchor="middle" x="523" y="-228.99" font-family="Helvetica,sans-Serif" font-size="18.00" fill="#7c3aed">Data Stores</text>
</g>
<!-- ipa_cert -->
<g id="node1" class="node">
<title>ipa_cert</title>
<polygon fill="#93c5fd" stroke="#2563eb" stroke-width="1.5" points="382,-733.09 306,-733.09 306,-697.09 382,-697.09 382,-733.09"/>
<text xml:space="preserve" text-anchor="middle" x="344" y="-718.14" font-family="Helvetica,sans-Serif" font-size="11.00">ipa cert&#45;*</text>
<text xml:space="preserve" text-anchor="middle" x="344" y="-704.64" font-family="Helvetica,sans-Serif" font-size="11.00">commands</text>
</g>
<!-- httpd_main -->
<g id="node5" class="node">
<title>httpd_main</title>
<polygon fill="#f3f4f6" stroke="#6b7280" stroke-width="1.5" points="636.12,-591.09 557.88,-591.09 557.88,-542.59 636.12,-542.59 636.12,-591.09"/>
<text xml:space="preserve" text-anchor="middle" x="597" y="-576.64" font-family="Helvetica,sans-Serif" font-size="11.00">httpd</text>
<text xml:space="preserve" text-anchor="middle" x="597" y="-563.14" font-family="Helvetica,sans-Serif" font-size="11.00">(IPA web UI</text>
<text xml:space="preserve" text-anchor="middle" x="597" y="-549.64" font-family="Helvetica,sans-Serif" font-size="11.00">+ API)</text>
</g>
<!-- ipa_cert&#45;&gt;httpd_main -->
<g id="edge1" class="edge">
<title>ipa_cert&#45;&gt;httpd_main</title>
<path fill="none" stroke="#6b7280" d="M357.14,-696.45C372.96,-676.33 401.34,-643.7 432.5,-624.09 467.5,-602.07 512.16,-587.51 546.11,-578.73"/>
<polygon fill="#6b7280" stroke="#6b7280" points="546.85,-582.15 555.71,-576.34 545.16,-575.36 546.85,-582.15"/>
<text xml:space="preserve" text-anchor="middle" x="460.25" y="-649.29" font-family="Helvetica,sans-Serif" font-size="9.00">cert&#45;request</text>
<text xml:space="preserve" text-anchor="middle" x="460.25" y="-638.04" font-family="Helvetica,sans-Serif" font-size="9.00">cert&#45;show</text>
<text xml:space="preserve" text-anchor="middle" x="460.25" y="-626.79" font-family="Helvetica,sans-Serif" font-size="9.00">cert&#45;revoke</text>
</g>
<!-- ipa_vault -->
<g id="node2" class="node">
<title>ipa_vault</title>
<polygon fill="#93c5fd" stroke="#2563eb" stroke-width="1.5" points="508,-733.09 432,-733.09 432,-697.09 508,-697.09 508,-733.09"/>
<text xml:space="preserve" text-anchor="middle" x="470" y="-718.14" font-family="Helvetica,sans-Serif" font-size="11.00">ipa vault&#45;*</text>
<text xml:space="preserve" text-anchor="middle" x="470" y="-704.64" font-family="Helvetica,sans-Serif" font-size="11.00">commands</text>
</g>
<!-- ipa_vault&#45;&gt;httpd_main -->
<g id="edge2" class="edge">
<title>ipa_vault&#45;&gt;httpd_main</title>
<path fill="none" stroke="#6b7280" d="M478.04,-696.57C487.36,-677.45 504.01,-646.55 524,-624.09 532.14,-614.94 541.95,-606.23 551.69,-598.52"/>
<polygon fill="#6b7280" stroke="#6b7280" points="553.54,-601.51 559.36,-592.65 549.29,-595.95 553.54,-601.51"/>
<text xml:space="preserve" text-anchor="middle" x="554" y="-643.67" font-family="Helvetica,sans-Serif" font-size="9.00">vault&#45;archive</text>
<text xml:space="preserve" text-anchor="middle" x="554" y="-632.42" font-family="Helvetica,sans-Serif" font-size="9.00">vault&#45;retrieve</text>
</g>
<!-- ipa_ca -->
<g id="node3" class="node">
<title>ipa_ca</title>
<polygon fill="#93c5fd" stroke="#2563eb" stroke-width="1.5" points="92,-739.34 16,-739.34 16,-690.84 92,-690.84 92,-739.34"/>
<text xml:space="preserve" text-anchor="middle" x="54" y="-724.89" font-family="Helvetica,sans-Serif" font-size="11.00">ipa ca&#45;*</text>
<text xml:space="preserve" text-anchor="middle" x="54" y="-711.39" font-family="Helvetica,sans-Serif" font-size="11.00">commands</text>
<text xml:space="preserve" text-anchor="middle" x="54" y="-697.89" font-family="Helvetica,sans-Serif" font-size="11.00">(sub&#45;CAs)</text>
</g>
<!-- ipa_ca&#45;&gt;httpd_main -->
<g id="edge3" class="edge">
<title>ipa_ca&#45;&gt;httpd_main</title>
<path fill="none" stroke="#6b7280" d="M92.43,-694.47C100.5,-690.51 108.99,-686.46 117,-682.84 180.11,-654.39 194.65,-642.98 261.25,-624.09 360.08,-596.06 479.48,-580.16 545.96,-572.84"/>
<polygon fill="#6b7280" stroke="#6b7280" points="546.28,-576.33 555.84,-571.78 545.53,-569.37 546.28,-576.33"/>
<text xml:space="preserve" text-anchor="middle" x="276.62" y="-643.67" font-family="Helvetica,sans-Serif" font-size="9.00">ca&#45;add</text>
<text xml:space="preserve" text-anchor="middle" x="276.62" y="-632.42" font-family="Helvetica,sans-Serif" font-size="9.00">ca&#45;del</text>
</g>
<!-- ipa_acme -->
<g id="node4" class="node">
<title>ipa_acme</title>
<polygon fill="#93c5fd" stroke="#2563eb" stroke-width="1.5" points="256.12,-733.09 141.88,-733.09 141.88,-697.09 256.12,-697.09 256.12,-733.09"/>
<text xml:space="preserve" text-anchor="middle" x="199" y="-718.14" font-family="Helvetica,sans-Serif" font-size="11.00">ipa&#45;acme&#45;manage</text>
<text xml:space="preserve" text-anchor="middle" x="199" y="-704.64" font-family="Helvetica,sans-Serif" font-size="11.00">enable/disable</text>
</g>
<!-- ipa_acme&#45;&gt;httpd_main -->
<g id="edge4" class="edge">
<title>ipa_acme&#45;&gt;httpd_main</title>
<path fill="none" stroke="#6b7280" d="M229.51,-696.46C264.8,-676.65 325.1,-644.6 380,-624.09 435.51,-603.36 501.74,-587.39 546.31,-577.85"/>
<polygon fill="#6b7280" stroke="#6b7280" points="546.89,-581.31 555.96,-575.82 545.45,-574.46 546.89,-581.31"/>
</g>
<!-- rest -->
<g id="node10" class="node">
<title>rest</title>
<polygon fill="#6ee7b7" stroke="#059669" stroke-width="1.5" points="752.62,-441.34 623.38,-441.34 623.38,-405.34 752.62,-405.34 752.62,-441.34"/>
<text xml:space="preserve" text-anchor="middle" x="688" y="-426.39" font-family="Helvetica,sans-Serif" font-size="11.00">REST API</text>
<text xml:space="preserve" text-anchor="middle" x="688" y="-412.89" font-family="Helvetica,sans-Serif" font-size="11.00">(Dogtag&#45;compatible)</text>
</g>
<!-- httpd_main&#45;&gt;rest -->
<g id="edge5" class="edge">
<title>httpd_main&#45;&gt;rest</title>
<path fill="none" stroke="#6b7280" d="M609.29,-541.93C617.7,-526.06 629.4,-504.95 641,-487.09 648.92,-474.91 658.4,-461.98 666.77,-451.04"/>
<polygon fill="#6b7280" stroke="#6b7280" points="669.48,-453.25 672.84,-443.2 663.95,-448.96 669.48,-453.25"/>
<text xml:space="preserve" text-anchor="middle" x="669.5" y="-501.04" font-family="Helvetica,sans-Serif" font-size="9.00">HTTPS proxy</text>
<text xml:space="preserve" text-anchor="middle" x="669.5" y="-489.79" font-family="Helvetica,sans-Serif" font-size="9.00">(/ca/*)</text>
</g>
<!-- krb -->
<g id="node6" class="node">
<title>krb</title>
<polygon fill="#f3f4f6" stroke="#6b7280" stroke-width="1.5" points="631.88,-733.09 558.12,-733.09 558.12,-697.09 631.88,-697.09 631.88,-733.09"/>
<text xml:space="preserve" text-anchor="middle" x="595" y="-718.14" font-family="Helvetica,sans-Serif" font-size="11.00">KDC</text>
<text xml:space="preserve" text-anchor="middle" x="595" y="-704.64" font-family="Helvetica,sans-Serif" font-size="11.00">(Kerberos)</text>
</g>
<!-- krb&#45;&gt;httpd_main -->
<g id="edge13" class="edge">
<title>krb&#45;&gt;httpd_main</title>
<path fill="none" stroke="#6b7280" stroke-dasharray="5,2" d="M595.24,-696.45C595.56,-673.41 596.12,-632.56 596.52,-603.06"/>
<polygon fill="#6b7280" stroke="#6b7280" points="600.02,-603.16 596.65,-593.11 593.02,-603.06 600.02,-603.16"/>
<text xml:space="preserve" text-anchor="middle" x="606.68" y="-638.04" font-family="Helvetica,sans-Serif" font-size="9.00">auth</text>
</g>
<!-- certmonger_svc -->
<g id="node7" class="node">
<title>certmonger_svc</title>
<polygon fill="#f3f4f6" stroke="#6b7280" stroke-width="1.5" points="771.75,-739.34 682.25,-739.34 682.25,-690.84 771.75,-690.84 771.75,-739.34"/>
<text xml:space="preserve" text-anchor="middle" x="727" y="-724.89" font-family="Helvetica,sans-Serif" font-size="11.00">certmonger</text>
<text xml:space="preserve" text-anchor="middle" x="727" y="-711.39" font-family="Helvetica,sans-Serif" font-size="11.00">(cert renewal</text>
<text xml:space="preserve" text-anchor="middle" x="727" y="-697.89" font-family="Helvetica,sans-Serif" font-size="11.00">tracking)</text>
</g>
<!-- certmonger_svc&#45;&gt;rest -->
<g id="edge14" class="edge">
<title>certmonger_svc&#45;&gt;rest</title>
<path fill="none" stroke="#6b7280" d="M726.26,-690.36C724.65,-648.83 719.78,-560.41 706,-487.09 703.86,-475.72 700.57,-463.44 697.38,-452.79"/>
<polygon fill="#6b7280" stroke="#6b7280" points="700.78,-451.94 694.47,-443.43 694.1,-454.01 700.78,-451.94"/>
<text xml:space="preserve" text-anchor="middle" x="739.26" y="-569.54" font-family="Helvetica,sans-Serif" font-size="9.00">renewal</text>
<text xml:space="preserve" text-anchor="middle" x="739.26" y="-558.29" font-family="Helvetica,sans-Serif" font-size="9.00">requests</text>
</g>
<!-- dns -->
<g id="node8" class="node">
<title>dns</title>
<polygon fill="#f3f4f6" stroke="#6b7280" stroke-width="1.5" points="914.25,-739.34 821.75,-739.34 821.75,-690.84 914.25,-690.84 914.25,-739.34"/>
<text xml:space="preserve" text-anchor="middle" x="868" y="-724.89" font-family="Helvetica,sans-Serif" font-size="11.00">DNS</text>
<text xml:space="preserve" text-anchor="middle" x="868" y="-711.39" font-family="Helvetica,sans-Serif" font-size="11.00">(ACME dns&#45;01</text>
<text xml:space="preserve" text-anchor="middle" x="868" y="-697.89" font-family="Helvetica,sans-Serif" font-size="11.00">validation)</text>
</g>
<!-- acme_module -->
<g id="node11" class="node">
<title>acme_module</title>
<polygon fill="#6ee7b7" stroke="#059669" stroke-width="1.5" points="911.62,-338.34 824.38,-338.34 824.38,-302.34 911.62,-302.34 911.62,-338.34"/>
<text xml:space="preserve" text-anchor="middle" x="868" y="-323.39" font-family="Helvetica,sans-Serif" font-size="11.00">ACME Server</text>
<text xml:space="preserve" text-anchor="middle" x="868" y="-309.89" font-family="Helvetica,sans-Serif" font-size="11.00">(RFC 8555)</text>
</g>
<!-- dns&#45;&gt;acme_module -->
<g id="edge15" class="edge">
<title>dns&#45;&gt;acme_module</title>
<path fill="none" stroke="#6b7280" stroke-dasharray="5,2" d="M868,-690.12C868,-621.49 868,-424.47 868,-350.16"/>
<polygon fill="#6b7280" stroke="#6b7280" points="871.5,-350.45 868,-340.45 864.5,-350.45 871.5,-350.45"/>
<text xml:space="preserve" text-anchor="middle" x="889.75" y="-501.04" font-family="Helvetica,sans-Serif" font-size="9.00">dns&#45;01</text>
<text xml:space="preserve" text-anchor="middle" x="889.75" y="-489.79" font-family="Helvetica,sans-Serif" font-size="9.00">validation</text>
</g>
<!-- ca_service -->
<g id="node9" class="node">
<title>ca_service</title>
<polygon fill="#6ee7b7" stroke="#059669" stroke-width="1.5" points="649.38,-338.34 534.62,-338.34 530.62,-334.34 530.62,-302.34 645.38,-302.34 649.38,-306.34 649.38,-338.34"/>
<polyline fill="none" stroke="#059669" stroke-width="1.5" points="645.38,-334.34 530.62,-334.34"/>
<polyline fill="none" stroke="#059669" stroke-width="1.5" points="645.38,-334.34 645.38,-302.34"/>
<polyline fill="none" stroke="#059669" stroke-width="1.5" points="645.38,-334.34 649.38,-338.34"/>
<text xml:space="preserve" text-anchor="middle" x="590" y="-323.39" font-family="Helvetica,sans-Serif" font-size="11.00">CA Service</text>
<text xml:space="preserve" text-anchor="middle" x="590" y="-309.89" font-family="Helvetica,sans-Serif" font-size="11.00">(ipacta.service)</text>
</g>
<!-- ds_ca -->
<g id="node15" class="node">
<title>ds_ca</title>
<path fill="#c4b5fd" stroke="#7c3aed" stroke-width="1.5" d="M625,-206.28C625,-209.62 609.31,-212.34 590,-212.34 570.69,-212.34 555,-209.62 555,-206.28 555,-206.28 555,-151.72 555,-151.72 555,-148.37 570.69,-145.65 590,-145.65 609.31,-145.65 625,-148.37 625,-151.72 625,-151.72 625,-206.28 625,-206.28"/>
<path fill="none" stroke="#7c3aed" stroke-width="1.5" d="M625,-206.28C625,-202.93 609.31,-200.22 590,-200.22 570.69,-200.22 555,-202.93 555,-206.28"/>
<text xml:space="preserve" text-anchor="middle" x="590" y="-188.8" font-family="Helvetica,sans-Serif" font-size="11.00">389 DS</text>
<text xml:space="preserve" text-anchor="middle" x="590" y="-175.3" font-family="Helvetica,sans-Serif" font-size="11.00">(o=ipaca)</text>
<text xml:space="preserve" text-anchor="middle" x="590" y="-161.8" font-family="Helvetica,sans-Serif" font-size="11.00">CA data</text>
</g>
<!-- ca_service&#45;&gt;ds_ca -->
<g id="edge10" class="edge">
<title>ca_service&#45;&gt;ds_ca</title>
<path fill="none" stroke="#6b7280" d="M590,-301.69C590,-282.3 590,-250.41 590,-224.15"/>
<polygon fill="#6b7280" stroke="#6b7280" points="593.5,-224.42 590,-214.42 586.5,-224.42 593.5,-224.42"/>
<text xml:space="preserve" text-anchor="middle" x="601.62" y="-260.79" font-family="Helvetica,sans-Serif" font-size="9.00">LDAP</text>
</g>
<!-- rest&#45;&gt;ca_service -->
<g id="edge6" class="edge">
<title>rest&#45;&gt;ca_service</title>
<path fill="none" stroke="#6b7280" d="M670.93,-404.75C655.43,-388.77 632.37,-365.01 614.83,-346.93"/>
<polygon fill="#6b7280" stroke="#6b7280" points="617.73,-344.9 608.26,-340.16 612.71,-349.77 617.73,-344.9"/>
</g>
<!-- rest&#45;&gt;acme_module -->
<g id="edge7" class="edge">
<title>rest&#45;&gt;acme_module</title>
<path fill="none" stroke="#6b7280" d="M719.35,-404.75C749.11,-388.05 794.02,-362.85 826.69,-344.52"/>
<polygon fill="#6b7280" stroke="#6b7280" points="828.07,-347.76 835.08,-339.81 824.65,-341.65 828.07,-347.76"/>
</g>
<!-- kra_module -->
<g id="node12" class="node">
<title>kra_module</title>
<polygon fill="#6ee7b7" stroke="#059669" stroke-width="1.5" points="480.62,-338.34 393.38,-338.34 393.38,-302.34 480.62,-302.34 480.62,-338.34"/>
<text xml:space="preserve" text-anchor="middle" x="437" y="-323.39" font-family="Helvetica,sans-Serif" font-size="11.00">KRA</text>
<text xml:space="preserve" text-anchor="middle" x="437" y="-309.89" font-family="Helvetica,sans-Serif" font-size="11.00">(key escrow)</text>
</g>
<!-- rest&#45;&gt;kra_module -->
<g id="edge8" class="edge">
<title>rest&#45;&gt;kra_module</title>
<path fill="none" stroke="#6b7280" d="M643.99,-404.63C601.56,-387.56 537.23,-361.67 491.56,-343.3"/>
<polygon fill="#6b7280" stroke="#6b7280" points="492.95,-340.08 482.36,-339.6 490.33,-346.58 492.95,-340.08"/>
</g>
<!-- ocsp_module -->
<g id="node13" class="node">
<title>ocsp_module</title>
<polygon fill="#6ee7b7" stroke="#059669" stroke-width="1.5" points="774.25,-338.34 699.75,-338.34 699.75,-302.34 774.25,-302.34 774.25,-338.34"/>
<text xml:space="preserve" text-anchor="middle" x="737" y="-323.39" font-family="Helvetica,sans-Serif" font-size="11.00">OCSP</text>
<text xml:space="preserve" text-anchor="middle" x="737" y="-309.89" font-family="Helvetica,sans-Serif" font-size="11.00">Responder</text>
</g>
<!-- rest&#45;&gt;ocsp_module -->
<g id="edge9" class="edge">
<title>rest&#45;&gt;ocsp_module</title>
<path fill="none" stroke="#6b7280" d="M696.54,-404.75C703.94,-389.49 714.78,-367.13 723.38,-349.41"/>
<polygon fill="#6b7280" stroke="#6b7280" points="726.52,-350.96 727.74,-340.43 720.22,-347.9 726.52,-350.96"/>
</g>
<!-- acme_module&#45;&gt;ds_ca -->
<g id="edge12" class="edge">
<title>acme_module&#45;&gt;ds_ca</title>
<path fill="none" stroke="#6b7280" d="M832.79,-301.69C782.69,-276.58 690.8,-230.52 635.56,-202.84"/>
<polygon fill="#6b7280" stroke="#6b7280" points="637.22,-199.75 626.71,-198.4 634.09,-206.01 637.22,-199.75"/>
</g>
<!-- kra_module&#45;&gt;ds_ca -->
<g id="edge11" class="edge">
<title>kra_module&#45;&gt;ds_ca</title>
<path fill="none" stroke="#6b7280" d="M463.88,-301.7C483.15,-288.51 509.26,-269.47 530,-250.09 539.6,-241.13 549.2,-230.71 557.82,-220.7"/>
<polygon fill="#6b7280" stroke="#6b7280" points="560.37,-223.11 564.14,-213.21 555.02,-218.59 560.37,-223.11"/>
</g>
<!-- ds_main -->
<g id="node14" class="node">
<title>ds_main</title>
<path fill="#c4b5fd" stroke="#7c3aed" stroke-width="1.5" d="M505.12,-206.28C505.12,-209.62 486.24,-212.34 463,-212.34 439.76,-212.34 420.88,-209.62 420.88,-206.28 420.88,-206.28 420.88,-151.72 420.88,-151.72 420.88,-148.37 439.76,-145.65 463,-145.65 486.24,-145.65 505.12,-148.37 505.12,-151.72 505.12,-151.72 505.12,-206.28 505.12,-206.28"/>
<path fill="none" stroke="#7c3aed" stroke-width="1.5" d="M505.12,-206.28C505.12,-202.93 486.24,-200.22 463,-200.22 439.76,-200.22 420.88,-202.93 420.88,-206.28"/>
<text xml:space="preserve" text-anchor="middle" x="463" y="-188.8" font-family="Helvetica,sans-Serif" font-size="11.00">389 DS</text>
<text xml:space="preserve" text-anchor="middle" x="463" y="-175.3" font-family="Helvetica,sans-Serif" font-size="11.00">(cn=...)</text>
<text xml:space="preserve" text-anchor="middle" x="463" y="-161.8" font-family="Helvetica,sans-Serif" font-size="11.00">FreeIPA data</text>
</g>
<!-- repl -->
<g id="node16" class="node">
<title>repl</title>
<polygon fill="#fef3c7" stroke="#d97706" stroke-width="1.5" points="596.01,-28.58 561.01,-57.15 490.99,-57.15 455.99,-28.58 490.99,0 561.01,0 596.01,-28.58"/>
<text xml:space="preserve" text-anchor="middle" x="526" y="-31.63" font-family="Helvetica,sans-Serif" font-size="11.00">Multi&#45;master</text>
<text xml:space="preserve" text-anchor="middle" x="526" y="-18.13" font-family="Helvetica,sans-Serif" font-size="11.00">Replication</text>
</g>
<!-- ds_main&#45;&gt;repl -->
<g id="edge17" class="edge">
<title>ds_main&#45;&gt;repl</title>
<path fill="none" stroke="#6b7280" d="M466.64,-133.98C468.93,-119.57 472.67,-103.77 478.75,-90.15 482.34,-82.11 487.23,-74.17 492.51,-66.84"/>
<polygon fill="#6b7280" stroke="#6b7280" points="463.2,-133.29 465.3,-143.68 470.14,-134.25 463.2,-133.29"/>
<polygon fill="#6b7280" stroke="#6b7280" points="495.12,-69.17 498.41,-59.1 489.56,-64.93 495.12,-69.17"/>
<text xml:space="preserve" text-anchor="middle" x="499.38" y="-98.48" font-family="Helvetica,sans-Serif" font-size="9.00">IPA suffix</text>
</g>
<!-- ds_ca&#45;&gt;repl -->
<g id="edge16" class="edge">
<title>ds_ca&#45;&gt;repl</title>
<path fill="none" stroke="#6b7280" d="M571.36,-134.76C562.24,-113.62 551.36,-88.4 542.55,-67.95"/>
<polygon fill="#6b7280" stroke="#6b7280" points="568.02,-135.87 575.2,-143.67 574.45,-133.1 568.02,-135.87"/>
<polygon fill="#6b7280" stroke="#6b7280" points="545.79,-66.63 538.61,-58.83 539.36,-69.4 545.79,-66.63"/>
<text xml:space="preserve" text-anchor="middle" x="582.04" y="-104.1" font-family="Helvetica,sans-Serif" font-size="9.00">CA suffix</text>
<text xml:space="preserve" text-anchor="middle" x="582.04" y="-92.85" font-family="Helvetica,sans-Serif" font-size="9.00">(o=ipaca)</text>
</g>
</g>
</svg>
