<?xml version="1.0" encoding="UTF-8" standalone="no"?>
<!DOCTYPE svg PUBLIC "-//W3C//DTD SVG 1.1//EN"
 "http://www.w3.org/Graphics/SVG/1.1/DTD/svg11.dtd">
<!-- Generated by graphviz version 14.1.4 (20260321.0153)
 -->
<!-- Title: installation_flow Pages: 1 -->
<svg width="491pt" height="1468pt"
 viewBox="0.00 0.00 491.00 1468.00" xmlns="http://www.w3.org/2000/svg" xmlns:xlink="http://www.w3.org/1999/xlink">
<g id="graph0" class="graph" transform="scale(1 1) rotate(0) translate(36 1431.75)">
<title>installation_flow</title>
<polygon fill="#ffffff" stroke="none" points="-36,36 -36,-1431.75 454.75,-1431.75 454.75,36 -36,36"/>
<text xml:space="preserve" text-anchor="middle" x="209.38" y="-1374.65" font-family="Helvetica,sans-Serif" font-size="18.00" fill="#334155">ipacta Installation Flow (create_instance)</text>
<g id="clust1" class="cluster">
<title>cluster_phase1</title>
<polygon fill="#dbeafe" stroke="#2563eb" points="115.38,-1039.25 115.38,-1358 331.38,-1358 331.38,-1039.25 115.38,-1039.25"/>
<text xml:space="preserve" text-anchor="middle" x="223.38" y="-1336.9" font-family="Helvetica,sans-Serif" font-size="18.00" fill="#2563eb">Phase 1: Prerequisites</text>
</g>
<g id="clust2" class="cluster">
<title>cluster_phase2</title>
<polygon fill="#d1fae5" stroke="#059669" points="62.38,-785.75 62.38,-1031.25 305.38,-1031.25 305.38,-785.75 62.38,-785.75"/>
<text xml:space="preserve" text-anchor="middle" x="183.88" y="-1010.15" font-family="Helvetica,sans-Serif" font-size="18.00" fill="#059669">Phase 2: CA Key Material</text>
</g>
<g id="clust3" class="cluster">
<title>cluster_phase3</title>
<polygon fill="#ede9fe" stroke="#7c3aed" points="93.38,-526.5 93.38,-777.75 296.38,-777.75 296.38,-526.5 93.38,-526.5"/>
<text xml:space="preserve" text-anchor="middle" x="194.88" y="-756.65" font-family="Helvetica,sans-Serif" font-size="18.00" fill="#7c3aed">Phase 3: LDAP Setup</text>
</g>
<g id="clust4" class="cluster">
<title>cluster_phase4</title>
<polygon fill="#fef3c7" stroke="#d97706" points="94.38,-273 94.38,-518.5 356.38,-518.5 356.38,-273 94.38,-273"/>
<text xml:space="preserve" text-anchor="middle" x="225.38" y="-497.4" font-family="Helvetica,sans-Serif" font-size="18.00" fill="#d97706">Phase 4: Service Activation</text>
</g>
<g id="clust5" class="cluster">
<title>cluster_phase5</title>
<polygon fill="#fee2e2" stroke="#dc2626" points="93.38,-8 93.38,-265 327.38,-265 327.38,-8 93.38,-8"/>
<text xml:space="preserve" text-anchor="middle" x="210.38" y="-243.9" font-family="Helvetica,sans-Serif" font-size="18.00" fill="#dc2626">Phase 5: Post&#45;Activation</text>
</g>
<!-- p1_1 -->
<g id="node1" class="node">
<title>p1_1</title>
<polygon fill="#93c5fd" stroke="#2563eb" stroke-width="1.2" points="222.5,-1320.25 144.25,-1320.25 144.25,-1284.25 222.5,-1284.25 222.5,-1320.25"/>
<text xml:space="preserve" text-anchor="middle" x="183.38" y="-1299.33" font-family="Helvetica,sans-Serif" font-size="9.00">1. Wait for DS</text>
</g>
<!-- p1_2 -->
<g id="node2" class="node">
<title>p1_2</title>
<polygon fill="#93c5fd" stroke="#2563eb" stroke-width="1.2" points="227.38,-1241.25 139.38,-1241.25 139.38,-1205.25 227.38,-1205.25 227.38,-1241.25"/>
<text xml:space="preserve" text-anchor="middle" x="183.38" y="-1225.95" font-family="Helvetica,sans-Serif" font-size="9.00">2. Write config</text>
<text xml:space="preserve" text-anchor="middle" x="183.38" y="-1214.7" font-family="Helvetica,sans-Serif" font-size="9.00">(ipacta.conf)</text>
</g>
<!-- p1_1&#45;&gt;p1_2 -->
<g id="edge1" class="edge">
<title>p1_1&#45;&gt;p1_2</title>
<path fill="none" stroke="#6b7280" d="M183.38,-1283.78C183.38,-1274.72 183.38,-1263.42 183.38,-1253.11"/>
<polygon fill="#6b7280" stroke="#6b7280" points="186.88,-1253.17 183.38,-1243.17 179.88,-1253.17 186.88,-1253.17"/>
</g>
<!-- p1_3 -->
<g id="node3" class="node">
<title>p1_3</title>
<polygon fill="#93c5fd" stroke="#2563eb" stroke-width="1.2" points="239.38,-1162.25 127.38,-1162.25 127.38,-1126.25 239.38,-1126.25 239.38,-1162.25"/>
<text xml:space="preserve" text-anchor="middle" x="183.38" y="-1141.33" font-family="Helvetica,sans-Serif" font-size="9.00">3. Configure tmpfiles</text>
</g>
<!-- p1_2&#45;&gt;p1_3 -->
<g id="edge2" class="edge">
<title>p1_2&#45;&gt;p1_3</title>
<path fill="none" stroke="#6b7280" d="M183.38,-1204.78C183.38,-1195.72 183.38,-1184.42 183.38,-1174.11"/>
<polygon fill="#6b7280" stroke="#6b7280" points="186.88,-1174.17 183.38,-1164.17 179.88,-1174.17 186.88,-1174.17"/>
</g>
<!-- p1_4 -->
<g id="node4" class="node">
<title>p1_4</title>
<polygon fill="#93c5fd" stroke="#2563eb" stroke-width="1.2" points="229.25,-1083.25 137.5,-1083.25 137.5,-1047.25 229.25,-1047.25 229.25,-1083.25"/>
<text xml:space="preserve" text-anchor="middle" x="183.38" y="-1067.95" font-family="Helvetica,sans-Serif" font-size="9.00">4. Create NSSDB</text>
<text xml:space="preserve" text-anchor="middle" x="183.38" y="-1056.7" font-family="Helvetica,sans-Serif" font-size="9.00">(+ password)</text>
</g>
<!-- p1_3&#45;&gt;p1_4 -->
<g id="edge3" class="edge">
<title>p1_3&#45;&gt;p1_4</title>
<path fill="none" stroke="#6b7280" d="M183.38,-1125.78C183.38,-1116.72 183.38,-1105.42 183.38,-1095.11"/>
<polygon fill="#6b7280" stroke="#6b7280" points="186.88,-1095.17 183.38,-1085.17 179.88,-1095.17 186.88,-1095.17"/>
</g>
<!-- p2_1 -->
<g id="node5" class="node">
<title>p2_1</title>
<polygon fill="#6ee7b7" stroke="#059669" stroke-width="1.2" points="240.12,-993.5 126.62,-993.5 126.62,-957.5 240.12,-957.5 240.12,-993.5"/>
<text xml:space="preserve" text-anchor="middle" x="183.38" y="-978.2" font-family="Helvetica,sans-Serif" font-size="9.00">5&#45;6. Import/create</text>
<text xml:space="preserve" text-anchor="middle" x="183.38" y="-966.95" font-family="Helvetica,sans-Serif" font-size="9.00">CA signing key &amp; cert</text>
</g>
<!-- p1_4&#45;&gt;p2_1 -->
<g id="edge4" class="edge">
<title>p1_4&#45;&gt;p2_1</title>
<path fill="none" stroke="#6b7280" d="M183.38,-1046.91C183.38,-1035.02 183.38,-1018.95 183.38,-1005.16"/>
<polygon fill="#6b7280" stroke="#6b7280" points="186.88,-1005.31 183.38,-995.31 179.88,-1005.31 186.88,-1005.31"/>
</g>
<!-- p2_2 -->
<g id="node6" class="node">
<title>p2_2</title>
<polygon fill="#6ee7b7" stroke="#059669" stroke-width="1.2" points="246.88,-914.5 119.88,-914.5 119.88,-872.75 246.88,-872.75 246.88,-914.5"/>
<text xml:space="preserve" text-anchor="middle" x="183.38" y="-901.95" font-family="Helvetica,sans-Serif" font-size="9.00">7&#45;11. Generate certs:</text>
<text xml:space="preserve" text-anchor="middle" x="183.38" y="-890.7" font-family="Helvetica,sans-Serif" font-size="9.00">audit, OCSP, subsystem,</text>
<text xml:space="preserve" text-anchor="middle" x="183.38" y="-879.45" font-family="Helvetica,sans-Serif" font-size="9.00">RA agent, admin</text>
</g>
<!-- p2_1&#45;&gt;p2_2 -->
<g id="edge5" class="edge">
<title>p2_1&#45;&gt;p2_2</title>
<path fill="none" stroke="#6b7280" d="M183.38,-957.17C183.38,-948.17 183.38,-936.88 183.38,-926.38"/>
<polygon fill="#6b7280" stroke="#6b7280" points="186.88,-926.54 183.38,-916.54 179.88,-926.54 186.88,-926.54"/>
</g>
<!-- p2_3 -->
<g id="node7" class="node">
<title>p2_3</title>
<polygon fill="#6ee7b7" stroke="#059669" stroke-width="1.2" points="225.12,-829.75 141.62,-829.75 141.62,-793.75 225.12,-793.75 225.12,-829.75"/>
<text xml:space="preserve" text-anchor="middle" x="183.38" y="-814.45" font-family="Helvetica,sans-Serif" font-size="9.00">12. Set NSSDB</text>
<text xml:space="preserve" text-anchor="middle" x="183.38" y="-803.2" font-family="Helvetica,sans-Serif" font-size="9.00">permissions</text>
</g>
<!-- p2_2&#45;&gt;p2_3 -->
<g id="edge6" class="edge">
<title>p2_2&#45;&gt;p2_3</title>
<path fill="none" stroke="#6b7280" d="M183.38,-872.47C183.38,-863.1 183.38,-851.79 183.38,-841.55"/>
<polygon fill="#6b7280" stroke="#6b7280" points="186.88,-841.7 183.38,-831.7 179.88,-841.7 186.88,-841.7"/>
</g>
<!-- p3_1 -->
<g id="node8" class="node">
<title>p3_1</title>
<polygon fill="#c4b5fd" stroke="#7c3aed" stroke-width="1.2" points="235.62,-740 131.12,-740 131.12,-698.25 235.62,-698.25 235.62,-740"/>
<text xml:space="preserve" text-anchor="middle" x="183.38" y="-727.45" font-family="Helvetica,sans-Serif" font-size="9.00">13&#45;14. Create LDAP</text>
<text xml:space="preserve" text-anchor="middle" x="183.38" y="-716.2" font-family="Helvetica,sans-Serif" font-size="9.00">schema &amp; entries</text>
<text xml:space="preserve" text-anchor="middle" x="183.38" y="-704.95" font-family="Helvetica,sans-Serif" font-size="9.00">(o=ipaca tree)</text>
</g>
<!-- p2_3&#45;&gt;p3_1 -->
<g id="edge7" class="edge">
<title>p2_3&#45;&gt;p3_1</title>
<path fill="none" stroke="#6b7280" d="M183.38,-793.28C183.38,-781.46 183.38,-765.53 183.38,-751.54"/>
<polygon fill="#6b7280" stroke="#6b7280" points="186.88,-751.91 183.38,-741.91 179.88,-751.91 186.88,-751.91"/>
</g>
<!-- p3_2 -->
<g id="node9" class="node">
<title>p3_2</title>
<polygon fill="#c4b5fd" stroke="#7c3aed" stroke-width="1.2" points="230,-655.25 136.75,-655.25 136.75,-613.5 230,-613.5 230,-655.25"/>
<text xml:space="preserve" text-anchor="middle" x="183.38" y="-642.7" font-family="Helvetica,sans-Serif" font-size="9.00">15&#45;16. Configure</text>
<text xml:space="preserve" text-anchor="middle" x="183.38" y="-631.45" font-family="Helvetica,sans-Serif" font-size="9.00">serial ranges</text>
<text xml:space="preserve" text-anchor="middle" x="183.38" y="-620.2" font-family="Helvetica,sans-Serif" font-size="9.00">&amp; profiles</text>
</g>
<!-- p3_1&#45;&gt;p3_2 -->
<g id="edge8" class="edge">
<title>p3_1&#45;&gt;p3_2</title>
<path fill="none" stroke="#6b7280" d="M183.38,-697.67C183.38,-688.45 183.38,-677.35 183.38,-667.09"/>
<polygon fill="#6b7280" stroke="#6b7280" points="186.88,-667.11 183.38,-657.11 179.88,-667.11 186.88,-667.11"/>
</g>
<!-- p3_3 -->
<g id="node10" class="node">
<title>p3_3</title>
<polygon fill="#c4b5fd" stroke="#7c3aed" stroke-width="1.2" points="231.88,-570.5 134.88,-570.5 134.88,-534.5 231.88,-534.5 231.88,-570.5"/>
<text xml:space="preserve" text-anchor="middle" x="183.38" y="-555.2" font-family="Helvetica,sans-Serif" font-size="9.00">17. Store security</text>
<text xml:space="preserve" text-anchor="middle" x="183.38" y="-543.95" font-family="Helvetica,sans-Serif" font-size="9.00">certs in LDAP</text>
</g>
<!-- p3_2&#45;&gt;p3_3 -->
<g id="edge9" class="edge">
<title>p3_2&#45;&gt;p3_3</title>
<path fill="none" stroke="#6b7280" d="M183.38,-613.22C183.38,-603.85 183.38,-592.54 183.38,-582.3"/>
<polygon fill="#6b7280" stroke="#6b7280" points="186.88,-582.45 183.38,-572.45 179.88,-582.45 186.88,-582.45"/>
</g>
<!-- p4_1 -->
<g id="node11" class="node">
<title>p4_1</title>
<polygon fill="#fcd34d" stroke="#d97706" stroke-width="1.2" points="230,-480.75 136.75,-480.75 136.75,-439 230,-439 230,-480.75"/>
<text xml:space="preserve" text-anchor="middle" x="183.38" y="-468.2" font-family="Helvetica,sans-Serif" font-size="9.00">18&#45;19. Configure</text>
<text xml:space="preserve" text-anchor="middle" x="183.38" y="-456.95" font-family="Helvetica,sans-Serif" font-size="9.00">httpd proxy</text>
<text xml:space="preserve" text-anchor="middle" x="183.38" y="-445.7" font-family="Helvetica,sans-Serif" font-size="9.00">&amp; DNS SRV</text>
</g>
<!-- p3_3&#45;&gt;p4_1 -->
<g id="edge10" class="edge">
<title>p3_3&#45;&gt;p4_1</title>
<path fill="none" stroke="#6b7280" d="M183.38,-534.03C183.38,-522.21 183.38,-506.28 183.38,-492.29"/>
<polygon fill="#6b7280" stroke="#6b7280" points="186.88,-492.66 183.38,-482.66 179.88,-492.66 186.88,-492.66"/>
</g>
<!-- p4_2 -->
<g id="node12" class="node">
<title>p4_2</title>
<polygon fill="#fcd34d" stroke="#d97706" stroke-width="1.2" points="237.5,-396 129.25,-396 129.25,-360 237.5,-360 237.5,-396"/>
<text xml:space="preserve" text-anchor="middle" x="183.38" y="-380.7" font-family="Helvetica,sans-Serif" font-size="9.00">20. Start service</text>
<text xml:space="preserve" text-anchor="middle" x="183.38" y="-369.45" font-family="Helvetica,sans-Serif" font-size="9.00">(systemd, sd_notify)</text>
</g>
<!-- p4_1&#45;&gt;p4_2 -->
<g id="edge11" class="edge">
<title>p4_1&#45;&gt;p4_2</title>
<path fill="none" stroke="#6b7280" d="M183.38,-438.72C183.38,-429.35 183.38,-418.04 183.38,-407.8"/>
<polygon fill="#6b7280" stroke="#6b7280" points="186.88,-407.95 183.38,-397.95 179.88,-407.95 186.88,-407.95"/>
</g>
<!-- p4_3 -->
<g id="node13" class="node">
<title>p4_3</title>
<polygon fill="#fcd34d" stroke="#d97706" stroke-width="1.2" points="239.38,-317 127.38,-317 127.38,-281 239.38,-281 239.38,-317"/>
<text xml:space="preserve" text-anchor="middle" x="183.38" y="-301.7" font-family="Helvetica,sans-Serif" font-size="9.00">21. Wait for CA ready</text>
<text xml:space="preserve" text-anchor="middle" x="183.38" y="-290.45" font-family="Helvetica,sans-Serif" font-size="9.00">(health endpoint)</text>
</g>
<!-- p4_2&#45;&gt;p4_3 -->
<g id="edge12" class="edge">
<title>p4_2&#45;&gt;p4_3</title>
<path fill="none" stroke="#6b7280" d="M183.38,-359.53C183.38,-350.47 183.38,-339.17 183.38,-328.86"/>
<polygon fill="#6b7280" stroke="#6b7280" points="186.88,-328.92 183.38,-318.92 179.88,-328.92 186.88,-328.92"/>
</g>
<!-- p5_1 -->
<g id="node14" class="node">
<title>p5_1</title>
<polygon fill="#fca5a5" stroke="#dc2626" stroke-width="1.2" points="235.62,-227.25 131.12,-227.25 131.12,-185.5 235.62,-185.5 235.62,-227.25"/>
<text xml:space="preserve" text-anchor="middle" x="183.38" y="-214.7" font-family="Helvetica,sans-Serif" font-size="9.00">22&#45;24. Export certs</text>
<text xml:space="preserve" text-anchor="middle" x="183.38" y="-203.45" font-family="Helvetica,sans-Serif" font-size="9.00">to files, CA chain,</text>
<text xml:space="preserve" text-anchor="middle" x="183.38" y="-192.2" font-family="Helvetica,sans-Serif" font-size="9.00">trust anchors</text>
</g>
<!-- p4_3&#45;&gt;p5_1 -->
<g id="edge13" class="edge">
<title>p4_3&#45;&gt;p5_1</title>
<path fill="none" stroke="#6b7280" d="M183.38,-280.53C183.38,-268.71 183.38,-252.78 183.38,-238.79"/>
<polygon fill="#6b7280" stroke="#6b7280" points="186.88,-239.16 183.38,-229.16 179.88,-239.16 186.88,-239.16"/>
</g>
<!-- p5_2 -->
<g id="node15" class="node">
<title>p5_2</title>
<polygon fill="#fca5a5" stroke="#dc2626" stroke-width="1.2" points="234.88,-142.5 131.88,-142.5 131.88,-100.75 234.88,-100.75 234.88,-142.5"/>
<text xml:space="preserve" text-anchor="middle" x="183.38" y="-129.95" font-family="Helvetica,sans-Serif" font-size="9.00">25&#45;27. Certmonger</text>
<text xml:space="preserve" text-anchor="middle" x="183.38" y="-118.7" font-family="Helvetica,sans-Serif" font-size="9.00">tracking, replica</text>
<text xml:space="preserve" text-anchor="middle" x="183.38" y="-107.45" font-family="Helvetica,sans-Serif" font-size="9.00">agreements</text>
</g>
<!-- p5_1&#45;&gt;p5_2 -->
<g id="edge14" class="edge">
<title>p5_1&#45;&gt;p5_2</title>
<path fill="none" stroke="#6b7280" d="M183.38,-184.92C183.38,-175.7 183.38,-164.6 183.38,-154.34"/>
<polygon fill="#6b7280" stroke="#6b7280" points="186.88,-154.36 183.38,-144.36 179.88,-154.36 186.88,-154.36"/>
</g>
<!-- p5_3 -->
<g id="node16" class="node">
<title>p5_3</title>
<polygon fill="#fca5a5" stroke="#dc2626" stroke-width="1.2" points="228.5,-57.75 138.25,-57.75 138.25,-16 228.5,-16 228.5,-57.75"/>
<text xml:space="preserve" text-anchor="middle" x="183.38" y="-45.2" font-family="Helvetica,sans-Serif" font-size="9.00">28&#45;29. Generate</text>
<text xml:space="preserve" text-anchor="middle" x="183.38" y="-33.95" font-family="Helvetica,sans-Serif" font-size="9.00">initial CRL,</text>
<text xml:space="preserve" text-anchor="middle" x="183.38" y="-22.7" font-family="Helvetica,sans-Serif" font-size="9.00">KRA if needed</text>
</g>
<!-- p5_2&#45;&gt;p5_3 -->
<g id="edge15" class="edge">
<title>p5_2&#45;&gt;p5_3</title>
<path fill="none" stroke="#6b7280" d="M183.38,-100.17C183.38,-90.95 183.38,-79.85 183.38,-69.59"/>
<polygon fill="#6b7280" stroke="#6b7280" points="186.88,-69.61 183.38,-59.61 179.88,-69.61 186.88,-69.61"/>
</g>
</g>
</svg>
