<?xml version="1.0" encoding="UTF-8" standalone="no"?>
<!DOCTYPE svg PUBLIC "-//W3C//DTD SVG 1.1//EN"
 "http://www.w3.org/Graphics/SVG/1.1/DTD/svg11.dtd">
<!-- Generated by graphviz version 14.1.4 (20260321.0153)
 -->
<!-- Title: ldap_schema_tree Pages: 1 -->
<svg width="1320pt" height="306pt"
 viewBox="0.00 0.00 1320.00 306.00" xmlns="http://www.w3.org/2000/svg" xmlns:xlink="http://www.w3.org/1999/xlink">
<g id="graph0" class="graph" transform="scale(1 1) rotate(0) translate(36 270)">
<title>ldap_schema_tree</title>
<polygon fill="#ffffff" stroke="none" points="-36,36 -36,-270 1284,-270 1284,36 -36,36"/>
<text xml:space="preserve" text-anchor="middle" x="624" y="-212.9" font-family="Helvetica,sans-Serif" font-size="18.00" fill="#334155">LDAP Schema Tree (o=ipaca)</text>
<!-- root -->
<g id="node1" class="node">
<title>root</title>
<polygon fill="#ede9fe" stroke="#7c3aed" stroke-width="1.2" points="735.38,-204.25 667.88,-204.25 663.88,-200.25 663.88,-168.25 731.38,-168.25 735.38,-172.25 735.38,-204.25"/>
<polyline fill="none" stroke="#7c3aed" stroke-width="1.2" points="731.38,-200.25 663.88,-200.25"/>
<polyline fill="none" stroke="#7c3aed" stroke-width="1.2" points="731.38,-200.25 731.38,-168.25"/>
<polyline fill="none" stroke="#7c3aed" stroke-width="1.2" points="731.38,-200.25 735.38,-204.25"/>
<text xml:space="preserve" text-anchor="middle" x="699.62" y="-182.15" font-family="Helvetica,sans-Serif" font-size="13.00">o=ipaca</text>
</g>
<!-- ou_ca -->
<g id="node2" class="node">
<title>ou_ca</title>
<polygon fill="#d1fae5" stroke="#059669" stroke-width="1.2" points="217.75,-125.25 121.5,-125.25 121.5,-79 217.75,-79 217.75,-125.25"/>
<text xml:space="preserve" text-anchor="middle" x="169.62" y="-111.75" font-family="Helvetica,sans-Serif" font-size="10.00">ou=ca</text>
<text xml:space="preserve" text-anchor="middle" x="169.62" y="-99" font-family="Helvetica,sans-Serif" font-size="10.00">CA configuration</text>
<text xml:space="preserve" text-anchor="middle" x="169.62" y="-86.25" font-family="Helvetica,sans-Serif" font-size="10.00">&amp; issuing points</text>
</g>
<!-- root&#45;&gt;ou_ca -->
<g id="edge1" class="edge">
<title>root&#45;&gt;ou_ca</title>
<path fill="none" stroke="#6b7280" d="M663.35,-183.5C585.36,-179.12 396.02,-165.24 229.24,-125.05"/>
<polygon fill="#6b7280" stroke="#6b7280" points="230.3,-121.71 219.75,-122.73 228.63,-128.51 230.3,-121.71"/>
</g>
<!-- ou_certs -->
<g id="node3" class="node">
<title>ou_certs</title>
<polygon fill="#dbeafe" stroke="#2563eb" stroke-width="1.2" points="377.38,-120.12 239.88,-120.12 239.88,-84.12 377.38,-84.12 377.38,-120.12"/>
<text xml:space="preserve" text-anchor="middle" x="308.62" y="-105.38" font-family="Helvetica,sans-Serif" font-size="10.00">ou=certificateRepository</text>
<text xml:space="preserve" text-anchor="middle" x="308.62" y="-92.62" font-family="Helvetica,sans-Serif" font-size="10.00">Issued certificates</text>
</g>
<!-- root&#45;&gt;ou_certs -->
<g id="edge2" class="edge">
<title>root&#45;&gt;ou_certs</title>
<path fill="none" stroke="#6b7280" d="M663.39,-179.29C605.01,-169.46 486.68,-148.6 387.62,-125.25 385.2,-124.68 382.74,-124.08 380.26,-123.47"/>
<polygon fill="#6b7280" stroke="#6b7280" points="381.33,-120.13 370.77,-121.04 379.6,-126.91 381.33,-120.13"/>
</g>
<!-- ou_requests -->
<g id="node4" class="node">
<title>ou_requests</title>
<polygon fill="#dbeafe" stroke="#2563eb" stroke-width="1.2" points="510.25,-120.12 399,-120.12 399,-84.12 510.25,-84.12 510.25,-120.12"/>
<text xml:space="preserve" text-anchor="middle" x="454.62" y="-105.38" font-family="Helvetica,sans-Serif" font-size="10.00">ou=requests</text>
<text xml:space="preserve" text-anchor="middle" x="454.62" y="-92.62" font-family="Helvetica,sans-Serif" font-size="10.00">Certificate requests</text>
</g>
<!-- root&#45;&gt;ou_requests -->
<g id="edge3" class="edge">
<title>root&#45;&gt;ou_requests</title>
<path fill="none" stroke="#6b7280" d="M663.47,-173.13C625.15,-160.29 563.89,-139.75 517.6,-124.23"/>
<polygon fill="#6b7280" stroke="#6b7280" points="518.8,-120.95 508.21,-121.09 516.58,-127.58 518.8,-120.95"/>
</g>
<!-- ou_ranges -->
<g id="node5" class="node">
<title>ou_ranges</title>
<polygon fill="#fef3c7" stroke="#d97706" stroke-width="1.2" points="616.75,-125.25 532.5,-125.25 532.5,-79 616.75,-79 616.75,-125.25"/>
<text xml:space="preserve" text-anchor="middle" x="574.62" y="-111.75" font-family="Helvetica,sans-Serif" font-size="10.00">ou=ranges</text>
<text xml:space="preserve" text-anchor="middle" x="574.62" y="-99" font-family="Helvetica,sans-Serif" font-size="10.00">Serial number</text>
<text xml:space="preserve" text-anchor="middle" x="574.62" y="-86.25" font-family="Helvetica,sans-Serif" font-size="10.00">ranges</text>
</g>
<!-- root&#45;&gt;ou_ranges -->
<g id="edge4" class="edge">
<title>root&#45;&gt;ou_ranges</title>
<path fill="none" stroke="#6b7280" d="M673.12,-167.83C657.32,-157.46 636.88,-144.02 618.71,-132.09"/>
<polygon fill="#6b7280" stroke="#6b7280" points="620.72,-129.22 610.44,-126.66 616.88,-135.07 620.72,-129.22"/>
</g>
<!-- ou_profiles -->
<g id="node6" class="node">
<title>ou_profiles</title>
<polygon fill="#fef3c7" stroke="#d97706" stroke-width="1.2" points="760.12,-125.25 639.12,-125.25 639.12,-79 760.12,-79 760.12,-125.25"/>
<text xml:space="preserve" text-anchor="middle" x="699.62" y="-111.75" font-family="Helvetica,sans-Serif" font-size="10.00">ou=certificateProfiles</text>
<text xml:space="preserve" text-anchor="middle" x="699.62" y="-99" font-family="Helvetica,sans-Serif" font-size="10.00">Issuance profiles</text>
<text xml:space="preserve" text-anchor="middle" x="699.62" y="-86.25" font-family="Helvetica,sans-Serif" font-size="10.00">(.cfg format)</text>
</g>
<!-- root&#45;&gt;ou_profiles -->
<g id="edge5" class="edge">
<title>root&#45;&gt;ou_profiles</title>
<path fill="none" stroke="#6b7280" d="M699.62,-167.83C699.62,-158.94 699.62,-147.8 699.62,-137.28"/>
<polygon fill="#6b7280" stroke="#6b7280" points="703.13,-137.34 699.63,-127.34 696.13,-137.34 703.13,-137.34"/>
</g>
<!-- ou_acme -->
<g id="node7" class="node">
<title>ou_acme</title>
<polygon fill="#d1fae5" stroke="#059669" stroke-width="1.2" points="854.75,-120.12 782.5,-120.12 782.5,-84.12 854.75,-84.12 854.75,-120.12"/>
<text xml:space="preserve" text-anchor="middle" x="818.62" y="-105.38" font-family="Helvetica,sans-Serif" font-size="10.00">ou=acme</text>
<text xml:space="preserve" text-anchor="middle" x="818.62" y="-92.62" font-family="Helvetica,sans-Serif" font-size="10.00">ACME state</text>
</g>
<!-- root&#45;&gt;ou_acme -->
<g id="edge6" class="edge">
<title>root&#45;&gt;ou_acme</title>
<path fill="none" stroke="#6b7280" d="M724.86,-167.83C742.06,-155.97 765.05,-140.1 783.96,-127.05"/>
<polygon fill="#6b7280" stroke="#6b7280" points="785.94,-129.94 792.18,-121.38 781.96,-124.18 785.94,-129.94"/>
</g>
<!-- ou_kra -->
<g id="node8" class="node">
<title>ou_kra</title>
<polygon fill="#fee2e2" stroke="#dc2626" stroke-width="1.2" points="1020,-125.25 937.25,-125.25 937.25,-79 1020,-79 1020,-125.25"/>
<text xml:space="preserve" text-anchor="middle" x="978.62" y="-111.75" font-family="Helvetica,sans-Serif" font-size="10.00">ou=kra</text>
<text xml:space="preserve" text-anchor="middle" x="978.62" y="-99" font-family="Helvetica,sans-Serif" font-size="10.00">Key Recovery</text>
<text xml:space="preserve" text-anchor="middle" x="978.62" y="-86.25" font-family="Helvetica,sans-Serif" font-size="10.00">Authority</text>
</g>
<!-- root&#45;&gt;ou_kra -->
<g id="edge7" class="edge">
<title>root&#45;&gt;ou_kra</title>
<path fill="none" stroke="#6b7280" d="M735.81,-174.6C784.23,-160.35 870.42,-134.98 926.02,-118.61"/>
<polygon fill="#6b7280" stroke="#6b7280" points="926.99,-121.97 935.6,-115.79 925.02,-115.26 926.99,-121.97"/>
</g>
<!-- ou_security -->
<g id="node9" class="node">
<title>ou_security</title>
<polygon fill="#f3f4f6" stroke="#6b7280" stroke-width="1.2" points="1137.38,-125.25 1041.88,-125.25 1041.88,-79 1137.38,-79 1137.38,-125.25"/>
<text xml:space="preserve" text-anchor="middle" x="1089.62" y="-111.75" font-family="Helvetica,sans-Serif" font-size="10.00">ou=security</text>
<text xml:space="preserve" text-anchor="middle" x="1089.62" y="-99" font-family="Helvetica,sans-Serif" font-size="10.00">Security domain</text>
<text xml:space="preserve" text-anchor="middle" x="1089.62" y="-86.25" font-family="Helvetica,sans-Serif" font-size="10.00">&amp; groups</text>
</g>
<!-- root&#45;&gt;ou_security -->
<g id="edge8" class="edge">
<title>root&#45;&gt;ou_security</title>
<path fill="none" stroke="#6b7280" d="M735.86,-180.85C795.34,-173.16 917.4,-155.43 1030.63,-124.94"/>
<polygon fill="#6b7280" stroke="#6b7280" points="1031.38,-128.37 1040.1,-122.35 1029.53,-121.62 1031.38,-128.37"/>
</g>
<!-- ou_people -->
<g id="node10" class="node">
<title>ou_people</title>
<polygon fill="#f3f4f6" stroke="#6b7280" stroke-width="1.2" points="1248,-125.25 1159.25,-125.25 1159.25,-79 1248,-79 1248,-125.25"/>
<text xml:space="preserve" text-anchor="middle" x="1203.62" y="-111.75" font-family="Helvetica,sans-Serif" font-size="10.00">ou=people</text>
<text xml:space="preserve" text-anchor="middle" x="1203.62" y="-99" font-family="Helvetica,sans-Serif" font-size="10.00">Agent &amp; admin</text>
<text xml:space="preserve" text-anchor="middle" x="1203.62" y="-86.25" font-family="Helvetica,sans-Serif" font-size="10.00">accounts</text>
</g>
<!-- root&#45;&gt;ou_people -->
<g id="edge9" class="edge">
<title>root&#45;&gt;ou_people</title>
<path fill="none" stroke="#6b7280" d="M735.72,-183.48C811.01,-179.15 990.14,-165.46 1148.06,-125"/>
<polygon fill="#6b7280" stroke="#6b7280" points="1148.66,-128.47 1157.45,-122.55 1146.89,-121.69 1148.66,-128.47"/>
</g>
<!-- crl_ip -->
<g id="node11" class="node">
<title>crl_ip</title>
<polygon fill="#d1fae5" stroke="#059669" stroke-width="1.2" points="105.25,-36 0,-36 0,0 105.25,0 105.25,-36"/>
<text xml:space="preserve" text-anchor="middle" x="52.62" y="-20.7" font-family="Helvetica,sans-Serif" font-size="9.00">ou=crlIssuingPoints</text>
<text xml:space="preserve" text-anchor="middle" x="52.62" y="-9.45" font-family="Helvetica,sans-Serif" font-size="9.00">CRL storage</text>
</g>
<!-- ou_ca&#45;&gt;crl_ip -->
<g id="edge10" class="edge">
<title>ou_ca&#45;&gt;crl_ip</title>
<path fill="none" stroke="#6b7280" d="M137.34,-78.47C121.51,-67.35 102.45,-53.97 86.42,-42.72"/>
<polygon fill="#6b7280" stroke="#6b7280" points="88.81,-40.13 78.62,-37.25 84.79,-45.86 88.81,-40.13"/>
</g>
<!-- signing -->
<g id="node12" class="node">
<title>signing</title>
<polygon fill="#d1fae5" stroke="#059669" stroke-width="1.2" points="212.12,-36 127.12,-36 127.12,0 212.12,0 212.12,-36"/>
<text xml:space="preserve" text-anchor="middle" x="169.62" y="-20.7" font-family="Helvetica,sans-Serif" font-size="9.00">cn=signing</text>
<text xml:space="preserve" text-anchor="middle" x="169.62" y="-9.45" font-family="Helvetica,sans-Serif" font-size="9.00">CA signing cert</text>
</g>
<!-- ou_ca&#45;&gt;signing -->
<g id="edge11" class="edge">
<title>ou_ca&#45;&gt;signing</title>
<path fill="none" stroke="#6b7280" d="M169.62,-78.68C169.62,-69.13 169.62,-57.86 169.62,-47.71"/>
<polygon fill="#6b7280" stroke="#6b7280" points="173.13,-47.98 169.63,-37.98 166.13,-47.98 173.13,-47.98"/>
</g>
<!-- subca -->
<g id="node13" class="node">
<title>subca</title>
<polygon fill="#d1fae5" stroke="#059669" stroke-width="1.2" points="326.88,-36 234.38,-36 234.38,0 326.88,0 326.88,-36"/>
<text xml:space="preserve" text-anchor="middle" x="280.62" y="-20.7" font-family="Helvetica,sans-Serif" font-size="9.00">cn=&lt;sub&#45;CA&#45;id&gt;</text>
<text xml:space="preserve" text-anchor="middle" x="280.62" y="-9.45" font-family="Helvetica,sans-Serif" font-size="9.00">Lightweight CAs</text>
</g>
<!-- ou_ca&#45;&gt;subca -->
<g id="edge12" class="edge">
<title>ou_ca&#45;&gt;subca</title>
<path fill="none" stroke="#6b7280" d="M200.25,-78.47C215.13,-67.46 233.02,-54.22 248.14,-43.04"/>
<polygon fill="#6b7280" stroke="#6b7280" points="249.97,-46.04 255.92,-37.28 245.8,-40.41 249.97,-46.04"/>
</g>
<!-- acme_config -->
<g id="node14" class="node">
<title>acme_config</title>
<polygon fill="#d1fae5" stroke="#059669" stroke-width="1.2" points="507.25,-36 414,-36 414,0 507.25,0 507.25,-36"/>
<text xml:space="preserve" text-anchor="middle" x="460.62" y="-20.7" font-family="Helvetica,sans-Serif" font-size="9.00">ou=config</text>
<text xml:space="preserve" text-anchor="middle" x="460.62" y="-9.45" font-family="Helvetica,sans-Serif" font-size="9.00">Enabled/disabled</text>
</g>
<!-- ou_acme&#45;&gt;acme_config -->
<g id="edge13" class="edge">
<title>ou_acme&#45;&gt;acme_config</title>
<path fill="none" stroke="#6b7280" d="M784.14,-83.61C779.99,-81.88 775.76,-80.3 771.62,-79 666.2,-45.91 631.9,-60.64 518.86,-35.82"/>
<polygon fill="#6b7280" stroke="#6b7280" points="519.67,-32.41 509.14,-33.62 518.13,-39.24 519.67,-32.41"/>
</g>
<!-- acme_accounts -->
<g id="node15" class="node">
<title>acme_accounts</title>
<polygon fill="#d1fae5" stroke="#059669" stroke-width="1.2" points="615.5,-36 529.75,-36 529.75,0 615.5,0 615.5,-36"/>
<text xml:space="preserve" text-anchor="middle" x="572.62" y="-20.7" font-family="Helvetica,sans-Serif" font-size="9.00">ou=accounts</text>
<text xml:space="preserve" text-anchor="middle" x="572.62" y="-9.45" font-family="Helvetica,sans-Serif" font-size="9.00">ACME accounts</text>
</g>
<!-- ou_acme&#45;&gt;acme_accounts -->
<g id="edge14" class="edge">
<title>ou_acme&#45;&gt;acme_accounts</title>
<path fill="none" stroke="#6b7280" d="M782.68,-83.53C778.98,-81.92 775.25,-80.38 771.62,-79 712,-56.28 692.84,-55.65 626.93,-36.02"/>
<polygon fill="#6b7280" stroke="#6b7280" points="627.97,-32.68 617.38,-33.14 625.94,-39.38 627.97,-32.68"/>
</g>
<!-- acme_orders -->
<g id="node16" class="node">
<title>acme_orders</title>
<polygon fill="#d1fae5" stroke="#059669" stroke-width="1.2" points="726,-36 637.25,-36 637.25,0 726,0 726,-36"/>
<text xml:space="preserve" text-anchor="middle" x="681.62" y="-20.7" font-family="Helvetica,sans-Serif" font-size="9.00">ou=orders</text>
<text xml:space="preserve" text-anchor="middle" x="681.62" y="-9.45" font-family="Helvetica,sans-Serif" font-size="9.00">Orders &amp; authzs</text>
</g>
<!-- ou_acme&#45;&gt;acme_orders -->
<g id="edge15" class="edge">
<title>ou_acme&#45;&gt;acme_orders</title>
<path fill="none" stroke="#6b7280" d="M789.57,-83.71C769.41,-71.62 742.33,-55.39 720.34,-42.21"/>
<polygon fill="#6b7280" stroke="#6b7280" points="722.31,-39.31 711.94,-37.17 718.71,-45.31 722.31,-39.31"/>
</g>
<!-- acme_nonces -->
<g id="node17" class="node">
<title>acme_nonces</title>
<polygon fill="#d1fae5" stroke="#059669" stroke-width="1.2" points="829.25,-36 748,-36 748,0 829.25,0 829.25,-36"/>
<text xml:space="preserve" text-anchor="middle" x="788.62" y="-20.7" font-family="Helvetica,sans-Serif" font-size="9.00">ou=nonces</text>
<text xml:space="preserve" text-anchor="middle" x="788.62" y="-9.45" font-family="Helvetica,sans-Serif" font-size="9.00">Replay nonces</text>
</g>
<!-- ou_acme&#45;&gt;acme_nonces -->
<g id="edge16" class="edge">
<title>ou_acme&#45;&gt;acme_nonces</title>
<path fill="none" stroke="#6b7280" d="M812.26,-83.71C808.36,-73.04 803.29,-59.14 798.84,-46.95"/>
<polygon fill="#6b7280" stroke="#6b7280" points="802.22,-46.01 795.5,-37.81 795.64,-48.41 802.22,-46.01"/>
</g>
<!-- acme_certs -->
<g id="node18" class="node">
<title>acme_certs</title>
<polygon fill="#d1fae5" stroke="#059669" stroke-width="1.2" points="946,-36 851.25,-36 851.25,0 946,0 946,-36"/>
<text xml:space="preserve" text-anchor="middle" x="898.62" y="-20.7" font-family="Helvetica,sans-Serif" font-size="9.00">ou=certificates</text>
<text xml:space="preserve" text-anchor="middle" x="898.62" y="-9.45" font-family="Helvetica,sans-Serif" font-size="9.00">ACME certificates</text>
</g>
<!-- ou_acme&#45;&gt;acme_certs -->
<g id="edge17" class="edge">
<title>ou_acme&#45;&gt;acme_certs</title>
<path fill="none" stroke="#6b7280" d="M835.59,-83.71C846.73,-72.28 861.48,-57.13 873.91,-44.37"/>
<polygon fill="#6b7280" stroke="#6b7280" points="876.16,-47.08 880.63,-37.48 871.14,-42.2 876.16,-47.08"/>
</g>
<!-- kra_keys -->
<g id="node19" class="node">
<title>kra_keys</title>
<polygon fill="#fee2e2" stroke="#dc2626" stroke-width="1.2" points="1051,-36 968.25,-36 968.25,0 1051,0 1051,-36"/>
<text xml:space="preserve" text-anchor="middle" x="1009.62" y="-20.7" font-family="Helvetica,sans-Serif" font-size="9.00">ou=keys</text>
<text xml:space="preserve" text-anchor="middle" x="1009.62" y="-9.45" font-family="Helvetica,sans-Serif" font-size="9.00">Escrowed keys</text>
</g>
<!-- ou_kra&#45;&gt;kra_keys -->
<g id="edge18" class="edge">
<title>ou_kra&#45;&gt;kra_keys</title>
<path fill="none" stroke="#6b7280" d="M987.1,-78.68C990.78,-68.92 995.14,-57.37 999.04,-47.05"/>
<polygon fill="#6b7280" stroke="#6b7280" points="1002.24,-48.47 1002.5,-37.88 995.69,-46 1002.24,-48.47"/>
</g>
<!-- kra_transport -->
<g id="node20" class="node">
<title>kra_transport</title>
<polygon fill="#fee2e2" stroke="#dc2626" stroke-width="1.2" points="1152.5,-36 1072.75,-36 1072.75,0 1152.5,0 1152.5,-36"/>
<text xml:space="preserve" text-anchor="middle" x="1112.62" y="-20.7" font-family="Helvetica,sans-Serif" font-size="9.00">cn=transport</text>
<text xml:space="preserve" text-anchor="middle" x="1112.62" y="-9.45" font-family="Helvetica,sans-Serif" font-size="9.00">Transport cert</text>
</g>
<!-- ou_kra&#45;&gt;kra_transport -->
<g id="edge19" class="edge">
<title>ou_kra&#45;&gt;kra_transport</title>
<path fill="none" stroke="#6b7280" d="M1015.6,-78.47C1033.98,-67.2 1056.17,-53.6 1074.69,-42.25"/>
<polygon fill="#6b7280" stroke="#6b7280" points="1076.29,-45.38 1082.98,-37.17 1072.63,-39.41 1076.29,-45.38"/>
</g>
<!-- kra_storage_key -->
<g id="node21" class="node">
<title>kra_storage_key</title>
<polygon fill="#fee2e2" stroke="#dc2626" stroke-width="1.2" points="1246.75,-36 1174.5,-36 1174.5,0 1246.75,0 1246.75,-36"/>
<text xml:space="preserve" text-anchor="middle" x="1210.62" y="-20.7" font-family="Helvetica,sans-Serif" font-size="9.00">cn=storage</text>
<text xml:space="preserve" text-anchor="middle" x="1210.62" y="-9.45" font-family="Helvetica,sans-Serif" font-size="9.00">Storage cert</text>
</g>
<!-- ou_kra&#45;&gt;kra_storage_key -->
<g id="edge20" class="edge">
<title>ou_kra&#45;&gt;kra_storage_key</title>
<path fill="none" stroke="#6b7280" d="M1020.5,-82.93C1023.91,-81.56 1027.32,-80.24 1030.62,-79 1085.64,-58.45 1102.97,-56.31 1163.1,-36.09"/>
<polygon fill="#6b7280" stroke="#6b7280" points="1164.2,-39.41 1172.54,-32.88 1161.95,-32.78 1164.2,-39.41"/>
</g>
</g>
</svg>
