<?xml version="1.0" encoding="UTF-8" standalone="no"?>
<!DOCTYPE svg PUBLIC "-//W3C//DTD SVG 1.1//EN"
 "http://www.w3.org/Graphics/SVG/1.1/DTD/svg11.dtd">
<!-- Generated by graphviz version 14.1.4 (20260321.0153)
 -->
<!-- Title: process_isolation Pages: 1 -->
<svg width="1812pt" height="351pt"
 viewBox="0.00 0.00 1812.00 351.00" xmlns="http://www.w3.org/2000/svg" xmlns:xlink="http://www.w3.org/1999/xlink">
<g id="graph0" class="graph" transform="scale(1 1) rotate(0) translate(36 314.81)">
<title>process_isolation</title>
<polygon fill="#ffffff" stroke="none" points="-36,36 -36,-314.81 1775.75,-314.81 1775.75,36 -36,36"/>
<text xml:space="preserve" text-anchor="middle" x="869.88" y="-257.71" font-family="Helvetica,sans-Serif" font-size="18.00" fill="#334155">Process Isolation Model</text>
<g id="clust1" class="cluster">
<title>cluster_httpd</title>
<polygon fill="#dbeafe" stroke="#2563eb" points="8,-44.06 8,-241.06 446,-241.06 446,-44.06 8,-44.06"/>
<text xml:space="preserve" text-anchor="middle" x="227" y="-225.66" font-family="Helvetica,sans-Serif" font-size="12.00" fill="#2563eb">httpd process</text>
<text xml:space="preserve" text-anchor="middle" x="227" y="-211.41" font-family="Helvetica,sans-Serif" font-size="12.00" fill="#2563eb">user: apache</text>
<text xml:space="preserve" text-anchor="middle" x="227" y="-197.16" font-family="Helvetica,sans-Serif" font-size="12.00" fill="#2563eb">NO access to CA keys</text>
</g>
<g id="clust2" class="cluster">
<title>cluster_ipacta</title>
<polygon fill="#d1fae5" stroke="#059669" points="933,-42.06 933,-157.06 1474.5,-157.06 1474.5,-42.06 933,-42.06"/>
<text xml:space="preserve" text-anchor="middle" x="1203.75" y="-141.66" font-family="Helvetica,sans-Serif" font-size="12.00" fill="#059669">ipacta.service</text>
<text xml:space="preserve" text-anchor="middle" x="1203.75" y="-127.41" font-family="Helvetica,sans-Serif" font-size="12.00" fill="#059669">user: ipaca</text>
<text xml:space="preserve" text-anchor="middle" x="1203.75" y="-113.16" font-family="Helvetica,sans-Serif" font-size="12.00" fill="#059669">CA key access</text>
</g>
<!-- mod_ssl -->
<g id="node1" class="node">
<title>mod_ssl</title>
<polygon fill="#93c5fd" stroke="#2563eb" stroke-width="1.5" points="128,-88.06 16,-88.06 16,-52.06 128,-52.06 128,-88.06"/>
<text xml:space="preserve" text-anchor="middle" x="72" y="-73.11" font-family="Helvetica,sans-Serif" font-size="11.00">mod_ssl</text>
<text xml:space="preserve" text-anchor="middle" x="72" y="-59.61" font-family="Helvetica,sans-Serif" font-size="11.00">(TLS termination)</text>
</g>
<!-- proxy -->
<g id="node3" class="node">
<title>proxy</title>
<polygon fill="#93c5fd" stroke="#2563eb" stroke-width="1.5" points="438,-92.06 329.75,-92.06 329.75,-56.06 438,-56.06 438,-92.06"/>
<text xml:space="preserve" text-anchor="middle" x="383.88" y="-77.11" font-family="Helvetica,sans-Serif" font-size="11.00">ProxyPass</text>
<text xml:space="preserve" text-anchor="middle" x="383.88" y="-63.61" font-family="Helvetica,sans-Serif" font-size="11.00">/ca/* → ipacta</text>
</g>
<!-- mod_ssl&#45;&gt;proxy -->
<g id="edge2" class="edge">
<title>mod_ssl&#45;&gt;proxy</title>
<path fill="none" stroke="black" d="M128.4,-70.78C181.57,-71.46 261.88,-72.5 318.01,-73.23"/>
<polygon fill="black" stroke="black" points="317.69,-76.72 327.74,-73.35 317.78,-69.72 317.69,-76.72"/>
</g>
<!-- mod_wsgi -->
<g id="node2" class="node">
<title>mod_wsgi</title>
<polygon fill="#93c5fd" stroke="#2563eb" stroke-width="1.5" points="123.88,-182.06 20.12,-182.06 20.12,-146.06 123.88,-146.06 123.88,-182.06"/>
<text xml:space="preserve" text-anchor="middle" x="72" y="-167.11" font-family="Helvetica,sans-Serif" font-size="11.00">mod_wsgi</text>
<text xml:space="preserve" text-anchor="middle" x="72" y="-153.61" font-family="Helvetica,sans-Serif" font-size="11.00">(IPA framework)</text>
</g>
<!-- mod_wsgi&#45;&gt;proxy -->
<g id="edge1" class="edge">
<title>mod_wsgi&#45;&gt;proxy</title>
<path fill="none" stroke="black" d="M124.52,-149.1C177.71,-133.65 260.83,-109.51 318.36,-92.8"/>
<polygon fill="black" stroke="black" points="319.07,-96.24 327.7,-90.09 317.12,-89.52 319.07,-96.24"/>
<text xml:space="preserve" text-anchor="middle" x="228.88" y="-135.63" font-family="Helvetica,sans-Serif" font-size="10.00">IPA cert commands</text>
</g>
<!-- boundary -->
<g id="node4" class="node">
<title>boundary</title>
<polygon fill="#fee2e2" stroke="#dc2626" stroke-width="1.5" points="670.75,-120.31 577.5,-74.06 670.75,-27.81 764,-74.06 670.75,-120.31"/>
<text xml:space="preserve" text-anchor="middle" x="670.75" y="-83.69" font-family="Helvetica,sans-Serif" font-size="10.00" fill="#dc2626">TLS Boundary</text>
<text xml:space="preserve" text-anchor="middle" x="670.75" y="-70.94" font-family="Helvetica,sans-Serif" font-size="10.00" fill="#dc2626">(mutual TLS,</text>
<text xml:space="preserve" text-anchor="middle" x="670.75" y="-58.19" font-family="Helvetica,sans-Serif" font-size="10.00" fill="#dc2626">client cert auth)</text>
</g>
<!-- proxy&#45;&gt;boundary -->
<g id="edge3" class="edge">
<title>proxy&#45;&gt;boundary</title>
<path fill="none" stroke="#dc2626" stroke-width="2" d="M438.46,-74.06C473.51,-74.06 520.52,-74.06 563.01,-74.06"/>
<polygon fill="#dc2626" stroke="#dc2626" stroke-width="2" points="563,-77.56 573,-74.06 563,-70.56 563,-77.56"/>
<text xml:space="preserve" text-anchor="middle" x="507.75" y="-77.31" font-family="Helvetica,sans-Serif" font-size="10.00">HTTPS</text>
</g>
<!-- guni -->
<g id="node5" class="node">
<title>guni</title>
<polygon fill="#6ee7b7" stroke="#059669" stroke-width="1.5" points="1035,-92.06 941,-92.06 941,-56.06 1035,-56.06 1035,-92.06"/>
<text xml:space="preserve" text-anchor="middle" x="988" y="-77.11" font-family="Helvetica,sans-Serif" font-size="11.00">Gunicorn</text>
<text xml:space="preserve" text-anchor="middle" x="988" y="-63.61" font-family="Helvetica,sans-Serif" font-size="11.00">(multi&#45;worker)</text>
</g>
<!-- boundary&#45;&gt;guni -->
<g id="edge4" class="edge">
<title>boundary&#45;&gt;guni</title>
<path fill="none" stroke="#dc2626" stroke-width="2" d="M765.48,-74.06C818.01,-74.06 881.94,-74.06 927.59,-74.06"/>
<polygon fill="#dc2626" stroke="#dc2626" stroke-width="2" points="927.52,-77.56 937.52,-74.06 927.52,-70.56 927.52,-77.56"/>
<text xml:space="preserve" text-anchor="middle" x="852.5" y="-77.31" font-family="Helvetica,sans-Serif" font-size="10.00">TLS client cert</text>
</g>
<!-- flask -->
<g id="node6" class="node">
<title>flask</title>
<polygon fill="#6ee7b7" stroke="#059669" stroke-width="1.5" points="1270.25,-98.31 1144,-98.31 1144,-49.81 1270.25,-49.81 1270.25,-98.31"/>
<text xml:space="preserve" text-anchor="middle" x="1207.12" y="-83.86" font-family="Helvetica,sans-Serif" font-size="11.00">Flask REST API</text>
<text xml:space="preserve" text-anchor="middle" x="1207.12" y="-70.36" font-family="Helvetica,sans-Serif" font-size="11.00">(agent auth via</text>
<text xml:space="preserve" text-anchor="middle" x="1207.12" y="-56.86" font-family="Helvetica,sans-Serif" font-size="11.00">SSL_CLIENT_VERIFY)</text>
</g>
<!-- guni&#45;&gt;flask -->
<g id="edge5" class="edge">
<title>guni&#45;&gt;flask</title>
<path fill="none" stroke="black" d="M1035.58,-74.06C1063.78,-74.06 1100.37,-74.06 1132.43,-74.06"/>
<polygon fill="black" stroke="black" points="1132.04,-77.56 1142.04,-74.06 1132.04,-70.56 1132.04,-77.56"/>
</g>
<!-- engine -->
<g id="node7" class="node">
<title>engine</title>
<polygon fill="#6ee7b7" stroke="#059669" stroke-width="1.5" points="1466.5,-92.06 1379.25,-92.06 1379.25,-56.06 1466.5,-56.06 1466.5,-92.06"/>
<text xml:space="preserve" text-anchor="middle" x="1422.88" y="-77.11" font-family="Helvetica,sans-Serif" font-size="11.00">CA Engine</text>
<text xml:space="preserve" text-anchor="middle" x="1422.88" y="-63.61" font-family="Helvetica,sans-Serif" font-size="11.00">(signing ops)</text>
</g>
<!-- flask&#45;&gt;engine -->
<g id="edge6" class="edge">
<title>flask&#45;&gt;engine</title>
<path fill="none" stroke="black" d="M1270.81,-74.06C1301.37,-74.06 1337.78,-74.06 1367.2,-74.06"/>
<polygon fill="black" stroke="black" points="1367,-77.56 1377,-74.06 1367,-70.56 1367,-77.56"/>
</g>
<!-- keys -->
<g id="node8" class="node">
<title>keys</title>
<polygon fill="#fef3c7" stroke="#d97706" stroke-width="1.5" points="1739.75,-142.06 1736.75,-146.06 1715.75,-146.06 1712.75,-142.06 1646.5,-142.06 1646.5,-106.06 1739.75,-106.06 1739.75,-142.06"/>
<text xml:space="preserve" text-anchor="middle" x="1693.12" y="-127.11" font-family="Helvetica,sans-Serif" font-size="11.00">NSS DB / HSM</text>
<text xml:space="preserve" text-anchor="middle" x="1693.12" y="-113.61" font-family="Helvetica,sans-Serif" font-size="11.00">(private keys)</text>
</g>
<!-- engine&#45;&gt;keys -->
<g id="edge7" class="edge">
<title>engine&#45;&gt;keys</title>
<path fill="none" stroke="black" d="M1466.97,-82.1C1512.55,-90.59 1584.67,-104.03 1634.97,-113.41"/>
<polygon fill="black" stroke="black" points="1634.02,-116.79 1644.5,-115.18 1635.31,-109.91 1634.02,-116.79"/>
<text xml:space="preserve" text-anchor="middle" x="1556.5" y="-108.26" font-family="Helvetica,sans-Serif" font-size="10.00">sign / verify</text>
</g>
<!-- ds -->
<g id="node9" class="node">
<title>ds</title>
<path fill="#ede9fe" stroke="#7c3aed" stroke-width="1.5" d="M1720.62,-43.75C1720.62,-46.16 1708.3,-48.12 1693.12,-48.12 1677.95,-48.12 1665.62,-46.16 1665.62,-43.75 1665.62,-43.75 1665.62,-4.38 1665.62,-4.38 1665.62,-1.96 1677.95,0 1693.12,0 1708.3,0 1720.62,-1.96 1720.62,-4.38 1720.62,-4.38 1720.62,-43.75 1720.62,-43.75"/>
<path fill="none" stroke="#7c3aed" stroke-width="1.5" d="M1720.62,-43.75C1720.62,-41.34 1708.3,-39.38 1693.12,-39.38 1677.95,-39.38 1665.62,-41.34 1665.62,-43.75"/>
<text xml:space="preserve" text-anchor="middle" x="1693.12" y="-27.11" font-family="Helvetica,sans-Serif" font-size="11.00">389 DS</text>
<text xml:space="preserve" text-anchor="middle" x="1693.12" y="-13.61" font-family="Helvetica,sans-Serif" font-size="11.00">(LDAP)</text>
</g>
<!-- engine&#45;&gt;ds -->
<g id="edge8" class="edge">
<title>engine&#45;&gt;ds</title>
<path fill="none" stroke="black" d="M1466.97,-66.03C1518.66,-56.39 1604.51,-40.39 1653.92,-31.18"/>
<polygon fill="black" stroke="black" points="1654.39,-34.66 1663.58,-29.38 1653.11,-27.78 1654.39,-34.66"/>
<text xml:space="preserve" text-anchor="middle" x="1556.5" y="-58.26" font-family="Helvetica,sans-Serif" font-size="10.00">store / retrieve</text>
</g>
</g>
</svg>
