<?xml version="1.0" encoding="UTF-8" standalone="no"?>
<!DOCTYPE svg PUBLIC "-//W3C//DTD SVG 1.1//EN"
 "http://www.w3.org/Graphics/SVG/1.1/DTD/svg11.dtd">
<!-- Generated by graphviz version 14.1.4 (20260321.0153)
 -->
<!-- Title: storage_layer Pages: 1 -->
<svg width="1241pt" height="482pt"
 viewBox="0.00 0.00 1241.00 482.00" xmlns="http://www.w3.org/2000/svg" xmlns:xlink="http://www.w3.org/1999/xlink">
<g id="graph0" class="graph" transform="scale(1 1) rotate(0) translate(36 446.27)">
<title>storage_layer</title>
<polygon fill="#ffffff" stroke="none" points="-36,36 -36,-446.27 1205.12,-446.27 1205.12,36 -36,36"/>
<text xml:space="preserve" text-anchor="middle" x="584.56" y="-389.17" font-family="Helvetica,sans-Serif" font-size="18.00" fill="#334155">Storage Layer Architecture</text>
<!-- factory -->
<g id="node1" class="node">
<title>factory</title>
<polygon fill="#fef3c7" stroke="#d97706" stroke-width="1.5" points="658.57,-353.17 606.72,-380.52 503.03,-380.52 451.18,-353.17 503.03,-325.81 606.72,-325.81 658.57,-353.17"/>
<text xml:space="preserve" text-anchor="middle" x="554.88" y="-356.42" font-family="Helvetica,sans-Serif" font-size="10.00">StorageFactory</text>
<text xml:space="preserve" text-anchor="middle" x="554.88" y="-343.67" font-family="Helvetica,sans-Serif" font-size="10.00">(get_storage_backend)</text>
</g>
<!-- cert_store -->
<g id="node3" class="node">
<title>cert_store</title>
<polygon fill="#dbeafe" stroke="#2563eb" stroke-width="1.5" points="103.75,-274.81 0,-274.81 0,-238.81 103.75,-238.81 103.75,-274.81"/>
<text xml:space="preserve" text-anchor="middle" x="51.88" y="-260.06" font-family="Helvetica,sans-Serif" font-size="10.00">CertificateStorage</text>
<text xml:space="preserve" text-anchor="middle" x="51.88" y="-247.31" font-family="Helvetica,sans-Serif" font-size="10.00">(certificates.py)</text>
</g>
<!-- factory&#45;&gt;cert_store -->
<g id="edge1" class="edge">
<title>factory&#45;&gt;cert_store</title>
<path fill="none" stroke="#6b7280" stroke-dasharray="5,2" d="M475.38,-339.59C388.12,-325.42 244.04,-300.93 120.88,-274.81 119.01,-274.42 117.11,-274.01 115.21,-273.59"/>
<polygon fill="#6b7280" stroke="#6b7280" points="116.16,-270.21 105.64,-271.41 114.61,-277.04 116.16,-270.21"/>
</g>
<!-- ca_store -->
<g id="node4" class="node">
<title>ca_store</title>
<polygon fill="#d1fae5" stroke="#059669" stroke-width="1.5" points="206.38,-274.81 139.38,-274.81 139.38,-238.81 206.38,-238.81 206.38,-274.81"/>
<text xml:space="preserve" text-anchor="middle" x="172.88" y="-260.06" font-family="Helvetica,sans-Serif" font-size="10.00">CAStorage</text>
<text xml:space="preserve" text-anchor="middle" x="172.88" y="-247.31" font-family="Helvetica,sans-Serif" font-size="10.00">(ca.py)</text>
</g>
<!-- factory&#45;&gt;ca_store -->
<g id="edge3" class="edge">
<title>factory&#45;&gt;ca_store</title>
<path fill="none" stroke="#6b7280" stroke-dasharray="5,2" d="M481.02,-336.75C413.83,-322.28 312.14,-299.26 224.88,-274.81 222.5,-274.15 220.07,-273.44 217.62,-272.71"/>
<polygon fill="#6b7280" stroke="#6b7280" points="218.91,-269.44 208.32,-269.84 216.84,-276.13 218.91,-269.44"/>
</g>
<!-- crl_store -->
<g id="node5" class="node">
<title>crl_store</title>
<polygon fill="#d1fae5" stroke="#059669" stroke-width="1.5" points="315,-274.81 242.75,-274.81 242.75,-238.81 315,-238.81 315,-274.81"/>
<text xml:space="preserve" text-anchor="middle" x="278.88" y="-260.06" font-family="Helvetica,sans-Serif" font-size="10.00">CRLStorage</text>
<text xml:space="preserve" text-anchor="middle" x="278.88" y="-247.31" font-family="Helvetica,sans-Serif" font-size="10.00">(crl.py)</text>
</g>
<!-- factory&#45;&gt;crl_store -->
<g id="edge5" class="edge">
<title>factory&#45;&gt;crl_store</title>
<path fill="none" stroke="#6b7280" stroke-dasharray="5,2" d="M492.25,-330.76C441.85,-313.53 372.11,-289.68 326.27,-274.01"/>
<polygon fill="#6b7280" stroke="#6b7280" points="327.47,-270.72 316.87,-270.8 325.2,-277.35 327.47,-270.72"/>
</g>
<!-- subca_store -->
<g id="node6" class="node">
<title>subca_store</title>
<polygon fill="#d1fae5" stroke="#059669" stroke-width="1.5" points="436.38,-274.81 351.38,-274.81 351.38,-238.81 436.38,-238.81 436.38,-274.81"/>
<text xml:space="preserve" text-anchor="middle" x="393.88" y="-260.06" font-family="Helvetica,sans-Serif" font-size="10.00">SubCAStorage</text>
<text xml:space="preserve" text-anchor="middle" x="393.88" y="-247.31" font-family="Helvetica,sans-Serif" font-size="10.00">(subca.py)</text>
</g>
<!-- factory&#45;&gt;subca_store -->
<g id="edge7" class="edge">
<title>factory&#45;&gt;subca_store</title>
<path fill="none" stroke="#6b7280" stroke-dasharray="5,2" d="M508.74,-325.13C484.94,-311.18 456.21,-294.34 433.44,-281"/>
<polygon fill="#6b7280" stroke="#6b7280" points="435.46,-278.13 425.06,-276.09 431.92,-284.16 435.46,-278.13"/>
</g>
<!-- profile_store -->
<g id="node7" class="node">
<title>profile_store</title>
<polygon fill="#ede9fe" stroke="#7c3aed" stroke-width="1.5" points="557,-274.81 472.75,-274.81 472.75,-238.81 557,-238.81 557,-274.81"/>
<text xml:space="preserve" text-anchor="middle" x="514.88" y="-260.06" font-family="Helvetica,sans-Serif" font-size="10.00">ProfileStorage</text>
<text xml:space="preserve" text-anchor="middle" x="514.88" y="-247.31" font-family="Helvetica,sans-Serif" font-size="10.00">(profiles.py)</text>
</g>
<!-- factory&#45;&gt;profile_store -->
<g id="edge9" class="edge">
<title>factory&#45;&gt;profile_store</title>
<path fill="none" stroke="#6b7280" stroke-dasharray="5,2" d="M543.41,-325.13C538.16,-312.74 531.95,-298.08 526.66,-285.61"/>
<polygon fill="#6b7280" stroke="#6b7280" points="530.02,-284.56 522.89,-276.72 523.57,-287.29 530.02,-284.56"/>
</g>
<!-- acme_store -->
<g id="node8" class="node">
<title>acme_store</title>
<polygon fill="#ede9fe" stroke="#7c3aed" stroke-width="1.5" points="674.88,-274.81 592.88,-274.81 592.88,-238.81 674.88,-238.81 674.88,-274.81"/>
<text xml:space="preserve" text-anchor="middle" x="633.88" y="-260.06" font-family="Helvetica,sans-Serif" font-size="10.00">ACMEStorage</text>
<text xml:space="preserve" text-anchor="middle" x="633.88" y="-247.31" font-family="Helvetica,sans-Serif" font-size="10.00">(acme.py)</text>
</g>
<!-- factory&#45;&gt;acme_store -->
<g id="edge11" class="edge">
<title>factory&#45;&gt;acme_store</title>
<path fill="none" stroke="#6b7280" stroke-dasharray="5,2" d="M577.51,-325.13C588.3,-312.24 601.15,-296.9 611.86,-284.11"/>
<polygon fill="#6b7280" stroke="#6b7280" points="614.51,-286.4 618.24,-276.48 609.14,-281.9 614.51,-286.4"/>
</g>
<!-- kra_store -->
<g id="node9" class="node">
<title>kra_store</title>
<polygon fill="#fee2e2" stroke="#dc2626" stroke-width="1.5" points="784.75,-274.81 711,-274.81 711,-238.81 784.75,-238.81 784.75,-274.81"/>
<text xml:space="preserve" text-anchor="middle" x="747.88" y="-260.06" font-family="Helvetica,sans-Serif" font-size="10.00">KRAStorage</text>
<text xml:space="preserve" text-anchor="middle" x="747.88" y="-247.31" font-family="Helvetica,sans-Serif" font-size="10.00">(kra.py)</text>
</g>
<!-- factory&#45;&gt;kra_store -->
<g id="edge13" class="edge">
<title>factory&#45;&gt;kra_store</title>
<path fill="none" stroke="#6b7280" stroke-dasharray="5,2" d="M608.38,-326.01C637.56,-311.74 673.34,-294.25 701.35,-280.56"/>
<polygon fill="#6b7280" stroke="#6b7280" points="702.87,-283.71 710.32,-276.17 699.8,-277.42 702.87,-283.71"/>
</g>
<!-- range_store -->
<g id="node10" class="node">
<title>range_store</title>
<polygon fill="#fef3c7" stroke="#d97706" stroke-width="1.5" points="905,-274.81 820.75,-274.81 820.75,-238.81 905,-238.81 905,-274.81"/>
<text xml:space="preserve" text-anchor="middle" x="862.88" y="-260.06" font-family="Helvetica,sans-Serif" font-size="10.00">RangeStorage</text>
<text xml:space="preserve" text-anchor="middle" x="862.88" y="-247.31" font-family="Helvetica,sans-Serif" font-size="10.00">(ranges.py)</text>
</g>
<!-- factory&#45;&gt;range_store -->
<g id="edge15" class="edge">
<title>factory&#45;&gt;range_store</title>
<path fill="none" stroke="#6b7280" stroke-dasharray="5,2" d="M620.19,-332.16C676.57,-314.88 757.01,-290.24 809.58,-274.14"/>
<polygon fill="#6b7280" stroke="#6b7280" points="810.37,-277.56 818.9,-271.28 808.32,-270.86 810.37,-277.56"/>
</g>
<!-- hsm_store -->
<g id="node11" class="node">
<title>hsm_store</title>
<polygon fill="#fef3c7" stroke="#d97706" stroke-width="1.5" points="1016.88,-274.81 940.88,-274.81 940.88,-238.81 1016.88,-238.81 1016.88,-274.81"/>
<text xml:space="preserve" text-anchor="middle" x="978.88" y="-260.06" font-family="Helvetica,sans-Serif" font-size="10.00">HSMStorage</text>
<text xml:space="preserve" text-anchor="middle" x="978.88" y="-247.31" font-family="Helvetica,sans-Serif" font-size="10.00">(hsm.py)</text>
</g>
<!-- factory&#45;&gt;hsm_store -->
<g id="edge17" class="edge">
<title>factory&#45;&gt;hsm_store</title>
<path fill="none" stroke="#6b7280" stroke-dasharray="5,2" d="M631.44,-338.1C706.2,-323.89 822.96,-300.43 922.88,-274.81 924.98,-274.27 927.12,-273.71 929.28,-273.12"/>
<polygon fill="#6b7280" stroke="#6b7280" points="930.01,-276.55 938.68,-270.46 928.11,-269.81 930.01,-276.55"/>
</g>
<!-- maint_store -->
<g id="node12" class="node">
<title>maint_store</title>
<polygon fill="#f3f4f6" stroke="#6b7280" stroke-width="1.5" points="1169.12,-274.81 1052.62,-274.81 1052.62,-238.81 1169.12,-238.81 1169.12,-274.81"/>
<text xml:space="preserve" text-anchor="middle" x="1110.88" y="-260.06" font-family="Helvetica,sans-Serif" font-size="10.00">MaintenanceStorage</text>
<text xml:space="preserve" text-anchor="middle" x="1110.88" y="-247.31" font-family="Helvetica,sans-Serif" font-size="10.00">(maintenance.py)</text>
</g>
<!-- factory&#45;&gt;maint_store -->
<g id="edge19" class="edge">
<title>factory&#45;&gt;maint_store</title>
<path fill="none" stroke="#6b7280" stroke-dasharray="5,2" d="M636.24,-340.58C731.93,-326.6 895.41,-301.62 1034.88,-274.81 1036.88,-274.43 1038.91,-274.03 1040.96,-273.62"/>
<polygon fill="#6b7280" stroke="#6b7280" points="1041.46,-277.09 1050.55,-271.65 1040.05,-270.23 1041.46,-277.09"/>
</g>
<!-- base -->
<g id="node2" class="node">
<title>base</title>
<polygon fill="#f3f4f6" stroke="#6b7280" stroke-width="1.5" points="636.62,-177.56 515.12,-177.56 511.12,-173.56 511.12,-118.56 632.62,-118.56 636.62,-122.56 636.62,-177.56"/>
<polyline fill="none" stroke="#6b7280" stroke-width="1.5" points="632.62,-173.56 511.12,-173.56"/>
<polyline fill="none" stroke="#6b7280" stroke-width="1.5" points="632.62,-173.56 632.62,-118.56"/>
<polyline fill="none" stroke="#6b7280" stroke-width="1.5" points="632.62,-173.56 636.62,-177.56"/>
<text xml:space="preserve" text-anchor="middle" x="573.88" y="-164.06" font-family="Helvetica,sans-Serif" font-size="10.00">StorageBackend</text>
<text xml:space="preserve" text-anchor="middle" x="573.88" y="-151.31" font-family="Helvetica,sans-Serif" font-size="10.00">(base.py)</text>
<text xml:space="preserve" text-anchor="middle" x="573.88" y="-138.56" font-family="Helvetica,sans-Serif" font-size="10.00">LDAP connection pool</text>
<text xml:space="preserve" text-anchor="middle" x="573.88" y="-125.81" font-family="Helvetica,sans-Serif" font-size="10.00">base DN management</text>
</g>
<!-- ldap -->
<g id="node13" class="node">
<title>ldap</title>
<path fill="#ede9fe" stroke="#7c3aed" stroke-width="1.5" d="M632.12,-41.88C632.12,-44.19 606.02,-46.06 573.88,-46.06 541.73,-46.06 515.62,-44.19 515.62,-41.88 515.62,-41.88 515.62,-4.19 515.62,-4.19 515.62,-1.88 541.73,0 573.88,0 606.02,0 632.12,-1.88 632.12,-4.19 632.12,-4.19 632.12,-41.88 632.12,-41.88"/>
<path fill="none" stroke="#7c3aed" stroke-width="1.5" d="M632.12,-41.88C632.12,-39.56 606.02,-37.69 573.88,-37.69 541.73,-37.69 515.62,-39.56 515.62,-41.88"/>
<text xml:space="preserve" text-anchor="middle" x="573.88" y="-26.28" font-family="Helvetica,sans-Serif" font-size="10.00">389 Directory Server</text>
<text xml:space="preserve" text-anchor="middle" x="573.88" y="-13.53" font-family="Helvetica,sans-Serif" font-size="10.00">(o=ipaca)</text>
</g>
<!-- base&#45;&gt;ldap -->
<g id="edge21" class="edge">
<title>base&#45;&gt;ldap</title>
<path fill="none" stroke="#6b7280" d="M573.88,-117.91C573.88,-99.87 573.88,-76.64 573.88,-57.8"/>
<polygon fill="#6b7280" stroke="#6b7280" points="577.38,-57.95 573.88,-47.95 570.38,-57.95 577.38,-57.95"/>
<text xml:space="preserve" text-anchor="middle" x="609.88" y="-85.01" font-family="Helvetica,sans-Serif" font-size="9.00">python&#45;ldap</text>
<text xml:space="preserve" text-anchor="middle" x="609.88" y="-73.76" font-family="Helvetica,sans-Serif" font-size="9.00">connection pool</text>
</g>
<!-- cert_store&#45;&gt;base -->
<g id="edge2" class="edge">
<title>cert_store&#45;&gt;base</title>
<path fill="none" stroke="#6b7280" stroke-dasharray="1,5" d="M104.33,-241.47C147.08,-230.06 209.11,-214.15 263.88,-202.56 343.89,-185.63 436.38,-170.2 499.36,-160.31"/>
<polygon fill="#6b7280" stroke="#6b7280" points="499.54,-163.82 508.88,-158.82 498.46,-156.91 499.54,-163.82"/>
<text xml:space="preserve" text-anchor="middle" x="281.88" y="-205.26" font-family="Helvetica,sans-Serif" font-size="9.00">extends</text>
</g>
<!-- ca_store&#45;&gt;base -->
<g id="edge4" class="edge">
<title>ca_store&#45;&gt;base</title>
<path fill="none" stroke="#6b7280" stroke-dasharray="1,5" d="M206.95,-244.49C212.91,-242.56 219.07,-240.6 224.88,-238.81 280.15,-221.77 293.95,-217.34 349.88,-202.56 399.48,-189.45 455.64,-176.04 499.32,-165.93"/>
<polygon fill="#6b7280" stroke="#6b7280" points="500,-169.36 508.96,-163.7 498.43,-162.54 500,-169.36"/>
<text xml:space="preserve" text-anchor="middle" x="367.88" y="-205.26" font-family="Helvetica,sans-Serif" font-size="9.00">extends</text>
</g>
<!-- crl_store&#45;&gt;base -->
<g id="edge6" class="edge">
<title>crl_store&#45;&gt;base</title>
<path fill="none" stroke="#6b7280" stroke-dasharray="1,5" d="M315.52,-242.1C344.59,-231.27 386.28,-215.81 422.88,-202.56 447.93,-193.49 475.39,-183.71 499.93,-175.03"/>
<polygon fill="#6b7280" stroke="#6b7280" points="500.93,-178.39 509.2,-171.76 498.6,-171.79 500.93,-178.39"/>
<text xml:space="preserve" text-anchor="middle" x="440.88" y="-205.26" font-family="Helvetica,sans-Serif" font-size="9.00">extends</text>
</g>
<!-- subca_store&#45;&gt;base -->
<g id="edge8" class="edge">
<title>subca_store&#45;&gt;base</title>
<path fill="none" stroke="#6b7280" stroke-dasharray="1,5" d="M423.6,-238.18C448.38,-223.49 484.44,-202.1 515.02,-183.97"/>
<polygon fill="#6b7280" stroke="#6b7280" points="516.62,-187.09 523.44,-178.98 513.05,-181.07 516.62,-187.09"/>
<text xml:space="preserve" text-anchor="middle" x="496.48" y="-205.26" font-family="Helvetica,sans-Serif" font-size="9.00">extends</text>
</g>
<!-- profile_store&#45;&gt;base -->
<g id="edge10" class="edge">
<title>profile_store&#45;&gt;base</title>
<path fill="none" stroke="#6b7280" stroke-dasharray="1,5" d="M523.33,-238.39C528.5,-227.91 535.37,-214.36 541.88,-202.56 544.48,-197.84 547.29,-192.92 550.12,-188.07"/>
<polygon fill="#6b7280" stroke="#6b7280" points="553.06,-189.98 555.13,-179.59 547.03,-186.42 553.06,-189.98"/>
<text xml:space="preserve" text-anchor="middle" x="559.88" y="-205.26" font-family="Helvetica,sans-Serif" font-size="9.00">extends</text>
</g>
<!-- acme_store&#45;&gt;base -->
<g id="edge12" class="edge">
<title>acme_store&#45;&gt;base</title>
<path fill="none" stroke="#6b7280" stroke-dasharray="1,5" d="M623.97,-238.18C616.29,-224.52 605.36,-205.08 595.67,-187.83"/>
<polygon fill="#6b7280" stroke="#6b7280" points="598.83,-186.32 590.88,-179.31 592.73,-189.75 598.83,-186.32"/>
<text xml:space="preserve" text-anchor="middle" x="627.25" y="-205.26" font-family="Helvetica,sans-Serif" font-size="9.00">extends</text>
</g>
<!-- kra_store&#45;&gt;base -->
<g id="edge14" class="edge">
<title>kra_store&#45;&gt;base</title>
<path fill="none" stroke="#6b7280" stroke-dasharray="1,5" d="M719.14,-238.18C695.29,-223.55 660.63,-202.29 631.15,-184.2"/>
<polygon fill="#6b7280" stroke="#6b7280" points="633.02,-181.24 622.66,-179 629.36,-187.21 633.02,-181.24"/>
<text xml:space="preserve" text-anchor="middle" x="694.46" y="-205.26" font-family="Helvetica,sans-Serif" font-size="9.00">extends</text>
</g>
<!-- range_store&#45;&gt;base -->
<g id="edge16" class="edge">
<title>range_store&#45;&gt;base</title>
<path fill="none" stroke="#6b7280" stroke-dasharray="1,5" d="M820.05,-239.46C792.13,-228.84 754.89,-214.76 721.88,-202.56 697.87,-193.69 671.62,-184.15 647.99,-175.62"/>
<polygon fill="#6b7280" stroke="#6b7280" points="649.34,-172.39 638.75,-172.29 646.97,-178.97 649.34,-172.39"/>
<text xml:space="preserve" text-anchor="middle" x="766.91" y="-205.26" font-family="Helvetica,sans-Serif" font-size="9.00">extends</text>
</g>
<!-- hsm_store&#45;&gt;base -->
<g id="edge18" class="edge">
<title>hsm_store&#45;&gt;base</title>
<path fill="none" stroke="#6b7280" stroke-dasharray="1,5" d="M940.35,-244C934.5,-242.24 928.53,-240.47 922.88,-238.81 865.71,-222.11 851.48,-217.66 793.88,-202.56 745.53,-189.9 690.94,-176.62 648.24,-166.45"/>
<polygon fill="#6b7280" stroke="#6b7280" points="649.1,-163.06 638.56,-164.16 647.48,-169.87 649.1,-163.06"/>
<text xml:space="preserve" text-anchor="middle" x="851.96" y="-205.26" font-family="Helvetica,sans-Serif" font-size="9.00">extends</text>
</g>
<!-- maint_store&#45;&gt;base -->
<g id="edge20" class="edge">
<title>maint_store&#45;&gt;base</title>
<path fill="none" stroke="#6b7280" stroke-dasharray="1,5" d="M1051.94,-241.39C1005.15,-230.16 938.01,-214.53 878.88,-202.56 800.5,-186.71 710.24,-171.21 648.36,-161.02"/>
<polygon fill="#6b7280" stroke="#6b7280" points="649.07,-157.59 638.64,-159.42 647.94,-164.49 649.07,-157.59"/>
<text xml:space="preserve" text-anchor="middle" x="947.91" y="-205.26" font-family="Helvetica,sans-Serif" font-size="9.00">extends</text>
</g>
</g>
</svg>
